<svg enable-background="new 0 0 520 520" height="512" viewBox="0 0 520 520" width="512" xmlns="http://www.w3.org/2000/svg"><g id="_x36_05_x2C__Ribbon_x2C__Medal_x2C__Reward_x2C__Star"><g><path d="m457.5 295c13.81 0 25 11.19 25 25s-11.19 25-25 25c-13.801 0-25-11.19-25-25s11.199-25 25-25z" fill="#9bc9ff"/><path d="m72.5 335c16.57 0 30 13.43 30 30s-13.43 30-30 30c-16.56 0-30-13.43-30-30s13.44-30 30-30z" fill="#9bc9ff"/><path d="m322.58 336.43 50.84 120.761-60.84-35.551-17.09 68.36-45.78-108.72 11.979-28.46c10.791-2.91 20-9.66 26.041-18.71 10.65 5.24 23.2 6.26 34.85 2.32z" fill="#9bc9ff"/><path d="m261.689 352.82c-55.855 132.657-56.865 135.056-57.759 137.18l-17.09-68.36-60.84 35.55 50.85-120.771c11.64 3.95 24.18 2.93 34.85-2.309 11.021 16.444 31.173 23.833 49.989 18.71z" fill="#9bc9ff"/><path d="m287.73 334.11c-17.93 26.863-57.769 27.247-76.031 0-29.232 14.354-63.725-5.499-65.85-38.021-32.49-2.162-52.433-36.535-38.01-65.87-27.072-18.034-27.155-57.875 0-76.03-14.492-29.453 5.721-63.757 38.01-65.84 2.109-32.338 36.398-52.502 65.85-38.02 18.116-27.097 57.974-27.107 76.031 0 29.339-14.438 63.707 5.536 65.869 38.02 32.316 2.089 52.449 36.471 38.021 65.84 27.223 18.245 26.9 58.067 0 76.03 14.39 29.265-5.535 63.704-38.021 65.87-2.21 32.817-36.862 52.292-65.869 38.021z" fill="#fff"/><path d="m249.71 90.26c56.309 0 101.979 45.64 101.979 101.95s-45.67 101.97-101.979 101.97c-56.31 0-101.94-45.66-101.94-101.97s45.63-101.95 101.94-101.95z" fill="#9bc9ff"/><path d="m300.5 179.84-30.471 22.14 11.641 35.81-30.47-22.13-30.47 22.13 11.64-35.81-30.47-22.14h37.66l11.64-35.82 11.64 35.82z" fill="#fff"/><g fill="#1e81ce"><path d="m435 70c4.15 0 7.5 3.36 7.5 7.5s-3.35 7.5-7.5 7.5c-4.141 0-7.5-3.36-7.5-7.5s3.359-7.5 7.5-7.5z"/><path d="m435 240c4.15 0 7.5 3.36 7.5 7.5s-3.35 7.5-7.5 7.5c-4.141 0-7.5-3.36-7.5-7.5s3.359-7.5 7.5-7.5z"/><path d="m425 415c4.15 0 7.5 3.36 7.5 7.5s-3.35 7.5-7.5 7.5c-4.141 0-7.5-3.36-7.5-7.5s3.359-7.5 7.5-7.5z"/><path d="m85 60c4.15 0 7.5 3.36 7.5 7.5s-3.35 7.5-7.5 7.5c-4.14 0-7.5-3.36-7.5-7.5s3.36-7.5 7.5-7.5z"/><path d="m80 435c4.15 0 7.5 3.36 7.5 7.5s-3.35 7.5-7.5 7.5c-4.14 0-7.5-3.36-7.5-7.5s3.36-7.5 7.5-7.5z"/><path d="m40 215c4.15 0 7.5 3.36 7.5 7.5s-3.35 7.5-7.5 7.5c-4.14 0-7.5-3.36-7.5-7.5s3.36-7.5 7.5-7.5z"/><path d="m295.488 495c-1.998 0-3.822-1.195-4.606-3.06l-45.78-108.72c-1.072-2.545.122-5.477 2.667-6.549 2.546-1.07 5.477.123 6.548 2.668l39.959 94.896 13.452-53.81c.382-1.526 1.46-2.784 2.911-3.395 1.447-.61 3.102-.503 4.462.291l47.89 27.983-45.019-106.934c-.259-.614-.392-1.274-.392-1.94 0-2.762 2.238-5.005 5-5.005 2.151 0 3.985 1.357 4.691 3.261l50.757 120.565c.835 1.984.308 4.279-1.31 5.698-1.618 1.421-3.963 1.645-5.82.56l-55.083-32.188-15.475 61.893c-.521 2.088-2.32 3.607-4.467 3.773-.129.008-.258.013-.385.013z"/><path d="m203.932 495c-.128 0-.256-.005-.386-.015-2.146-.165-3.945-1.685-4.467-3.773l-15.473-61.893-55.084 32.188c-1.857 1.085-4.202.862-5.82-.56-1.618-1.419-2.146-3.715-1.311-5.698l50.85-120.771c1.072-2.546 4.006-3.738 6.549-2.668 2.545 1.072 3.739 4.004 2.668 6.549l-45.029 106.944 47.888-27.982c1.358-.794 3.013-.901 4.462-.291 1.451.611 2.529 1.869 2.911 3.395l13.452 53.809 51.939-123.355c.22-.523.527-1.004.908-1.424 1.857-2.044 5.024-2.198 7.068-.342 1.674 1.522 2.08 3.918 1.15 5.857l-57.669 136.97c-.785 1.865-2.609 3.06-4.606 3.06z"/><path d="m249.71 299.18c-58.967 0-106.94-47.986-106.94-106.97 0-58.973 47.973-106.95 106.94-106.95 58.989 0 106.979 47.978 106.979 106.95 0 58.983-47.99 106.97-106.979 106.97zm0-203.92c-53.453 0-96.94 43.492-96.94 96.95 0 53.469 43.487 96.97 96.94 96.97 53.475 0 96.979-43.5 96.979-96.97 0-53.459-43.504-96.95-96.979-96.95z"/><path d="m187.514 242.52c-1.543 0-3.065-.712-4.044-2.054-10.271-14.082-15.7-30.769-15.7-48.256 0-2.761 2.239-5 5-5s5 2.239 5 5c0 15.355 4.765 30.004 13.779 42.364 1.627 2.231 1.138 5.359-1.093 6.986-.889.648-1.92.96-2.942.96z"/><path d="m326.689 197.21c-2.761 0-5-2.239-5-5 0-39.673-32.285-71.95-71.97-71.95-2.761 0-5-2.239-5-5s2.239-5 5-5c45.198 0 81.97 36.763 81.97 81.95 0 2.761-2.238 5-5 5z"/><path d="m281.67 242.79c-1.031 0-2.063-.318-2.938-.955l-27.532-19.995-27.531 19.996c-1.753 1.273-4.126 1.272-5.878 0-1.752-1.274-2.485-3.531-1.815-5.59l10.517-32.355-27.531-20.004c-1.752-1.273-2.486-3.53-1.816-5.59.669-2.06 2.589-3.455 4.755-3.455h34.027l10.517-32.365c.67-2.06 2.589-3.455 4.755-3.455s4.086 1.395 4.755 3.455l10.518 32.365h34.027c2.166 0 4.086 1.395 4.756 3.455.669 2.06-.064 4.317-1.816 5.59l-27.531 20.004 10.517 32.355c.67 2.06-.064 4.316-1.815 5.59-.879.636-1.91.954-2.941.954zm-30.47-32.13c1.031 0 2.062.318 2.938.954l18.021 13.087-6.883-21.177c-.67-2.06.063-4.317 1.815-5.59l18.022-13.095h-22.273c-2.166 0-4.086-1.395-4.756-3.454l-6.884-21.187-6.884 21.187c-.669 2.06-2.589 3.454-4.755 3.454h-22.273l18.022 13.095c1.752 1.273 2.486 3.53 1.816 5.59l-6.883 21.177 18.02-13.087c.875-.635 1.905-.954 2.937-.954z"/><path d="m249.71 359.41c-15.539 0-30.078-7.073-39.672-19.11-5.915 2.314-12.271 3.524-18.605 3.524-5.524 0-10.971-.898-16.189-2.67-3.162-1.068-6.234-2.461-9.128-4.137-13.476-7.784-22.532-21.181-24.803-36.394-15.233-2.286-28.636-11.342-36.411-24.803-7.767-13.447-8.9-29.582-3.258-43.933-12.06-9.566-19.144-24.106-19.144-39.677 0-15.548 7.085-30.091 19.143-39.682-5.65-14.354-4.515-30.482 3.26-43.913 7.789-13.486 21.192-22.542 36.409-24.806 2.271-15.229 11.328-28.633 24.808-36.418 7.675-4.443 16.412-6.792 25.261-6.792 6.351 0 12.724 1.215 18.655 3.539 9.587-12.055 24.127-19.138 39.674-19.138 15.581 0 30.126 7.082 39.689 19.134 5.927-2.322 12.295-3.536 18.645-3.536 8.849 0 17.593 2.349 25.286 6.792 13.461 7.774 22.517 21.18 24.804 36.418 15.212 2.264 28.604 11.321 36.388 24.813 7.778 13.438 8.926 29.566 3.291 43.909 12.036 9.594 19.107 24.136 19.107 39.679 0 15.565-7.07 30.104-19.104 39.674 5.636 14.341 4.487 30.479-3.297 43.939-7.764 13.459-21.159 22.515-36.387 24.801-2.296 15.229-11.351 28.627-24.801 36.397-2.932 1.69-6.009 3.085-9.151 4.146-5.215 1.764-10.66 2.658-16.18 2.659-6.34 0-12.695-1.21-18.604-3.522-6.705 8.427-15.942 14.522-26.404 17.344-4.291 1.169-8.763 1.763-13.282 1.763zm-38.013-30.301c1.622 0 3.2.791 4.156 2.217 7.589 11.324 20.246 18.084 33.857 18.084 3.631 0 7.22-.476 10.667-1.414 9.5-2.563 17.732-8.478 23.194-16.661 1.393-2.087 4.114-2.818 6.366-1.711 5.588 2.749 11.834 4.202 18.063 4.202 4.428-.001 8.795-.718 12.978-2.133 2.52-.852 4.994-1.973 7.354-3.334 11.779-6.805 19.361-18.994 20.279-32.605.168-2.498 2.158-4.486 4.656-4.653 13.605-.907 25.789-8.488 32.592-20.278 6.82-11.796 7.296-26.148 1.273-38.396-1.105-2.25-.375-4.972 1.711-6.364 11.318-7.559 18.076-20.213 18.076-33.852 0-13.617-6.76-26.278-18.084-33.867-2.079-1.394-2.808-4.111-1.703-6.358 6.018-12.25 5.543-26.59-1.27-38.36-6.822-11.826-19.002-19.407-32.586-20.285-2.504-.162-4.5-2.154-4.666-4.658-.907-13.622-8.489-25.821-20.281-32.632-6.176-3.566-13.19-5.452-20.286-5.452-6.237 0-12.498 1.458-18.106 4.218-2.252 1.107-4.978.375-6.369-1.714-7.55-11.336-20.207-18.103-33.858-18.103-13.617 0-26.273 6.77-33.854 18.109-1.393 2.084-4.113 2.814-6.363 1.708-5.613-2.76-11.876-4.219-18.113-4.219-7.092 0-14.097 1.884-20.255 5.449-11.816 6.825-19.398 19.021-20.286 32.628-.163 2.506-2.161 4.502-4.668 4.664-13.592.877-25.784 8.459-32.612 20.281-6.807 11.759-7.267 26.099-1.233 38.361 1.107 2.249.377 4.971-1.707 6.364-11.346 7.587-18.119 20.246-18.119 33.865 0 13.64 6.771 26.294 18.112 33.849 2.089 1.391 2.822 4.115 1.715 6.367-6.03 12.264-5.569 26.617 1.233 38.393 6.812 11.794 19.007 19.376 32.622 20.281 2.502.167 4.494 2.161 4.657 4.663.888 13.589 8.47 25.774 20.282 32.597 2.326 1.347 4.79 2.464 7.331 3.323 4.187 1.421 8.552 2.141 12.981 2.141 6.219 0 12.465-1.453 18.063-4.202.706-.347 1.458-.513 2.201-.513z"/><path d="m457.5 350c-16.542 0-30-13.458-30-30s13.458-30 30-30 30 13.458 30 30-13.458 30-30 30zm0-50c-11.027 0-20 8.972-20 20s8.973 20 20 20 20-8.972 20-20-8.973-20-20-20z"/><path d="m72.5 400c-19.299 0-35-15.701-35-35s15.701-35 35-35 35 15.701 35 35-15.701 35-35 35zm0-60c-13.785 0-25 11.215-25 25s11.215 25 25 25 25-11.215 25-25-11.215-25-25-25z"/></g></g></g></svg>