<svg xmlns="http://www.w3.org/2000/svg" xmlns:xlink="http://www.w3.org/1999/xlink" width="512" height="512" viewBox="0 0 512 512">
  <defs>
    <clipPath id="clip-COVID-19_Insurance_Takaful">
      <rect width="512" height="512"/>
    </clipPath>
  </defs>
  <g id="COVID-19_Insurance_Takaful" data-name="COVID-19 Insurance/Takaful" clip-path="url(#clip-COVID-19_Insurance_Takaful)">
    <g id="Group_133" data-name="Group 133">
      <g id="Group_132" data-name="Group 132">
        <g id="Group_131" data-name="Group 131">
          <g id="Group_130" data-name="Group 130">
            <g id="Group_129" data-name="Group 129">
              <circle id="Ellipse_57" data-name="Ellipse 57" cx="256" cy="256" r="256" fill="#a3d4ff"/>
            </g>
          </g>
        </g>
      </g>
    </g>
    <path id="Path_941" data-name="Path 941" d="M512,256q0-7.046-.376-14L358.586,88.963,347.07,106.7,271,30.634,132.155,144.324l-23.836,48.512,98.352,98.352L158.79,341.34l66.393,66.393-57.447,34.409L236.892,511.3q9.464.7,19.108.7C397.385,512,512,397.385,512,256Z" fill="#65b1fc"/>
    <g id="Group_134" data-name="Group 134">
      <path id="Path_942" data-name="Path 942" d="M241,30.634h30v271.71H241Z" fill="#fff"/>
    </g>
    <g id="Group_135" data-name="Group 135">
      <path id="Path_943" data-name="Path 943" d="M256,30.634h15v271.71H256Z" fill="#e9edf5"/>
    </g>
    <g id="Group_149" data-name="Group 149">
      <path id="Path_950" data-name="Path 950" d="M158.856,165.164a59.89,59.89,0,0,1,48.572,24.791c10.9-15.021,28.594-33.022,48.572-33.022s37.674,18,48.572,33.022a59.981,59.981,0,0,1,99.109,2.881,147.7,147.7,0,0,0-295.362,0,59.921,59.921,0,0,1,50.537-27.672Z" fill="#fe8205"/>
    </g>
    <g id="Group_150" data-name="Group 150">
      <path id="Path_951" data-name="Path 951" d="M256.042,47.511,256,156.934c19.961.025,37.682,18.01,48.572,33.021a59.981,59.981,0,0,1,99.109,2.881A147.7,147.7,0,0,0,256.042,47.511Z" fill="#fa5d0f"/>
    </g>
    <g id="Group_151" data-name="Group 151">
      <path id="Path_952" data-name="Path 952" d="M256,165.164a60.076,60.076,0,0,1,48.572,24.791C303.648,110.856,282.222,47.51,256,47.51s-47.648,63.346-48.572,142.445A60.076,60.076,0,0,1,256,165.164Z" fill="#fe6a16"/>
    </g>
    <g id="Group_152" data-name="Group 152">
      <path id="Path_953" data-name="Path 953" d="M304.572,189.955C303.649,110.9,282.2,47.58,256,47.512V165.165a60.158,60.158,0,0,1,48.572,24.79Z" fill="#f24500"/>
    </g>
    <path id="Path_955" data-name="Path 955" d="M270.578,141.332a28.237,28.237,0,0,0-28.154-28.154H220.836a39.113,39.113,0,1,0-34.933,0H164.315a28.237,28.237,0,0,0-28.154,28.154v61.981H157.1V160.3a5.579,5.579,0,1,1,11.158,0v141.96h26.3V231.62a8.812,8.812,0,1,1,17.624,0V302.26h26.3V160.3a5.579,5.579,0,1,1,11.158,0v43.012h20.939V141.332Z" transform="translate(28.029 150.884)" fill="#ffdc00"/>
    <path id="Path_956" data-name="Path 956" d="M310.129,141.331v61.981H289.194V160.3a5.58,5.58,0,0,0-11.159,0v141.96h-26.3V231.622a8.815,8.815,0,0,0-8.812-8.812V39.073a39.108,39.108,0,0,1,17.461,74.1h21.588A28.238,28.238,0,0,1,310.129,141.331Z" transform="translate(-11.524 150.883)" fill="#ffdc00"/>
    <path id="Path_957" data-name="Path 957" d="M315.768,193.4l-47.433,20.3v47.28c0,13.308,2.15,30.363,47.433,53.128,45.282-22.764,47.433-39.819,47.433-53.128V213.7Z" transform="translate(-20.938 93.708)" fill="#00efd1"/>
    <path id="Path_958" data-name="Path 958" d="M391.114,213.7v47.28c0,13.31-2.15,30.365-47.433,53.129V193.4Z" transform="translate(-48.851 93.708)" fill="#00ad95"/>
    <path id="Path_959" data-name="Path 959" d="M321.045,299.886l-23.5-23.093,9.146-9.307,14.344,14.1,25.439-25.044,9.155,9.3Z" transform="translate(-31.759 70.319)" fill="#4b5be5"/>
    <path id="Path_960" data-name="Path 960" d="M372.72,265.837l-29.04,28.591V276.116l19.886-19.576Z" transform="translate(-48.851 70.318)" fill="#1c2ede"/>
    <path id="Path_961" data-name="Path 961" d="M312.5,316.765l-2.491-1.252c-21.1-10.609-35.082-21.033-42.736-31.865-6.813-9.643-7.752-18.3-7.752-26.218V206.492L312.5,183.823l52.978,22.669V257.43c0,7.918-.939,16.575-7.751,26.218-7.653,10.832-21.632,21.255-42.736,31.865ZM270.617,213.81v43.62c0,10.1,0,25.271,41.887,46.9,41.891-21.633,41.887-36.8,41.887-46.9V213.81L312.5,195.887Z" transform="translate(-17.673 97.258)" fill="#fff"/>
    <path id="Path_962" data-name="Path 962" d="M343.681,183.823v12.064l41.887,17.923v43.619c0,10.1,0,25.272-41.887,46.9v12.433l2.492-1.253c21.1-10.609,35.082-21.032,42.736-31.866,6.812-9.643,7.751-18.3,7.751-26.219V206.492Z" transform="translate(-48.851 97.258)" fill="#ffec97"/>
  </g>
</svg>
