<?xml version="1.0" encoding="utf-8"?>
<!-- Generator: Adobe Illustrator 23.0.2, SVG Export Plug-In . SVG Version: 6.00 Build 0)  -->
<svg version="1.1" id="Layer_1" xmlns="http://www.w3.org/2000/svg" xmlns:xlink="http://www.w3.org/1999/xlink" x="0px" y="0px"
	 viewBox="0 0 400.6 272" style="enable-background:new 0 0 400.6 272;" xml:space="preserve">
<style type="text/css">
	.st0{display:none;fill:#FBFCF2;}
	.st1{opacity:0.15;}
	.st2{fill:#3F5A7C;}
	.st3{fill:#FFFFFF;}
	.st4{fill:#324A5E;stroke:#324A5E;stroke-width:3;stroke-miterlimit:10;}
	.st5{opacity:0.5;}
	.st6{fill:#F5A623;}
	.st7{fill:#F22B43;}
	.st8{opacity:0.2;}
	.st9{fill:#3A83FF;}
	.st10{fill:#40C956;}
</style>
<title></title>
<g>
	<g id="Layer_1-2">
		<path class="st0" d="M184.9,43.9c-20.5-0.3-39.8-8.3-57.6-16.9C103.6,15.6,79.1,2,50.8,2.7C37.6,3.1,24.2,7,14.9,14.9
			C4.5,23.6,0,36.4,0,48.8c-0.1,28.9,20.7,53.8,24.1,82.2c3,24.6-8.8,49.4-2.5,73.8c9.4,36.2,48.8,55.9,88.7,63
			c33,5.9,77.6,8.8,103.4-13.4c13.1-11.3,23.6-28.7,42.2-28.8c14.6-0.1,25.5,10.9,38.2,17.1c21.8,10.6,51.1,5.8,69.9-8.4
			c29.6-22.5,26.8-53.8,23.4-84.9c-1.9-18-0.6-36.1,3.8-53.7c4.3-17.5,13.6-34.5,7.4-52.6c-10.4-30.3-57.8-43.6-91-43
			C282.4,0.5,258,7.3,236,17.5c-20.9,9.7-40,21.5-65.1,21"/>
		<g class="st1">
			<path class="st2" d="M52.6,40.9h273c6.6,0,12,5.4,12,12v174c0,6.6-5.4,12-12,12h-273c-6.6,0-12-5.4-12-12v-174
				C40.6,46.3,46,40.9,52.6,40.9z"/>
		</g>
		<path class="st3" d="M64.6,29.9h273c6.6,0,12,5.4,12,12v174c0,6.6-5.4,12-12,12h-273c-6.6,0-12-5.4-12-12v-174
			C52.6,35.3,58,29.9,64.6,29.9z"/>
		<path class="st4" d="M55.6,139.9v-72c0-8.6-0.6-17.4,0-26c0.5-7.6,6.6-9,12.7-9h58.6c3.9,0,3.9-6,0-6H70c-5.1,0-9.9-0.2-14.3,3
			c-8.5,6.3-6.1,19.6-6.1,28.9v81.1C49.6,143.8,55.6,143.8,55.6,139.9L55.6,139.9z"/>
		<path class="st4" d="M55.6,158.9v-8c0-3.9-6-3.9-6,0v8C49.6,162.8,55.6,162.8,55.6,158.9z"/>
		<path class="st4" d="M265,224.9H67c-1.1,0-2.1,0-3.2-0.1c-7.2-0.9-8.1-7.1-8.1-12.9v-29.6c0-3.9-6-3.9-6,0v27
			c0,3.6-0.4,7.7,0.7,11.2c2.1,6.1,7.8,10.3,14.3,10.4c10.1,0.4,20.3,0,30.4,0h170C268.9,230.8,268.9,224.8,265,224.9L265,224.9z"/>
		<path class="st4" d="M158.9,32.9h165.2c5.6,0,15.4-1.7,19.8,2.7c3.1,3.1,2.7,7.2,2.7,11.2v165.8c0,6-1.6,11.9-9,12.4
			c-14.8,1-30.1,0-44.9,0h-5.1c-3.9,0-3.9,6,0,6H334c8.6,0,17-3.2,18.4-12.9c0.3-2.8,0.3-5.6,0.2-8.5V53.4c0-3.6,0.1-7.2,0-10.9
			c-0.2-8.7-6.2-15.3-15-15.7c-24.3-1-48.9,0-73.3,0H158.9C155.1,26.9,155.1,32.9,158.9,32.9z"/>
		<g class="st5">
			<path class="st6" d="M277.8,102h5.5c2,0,3.6,3.7,3.6,8.2v83.5c0,4.5-1.6,8.2-3.6,8.2h-5.5c-2,0-3.6-3.7-3.6-8.2v-83.5
				C274.2,105.6,275.8,102,277.8,102z"/>
			<path class="st7" d="M306.7,121.1h5.5c2,0,3.6,2.2,3.6,4.8V197c0,2.7-1.6,4.8-3.6,4.8h-5.5c-2,0-3.6-2.2-3.6-4.8v-71.1
				C303.1,123.3,304.7,121.1,306.7,121.1z"/>
		</g>
		<g class="st8">
			<path class="st2" d="M96.2,148.5h78.4c5.4,0,5.4-5.7,0-5.7H96.2C90.8,142.8,90.8,148.5,96.2,148.5z"/>
		</g>
		<g class="st8">
			<path class="st2" d="M96.2,166.3h61.6c5.4,0,5.4-5.7,0-5.7H96.2C90.8,160.6,90.8,166.3,96.2,166.3z"/>
		</g>
		<g class="st8">
			<path class="st2" d="M96.2,184.1h46.7c5.4,0,5.4-5.7,0-5.7H96.2C90.8,178.4,90.8,184.1,96.2,184.1z"/>
		</g>
		<g class="st5">
			<path class="st9" d="M222.1,87.7h5.5c2,0,3.6,3.1,3.6,6.8v100.6c0,3.8-1.6,6.8-3.6,6.8h-5.5c-2,0-3.6-3.1-3.6-6.8V94.5
				C218.4,90.7,220.1,87.7,222.1,87.7z"/>
			<path class="st10" d="M251,60.6h5.5c2,0,3.6,3.1,3.6,6.8V195c0,3.8-1.6,6.8-3.6,6.8H251c-2,0-3.6-3.1-3.6-6.8V67.4
				C247.4,63.7,249,60.6,251,60.6z"/>
		</g>
		<g class="st8">
			<path class="st2" d="M96.2,113.5h78.4c5.4,0,5.4-5.7,0-5.7H96.2C90.8,107.8,90.8,113.5,96.2,113.5z"/>
		</g>
		<g class="st8">
			<path class="st2" d="M96.2,131.3h61.6c5.4,0,5.4-5.7,0-5.7H96.2C90.8,125.6,90.8,131.3,96.2,131.3z"/>
		</g>
		<g>
			<path class="st2" d="M96.2,82.6h78.4c5.4,0,5.4-9.7,0-9.7H96.2C90.8,72.9,90.8,82.6,96.2,82.6z"/>
		</g>
	</g>
</g>
</svg>
