<svg xmlns="http://www.w3.org/2000/svg" xmlns:xlink="http://www.w3.org/1999/xlink" width="100" height="100" viewBox="0 0 100 100">
  <defs>
    <clipPath id="clip-Artboard_1">
      <rect width="100" height="100"/>
    </clipPath>
  </defs>
  <g id="Artboard_1" data-name="Artboard – 1" clip-path="url(#clip-Artboard_1)">
    <g id="alert" transform="translate(2 -20.059)">
      <path id="Path_33" data-name="Path 33" d="M94.2,108.61a8.667,8.667,0,0,1-7.584,4.379H8.772A8.758,8.758,0,0,1,1.188,99.852l38.92-67.414a8.758,8.758,0,0,1,15.169,0L94.2,99.852A8.667,8.667,0,0,1,94.2,108.61Z" fill="#3390d3"/>
      <g id="Group_13" data-name="Group 13" transform="translate(39.846 48.441)">
        <path id="Path_35" data-name="Path 35" d="M229.573,145.312V165.7a7.847,7.847,0,1,1-15.694,0V145.312a7.847,7.847,0,0,1,15.694,0Z" transform="translate(-213.879 -137.465)" fill="#fff"/>
        <path id="Path_36" data-name="Path 36" d="M229.573,351.988a7.847,7.847,0,1,1-7.847-7.847A7.856,7.856,0,0,1,229.573,351.988Z" transform="translate(-213.879 -305.638)" fill="#fff"/>
      </g>
      <g id="Group_14" data-name="Group 14" transform="translate(47.693 48.441)">
        <path id="Path_37" data-name="Path 37" d="M263.847,351.988A7.856,7.856,0,0,1,256,359.835V344.141A7.856,7.856,0,0,1,263.847,351.988Z" transform="translate(-256 -305.638)" fill="#fff"/>
        <path id="Path_38" data-name="Path 38" d="M263.847,145.312V165.7A7.857,7.857,0,0,1,256,173.549V137.465A7.856,7.856,0,0,1,263.847,145.312Z" transform="translate(-256 -137.465)" fill="#fff"/>
      </g>
    </g>
  </g>
</svg>
