<svg xmlns="http://www.w3.org/2000/svg" width="61" height="61" viewBox="0 0 61 61">
  <g id="Group_49" data-name="Group 49" transform="translate(-157 -46)">
    <g id="Ellipse_1" data-name="Ellipse 1" transform="translate(157 46)" fill="#39f" stroke="#fff" stroke-width="5">
      <circle cx="30.5" cy="30.5" r="30.5" stroke="none"/>
      <circle cx="30.5" cy="30.5" r="28" fill="none"/>
    </g>
    <path id="correct_1_" data-name="correct (1)" d="M11.485,23.247a1.531,1.531,0,0,1-2.165,0L.673,14.6a2.3,2.3,0,0,1,0-3.248l1.083-1.083a2.3,2.3,0,0,1,3.248,0l5.4,5.4L24.989,1.079a2.3,2.3,0,0,1,3.248,0L29.32,2.162a2.3,2.3,0,0,1,0,3.248Zm0,0" transform="translate(173 64.594)" fill="#fff"/>
  </g>
</svg>
