<?xml version="1.0"?>
<svg xmlns="http://www.w3.org/2000/svg" id="Layer_1" enable-background="new 0 0 512 512" height="512px" viewBox="0 0 512 512" width="512px" class=""><g><link xmlns="" type="text/css" rel="stylesheet" id="dark-mode-general-link"/><link xmlns="" type="text/css" rel="stylesheet" id="dark-mode-custom-link"/><style xmlns="" type="text/css" id="dark-mode-custom-style"/><path d="m421.096 241.531c-46.06 0-83.402-37.5-83.402-83.76 0-11.503 2.313-22.463 6.491-32.44h-330.721c-3.28 0-5.964 2.697-5.964 5.99v300.677c0 3.295 2.684 5.99 5.964 5.99h456.854c3.28 0 5.964-2.695 5.964-5.99v-211.449c-14.706 13.049-34.018 20.982-55.186 20.982z" fill="#c4d2dc" data-original="#C4D2DC" class="active-path" data-old_color="#c4d2dc" style="fill:#FFFFFF"/><path d="m421.096 241.531c-46.06 0-83.402-37.5-83.402-83.76 0-.836.038-1.662.063-2.492h-294.472c-3.28 0-5.964 2.695-5.964 5.99v240.78c0 3.295 2.684 5.99 5.964 5.99h397.212c3.281 0 5.964-2.695 5.964-5.99v-164.475c-8 2.563-16.519 3.957-25.365 3.957z" fill="#c7eefd" data-original="#C7EEFD" class="" style="fill:#FFFFFF" data-old_color="#c7eefd"/><path d="m388.803 295.748c-1.888-2.693-4.977-2.693-6.864 0l-49.173 70.182 29.504 42.11h78.227c3.281 0 5.964-2.695 5.964-5.99v-24.009z" fill="#00c184" data-original="#00C184" class="" data-old_color="#00c184" style="fill:#3A83FF"/><path d="m348.536 388.436 52.605-75.08-12.337-17.608c-1.888-2.693-4.977-2.693-6.864 0l-49.173 70.182z" fill="#07b17b" data-original="#07B17B" class="" data-old_color="#07b17b" style="fill:#FFFFFF"/><path d="m68.86 161.27c0-3.295 2.684-5.99 5.964-5.99h-31.539c-3.28 0-5.964 2.695-5.964 5.99v217.941l31.539-45.014z" fill="#98e5fb" data-original="#98E5FB" class="" data-old_color="#98e5fb" style="fill:#3A83FF"/><path d="m245.952 242.023c-1.888-2.693-4.977-2.693-6.865 0l-87.033 124.218 29.286 41.799h180.93z" fill="#98e5fb" data-original="#98E5FB" class="" data-old_color="#98e5fb" style="fill:#3A83FF"/><path d="m167.67 388.529 90.465-129.117-12.184-17.389c-1.888-2.693-4.977-2.693-6.865 0l-87.033 124.218z" fill="#01cffa" data-original="#01CFFA" class="" data-old_color="#01cffa" style="fill:#FFFFFF"/><path d="m102.664 295.748c-1.888-2.693-4.978-2.693-6.865 0l-58.477 83.463v22.839c0 3.295 2.684 5.99 5.964 5.99h138.054z" fill="#00c184" data-original="#00C184" class="" data-old_color="#00c184" style="fill:#3A83FF"/><path d="m68.981 402.05v-22.839l46.08-65.768-12.397-17.694c-1.888-2.693-4.978-2.693-6.865 0l-58.477 83.463v22.839c0 3.295 2.684 5.99 5.964 5.99h31.66c-3.281-.001-5.965-2.696-5.965-5.991z" fill="#07b17b" data-original="#07B17B" class="" data-old_color="#07b17b" style="fill:#FFFFFF"/><ellipse cx="111.898" cy="224.186" fill="#fde35a" rx="31.635" ry="31.77" data-original="#FDE35A" class="" data-old_color="#fde35a" style="fill:#FFFFFF"/><path d="m103.729 224.186c0-13.381 8.242-24.822 19.902-29.504-3.629-1.458-7.586-2.268-11.733-2.268-17.471 0-31.635 14.226-31.635 31.771s14.164 31.77 31.635 31.77c4.147 0 8.104-.81 11.733-2.268-11.66-4.68-19.902-16.122-19.902-29.501z" fill="#f9c500" data-original="#F9C500" class="" data-old_color="#f9c500" style="fill:#FFFFFF"/><ellipse cx="421.097" cy="157.771" fill="#0592fb" rx="83.403" ry="83.76" data-original="#0592FB" class="" data-old_color="#0592fb" style="fill:#FFFFFF"/><path d="m369 157.771c0-40.883 29.174-74.905 67.749-82.266-5.073-.967-10.301-1.494-15.654-1.494-46.06 0-83.402 37.502-83.402 83.76 0 46.26 37.342 83.76 83.402 83.76 5.353 0 10.581-.527 15.654-1.494-38.575-7.36-67.749-41.382-67.749-82.266z" fill="#0181fb" data-original="#0181FB" class="" data-old_color="#0181fb" style="fill:#FFFFFF"/><path d="m411.596 209.771c-2.209 0-4-1.791-4-4v-53.816h-18.816c-1.577 0-3.007-.928-3.651-2.367-.643-1.438-.383-3.121.668-4.299l32.315-36.178c.759-.85 1.844-1.336 2.983-1.336 1.14 0 2.225.486 2.983 1.336l32.315 36.178c1.051 1.178 1.312 2.861.668 4.299-.644 1.439-2.074 2.367-3.651 2.367h-18.815v53.816c0 2.209-1.791 4-4 4z" fill="#fff" data-original="#FFF" class="" data-old_color="#fff" style="fill:#FFFFFF"/><path d="m72.763 224.186c0 21.653 17.556 39.27 39.135 39.27s39.135-17.616 39.135-39.27-17.556-39.271-39.135-39.271c-21.579-.001-39.135 17.616-39.135 39.271zm39.135-24.272c13.308 0 24.135 10.888 24.135 24.271 0 13.382-10.827 24.27-24.135 24.27s-24.135-10.888-24.135-24.27c0-13.383 10.827-24.271 24.135-24.271z" data-original="#000000" class=""/><path d="m487.944 95.93c-2.803-3.05-7.546-3.253-10.597-.45-3.051 2.802-3.253 7.546-.451 10.597 12.964 14.114 20.104 32.474 20.104 51.694 0 42.05-34.05 76.26-75.904 76.26-41.852 0-75.902-34.21-75.902-76.26s34.05-76.26 75.902-76.26c10.399 0 20.47 2.071 29.935 6.157 3.803 1.64 8.217-.109 9.858-3.913 1.642-3.803-.11-8.217-3.913-9.858-11.353-4.9-23.424-7.386-35.88-7.386-35.864 0-66.94 20.961-81.721 51.319h-325.911c-7.424.001-13.464 6.053-13.464 13.491v300.677c0 7.439 6.04 13.49 13.464 13.49h456.854c7.424 0 13.464-6.052 13.464-13.49v-104.998c0-4.143-3.358-7.5-7.5-7.5s-7.5 3.357-7.5 7.5v103.488h-453.782v-297.657h318.644c-1.369 4.832-2.345 9.828-2.903 14.948h-208.741c-4.142 0-7.5 3.357-7.5 7.5s3.358 7.5 7.5 7.5h208.332c2.599 48.001 42.314 86.252 90.764 86.252 6.114 0 12.087-.613 17.866-1.774v107.009l-44.017-62.822c-2.323-3.314-5.813-5.216-9.575-5.216-3.761.001-7.251 1.902-9.574 5.217l-43.03 61.415-80.673-115.141c-2.323-3.314-5.813-5.215-9.574-5.215-3.762 0-7.251 1.9-9.575 5.216l-80.89 115.451-43.249-61.728c-2.323-3.314-5.813-5.215-9.575-5.215-3.761.001-7.25 1.901-9.574 5.217l-44.835 63.991v-192.657h42.178c4.142 0 7.5-3.357 7.5-7.5s-3.358-7.5-7.5-7.5h-43.714c-7.424 0-13.464 6.052-13.464 13.49v240.78c0 7.439 6.04 13.49 13.464 13.49h397.212c7.424 0 13.464-6.052 13.464-13.49v-159.192c5.188-2.027 10.144-4.52 14.821-7.424v55.567c0 4.143 3.358 7.5 7.5 7.5s7.5-3.357 7.5-7.5v-67.197c17.376-16.631 28.218-40.084 28.218-66.032 0-22.989-8.543-44.951-24.056-61.841zm-443.123 304.61v-18.963l54.41-77.658 67.696 96.621zm140.423 0-24.031-34.299 81.307-116.046 105.338 150.345zm253.717 0h-72.788l-24.25-34.61 43.447-62.01 53.59 76.487v20.133z" data-original="#000000" class=""/><path d="m421.096 100.275c-3.271 0-6.397 1.399-8.577 3.84l-32.318 36.181c-3.013 3.377-3.766 8.228-1.917 12.357 1.851 4.132 5.97 6.802 10.497 6.802h11.315v46.316c0 6.341 5.159 11.5 11.5 11.5h19c6.341 0 11.5-5.159 11.5-11.5v-46.316h11.315c4.526 0 8.647-2.67 10.497-6.803 1.849-4.129 1.096-8.979-1.92-12.359l-32.315-36.178c-2.179-2.44-5.306-3.84-8.577-3.84zm13.5 44.18c-4.142 0-7.5 3.357-7.5 7.5v50.316h-12v-50.316c0-4.143-3.358-7.5-7.5-7.5h-10.998l24.498-27.426 24.498 27.426z" data-original="#000000" class=""/></g> </svg>
