<?xml version="1.0" encoding="utf-8"?>
<!-- Generator: Adobe Illustrator 23.0.2, SVG Export Plug-In . SVG Version: 6.00 Build 0)  -->
<svg version="1.1" id="Layer_1" xmlns="http://www.w3.org/2000/svg" xmlns:xlink="http://www.w3.org/1999/xlink" x="0px" y="0px"
	 viewBox="0 0 18 18" style="enable-background:new 0 0 18 18;" xml:space="preserve">
<style type="text/css">
	.st0{fill:#3A83FF;}
</style>
<path class="st0" d="M9,6.1C7.4,6.1,6.1,7.4,6.1,9s1.3,2.9,2.9,2.9s2.9-1.3,2.9-2.9S10.6,6.1,9,6.1z M16,8.3C15.7,5,13,2.4,9.8,2
	V0.8H8.3V2C5,2.4,2.4,5,2,8.3H0.8v1.6H2c0.4,3.3,3,5.9,6.3,6.3v1.2h1.6v-1.2c3.3-0.4,5.9-3,6.3-6.3h1.2V8.3H16z M9,14.5
	c-3,0-5.5-2.4-5.5-5.5c0-3,2.4-5.5,5.5-5.5c3,0,5.5,2.4,5.5,5.5S12,14.5,9,14.5z"/>
</svg>
