<?xml version="1.0" encoding="utf-8"?>
<!-- Generator: Adobe Illustrator 23.0.6, SVG Export Plug-In . SVG Version: 6.00 Build 0)  -->
<svg version="1.1" id="Layer_1" xmlns="http://www.w3.org/2000/svg" xmlns:xlink="http://www.w3.org/1999/xlink" x="0px" y="0px"
	 viewBox="0 0 18 18" style="enable-background:new 0 0 18 18;" xml:space="preserve">
<style type="text/css">
	.st0{fill:#3A83FF;}
</style>
<g>
	<g>
		<g>
			<path class="st0" d="M6.2,3.1C6.2,3.2,6.2,3.3,6.2,3.4s0,0.2,0.1,0.3c0,0.1,0.1,0.1,0.3,0.2v-1C6.4,3,6.3,3.1,6.2,3.1z"/>
			<path class="st0" d="M7.2,5.5c0.1-0.1,0.1-0.2,0.1-0.3c0-0.1,0-0.2-0.1-0.3C7.1,4.8,7,4.7,6.8,4.7v1C7,5.7,7.1,5.7,7.2,5.5z"/>
			<path class="st0" d="M0.6,5.7C1,6.2,1.8,6.6,2.7,6.9l0,0c0,0,0.1,0,0.1,0c0,0,0.1,0,0.1,0c0,0,0.1,0,0.1,0c0.1,0,0.3,0.1,0.5,0.1
				l0,0C3.7,7.2,4,7.2,4.4,7.3l0,0c0.1,0,0.2,0,0.3,0c0.2,0,0.4,0,0.6,0.1h0c0.1,0,0.2,0,0.3,0c0,0,0,0,0,0c0.1,0,0.2,0,0.3,0
				c0,0,0,0,0.1,0c0.1,0,0.1,0,0.2,0c0,0,0,0,0.1,0c0.1,0,0.2,0,0.3,0s0.2,0,0.3,0c0,0,0,0,0.1,0c0.1,0,0.1,0,0.2,0c0,0,0,0,0.1,0
				c0.1,0,0.2,0,0.3,0c0,0,0,0,0,0c0.1,0,0.2,0,0.3,0h0C8.8,7.4,9.6,7.2,10.2,7c0,0,0,0,0.1,0c0,0,0.1,0,0.1,0c0,0,0.1,0,0.1,0
				s0,0,0.1,0c0.9-0.3,1.6-0.7,2-1.2l0,0c0.3-0.3,0.5-0.7,0.5-1.2c0-1.7-3.1-3.1-6.6-3.1C3.1,1.4,0,2.8,0,4.5C0,4.9,0.2,5.3,0.6,5.7
				C0.5,5.6,0.5,5.7,0.6,5.7z M5.7,4.2C5.6,4,5.5,3.7,5.5,3.4s0.1-0.5,0.3-0.7s0.4-0.3,0.7-0.3V2.1h0.4v0.3c0.3,0,0.5,0.1,0.6,0.3
				C7.6,2.8,7.8,3,7.8,3.3L7.1,3.3C7.1,3.1,7,3,6.8,2.9v1c0.4,0.1,0.7,0.3,0.9,0.4C7.9,4.6,8,4.8,8,5.1c0,0.3-0.1,0.6-0.3,0.8
				S7.2,6.2,6.8,6.3v0.5H6.5V6.3C6.2,6.3,5.9,6.2,5.7,6C5.5,5.8,5.4,5.5,5.4,5.1l0.7-0.1c0,0.1,0.1,0.3,0.1,0.3
				c0.1,0.1,0.1,0.2,0.3,0.2V4.5C6.1,4.5,5.9,4.4,5.7,4.2z"/>
		</g>
	</g>
	<g>
		<path class="st0" d="M7,10.5c0.1,0,0.1,0,0.2,0c0,0,0,0,0.1,0c0.1,0,0.2,0,0.3,0c0,0,0,0,0,0c0.1,0,0.2,0,0.3,0h0
			c0.1,0,0.3,0,0.4-0.1C8.6,9.5,9.1,8.6,9.8,8c-0.1,0-0.1,0-0.2,0c-0.1,0-0.1,0-0.2,0c0,0-0.1,0-0.1,0c-0.1,0-0.2,0-0.3,0.1
			c0,0,0,0-0.1,0c-0.1,0-0.1,0-0.2,0c0,0-0.1,0-0.1,0c-0.1,0-0.2,0-0.3,0c0,0-0.1,0-0.1,0c0,0-0.1,0-0.1,0c-0.1,0-0.2,0-0.3,0
			c0,0-0.1,0-0.1,0c-0.1,0-0.1,0-0.2,0c0,0-0.1,0-0.1,0c-0.1,0-0.2,0-0.3,0c0,0,0,0-0.1,0c-0.1,0-0.2,0-0.3,0c-0.1,0-0.2,0-0.3,0
			c0,0,0,0-0.1,0c-0.1,0-0.2,0-0.3,0c0,0-0.1,0-0.1,0c-0.1,0-0.1,0-0.2,0c0,0-0.1,0-0.1,0c-0.1,0-0.2,0-0.3,0c0,0-0.1,0-0.1,0
			S5,8.3,5,8.3c-0.1,0-0.2,0-0.3,0c0,0-0.1,0-0.1,0c-0.1,0-0.1,0-0.2,0h0c-0.1,0-0.3,0-0.4-0.1c0,0,0,0-0.1,0c-0.1,0-0.2,0-0.3-0.1
			c0,0-0.1,0-0.1,0c0,0-0.1,0-0.1,0c0,0-0.1,0-0.1,0c0,0-0.1,0-0.1,0c-0.1,0-0.1,0-0.2-0.1c0,0,0,0-0.1,0c-1-0.3-1.8-0.7-2.4-1.2
			C0.1,6.9,0,7.2,0,7.5c0,0.4,0.2,0.8,0.5,1.2h0C1,9.2,1.7,9.6,2.6,9.9h0c0,0,0.1,0,0.1,0c0,0,0.1,0,0.1,0c0,0,0,0,0.1,0
			c0.1,0,0.3,0.1,0.5,0.1c0.3,0.1,0.6,0.1,0.9,0.2c0.3,0,0.6,0.1,0.9,0.1h0c0.1,0,0.2,0,0.3,0c0,0,0,0,0,0c0.1,0,0.2,0,0.3,0
			c0,0,0,0,0.1,0c0.1,0,0.1,0,0.2,0c0,0,0,0,0.1,0c0.1,0,0.2,0,0.3,0S6.8,10.4,7,10.5C7,10.5,7,10.5,7,10.5z"/>
	</g>
	<g>
		<g>
			<path class="st0" d="M6.8,11.4c-0.1,0-0.3,0-0.4,0c0,0,0,0-0.1,0c-0.1,0-0.2,0-0.3,0c0,0-0.1,0-0.1,0c-0.1,0-0.1,0-0.2,0
				c0,0-0.1,0-0.1,0c-0.1,0-0.2,0-0.3,0c0,0-0.1,0-0.1,0c0,0-0.1,0-0.1,0c-0.1,0-0.2,0-0.3,0c0,0-0.1,0-0.1,0c-0.1,0-0.1,0-0.2,0h0
				c-0.1,0-0.2,0-0.3-0.1c0,0-0.1,0-0.1,0c-0.1,0-0.1,0-0.2,0c0,0-0.1,0-0.1,0c0,0-0.1,0-0.1,0c0,0-0.1,0-0.1,0c0,0-0.1,0-0.1,0
				c-0.1,0-0.2,0-0.3-0.1c0,0-0.1,0-0.1,0c-1-0.3-1.8-0.7-2.4-1.2C0.1,10,0,10.2,0,10.5c0,0.4,0.2,0.8,0.5,1.2l0,0
				c0.4,0.5,1.2,0.9,2.1,1.2c0,0,0.1,0,0.1,0c0,0,0.1,0,0.1,0c0,0,0.1,0,0.1,0c0.1,0,0.3,0.1,0.5,0.1c0,0,0,0,0,0
				c0.1,0,0.2,0,0.3,0.1c0.2,0,0.4,0.1,0.6,0.1c0.1,0,0.2,0,0.3,0c0.2,0,0.4,0,0.6,0.1h0c0.1,0,0.2,0,0.3,0h0c0.1,0,0.2,0,0.3,0
				c0,0,0,0,0.1,0c0.1,0,0.1,0,0.2,0c0,0,0,0,0.1,0c0.1,0,0.2,0,0.3,0s0.2,0,0.3,0c0,0,0,0,0.1,0c0.1,0,0.1,0,0.2,0c0,0,0,0,0.1,0
				c0.1,0,0.2,0,0.3,0c0,0,0,0,0,0c0.1,0,0.2,0,0.3,0h0c0.3,0,0.5,0,0.7-0.1L6.8,11.4z"/>
		</g>
	</g>
	<g>
		<path class="st0" d="M9.2,14.3c0,0-0.1,0-0.2,0c-0.1,0-0.1,0-0.2,0c0,0-0.1,0-0.1,0c-0.1,0-0.2,0-0.3,0c0,0-0.1,0-0.1,0
			c0,0-0.1,0-0.1,0c-0.1,0-0.2,0-0.3,0c0,0-0.1,0-0.1,0c-0.1,0-0.1,0-0.2,0c0,0-0.1,0-0.1,0c-0.1,0-0.2,0-0.3,0c0,0,0,0-0.1,0
			c-0.1,0-0.2,0-0.3,0s-0.2,0-0.3,0c0,0,0,0-0.1,0c-0.1,0-0.2,0-0.3,0c0,0-0.1,0-0.1,0c-0.1,0-0.1,0-0.2,0c0,0-0.1,0-0.1,0
			c-0.1,0-0.2,0-0.3,0c0,0-0.1,0-0.1,0s-0.1,0-0.1,0c-0.1,0-0.2,0-0.3,0c0,0-0.1,0-0.1,0c-0.1,0-0.1,0-0.2,0h0c-0.1,0-0.3,0-0.4-0.1
			c0,0,0,0-0.1,0c-0.1,0-0.2,0-0.3-0.1c0,0-0.1,0-0.1,0c0,0-0.1,0-0.1,0s-0.1,0-0.1,0c0,0-0.1,0-0.1,0C3.1,14,3.1,14,3,14
			c0,0,0,0-0.1,0c-1-0.3-1.8-0.7-2.4-1.2c-0.3,0.3-0.3,0.6-0.3,0.8c0,1.7,3.1,3.1,6.6,3.1c1.8,0,3.5-0.3,4.7-0.9
			c-0.7-0.2-1.3-0.6-1.7-1.1L9.2,14.3z"/>
	</g>
	<g>
		<path class="st0" d="M13.8,7.2c-2.3,0-4.2,1.9-4.2,4.2H8.1l1.8,1.8l0,0.1l1.9-1.9h-1.4c0-1.8,1.5-3.3,3.3-3.3s3.3,1.5,3.3,3.3
			s-1.5,3.3-3.3,3.3c-0.9,0-1.7-0.4-2.3-1l-0.7,0.7c0.7,0.7,1.8,1.2,3,1.2c2.3,0,4.2-1.9,4.2-4.2S16.1,7.2,13.8,7.2z M13.3,9.5v2.3
			l2,1.2l0.3-0.6l-1.7-1v-2C14,9.5,13.3,9.5,13.3,9.5z"/>
	</g>
</g>
</svg>
