<?xml version="1.0" encoding="utf-8"?>
<!-- Generator: Adobe Illustrator 23.0.6, SVG Export Plug-In . SVG Version: 6.00 Build 0)  -->
<svg version="1.1" id="Layer_1" xmlns="http://www.w3.org/2000/svg" xmlns:xlink="http://www.w3.org/1999/xlink" x="0px" y="0px"
	 viewBox="0 0 1000 1000" style="enable-background:new 0 0 1000 1000;" xml:space="preserve">
<style type="text/css">
	.st0{display:none;}
	.st1{display:inline;fill:#3A83FF;}
	.st2{fill:#40C956;}
</style>
<g class="st0">
	<path class="st1" d="M874.7,254.7H736.3v40.8h138.4c31.8,0,74.5,42.7,74.5,74.5v446.3c0,31.8-42.7,74.5-74.5,74.5H125.3
		c-31.8,0-74.5-42.7-74.5-74.5V370c0-31.8,42.7-74.5,74.5-74.5h138.4v-40.8H125.3C61.6,254.7,10,306.4,10,370v446.3
		c0,63.7,51.6,115.3,115.3,115.3h749.4c63.7,0,115.3-51.6,115.3-115.3V370C990,306.4,938.4,254.7,874.7,254.7L874.7,254.7z
		 M269.8,467.5l207.8,208.2c5.4,5.4,12.8,8.5,20.4,8.5l0,0c7.6,0,14.9-3,20.4-8.4l208.2-208.2c11.3-11.3,11.3-29.5,0-40.8
		s-29.5-11.3-40.8,0L525.2,587.3v-490c0-15.9-12.9-28.8-28.8-28.8c-15.9,0-28.8,12.9-28.8,28.8V584l-157-157.2
		c-5.7-5.6-13-8.5-20.4-8.5s-14.8,2.8-20.4,8.4C258.6,438,258.6,456.2,269.8,467.5L269.8,467.5z"/>
</g>
<g>
	<path class="st2" d="M823.3,461.3v302.8c0,54.3-43.7,97.9-97.9,97.9H155.5c-54.3,0-97.9-43.7-97.9-97.9V315.7
		c0-54.3,43.7-97.9,97.9-97.9h69.8v-45.6h-69.8c-78.8,0-143.1,64.3-143.1,143.6v448.4c-0.1,79.4,64.2,143.6,143.5,143.6h570
		c79.4,0,143.6-64.3,143.6-143.6V453.3C860,459.3,831.4,463.4,823.3,461.3z M215.3,444.8l210.4,210.4c4.6,4.6,10.1,6.5,16.1,6.5
		c6,0,12-2.5,16.1-6.5l212.4-212.4c9-9,9-23.1,0-32.2s-23.1-9-32.2,0L463.3,585.4V114.9c0-12.6-10.1-22.6-22.6-22.6
		c-12.6,0-22.6,10.1-22.6,22.6v468.5L247.3,412.6c-9-9-23.1-9-32.2,0S206.1,436.2,215.3,444.8L215.3,444.8z M816.3,95.8
		c-94.9,0-171.3,76.9-171.3,171.3c0,94.9,76.9,171.3,171.3,171.3c94.9,0,171.3-76.9,171.3-171.3S911.2,95.8,816.3,95.8z
		 M911.7,223.8l-96.9,107c-11.5,12.6-30.6,13.6-42.6,2l-49.7-47.2c-7.1-7.1-7.6-18.6-0.5-25.6c7.1-7.1,18.6-7.6,25.6-0.5l45.2,42.6
		l92.9-102.4c6.5-7.6,18.1-8,25.6-1C917.7,205.3,918.3,216.8,911.7,223.8z"/>
</g>
</svg>
