<?xml version="1.0" encoding="utf-8"?>
<!-- Generator: Adobe Illustrator 23.0.6, SVG Export Plug-In . SVG Version: 6.00 Build 0)  -->
<svg version="1.1" id="Layer_1" xmlns="http://www.w3.org/2000/svg" xmlns:xlink="http://www.w3.org/1999/xlink" x="0px" y="0px"
	 viewBox="0 0 423 512" style="enable-background:new 0 0 423 512;" xml:space="preserve">
<style type="text/css">
	.st0{fill:#FFFFFF;}
</style>
<g>
	<polygon class="st0" points="109.5,445.4 109.5,356.1 19.6,356.1 	"/>
	<path class="st0" d="M414.4,427.8c-1-2-3.1-3.3-5.4-3.3h-22.2v-37.2v-11v-25.6h0.1c0-9.7-2.7-17.6-6-17.6h-52.1
		c-3.3,0-6,7.9-6,17.6v25.6v11v37.2h-22.2c-2.3,0-4.4,1.3-5.4,3.3s-0.7,4.5,0.7,6.3l54.2,69.7c1.1,1.5,2.9,2.3,4.7,2.3
		s3.6-0.8,4.7-2.3l54.2-69.7C415.2,432.2,415.4,429.8,414.4,427.8z"/>
	<path class="st0" d="M186.8,108.2"/>
</g>
<path class="st0" d="M13.2,6v337.2h102.1c3.9,0,7.1,3.2,7.1,7.1v101.4h171.1l-7.6-9.8c-4.5-5.6-5.3-13.4-2.1-19.8
	c3.1-6.4,9.8-10.5,16.9-10.5h9.4v-72.5c0-10.4,8.4-18.8,18.8-18.8h26V182.1V34.3V6H13.2z M229,277.6l-44.1-62.3l-46.3,62.3H73.6
	l80.6-101.3L89.1,87.7h65.6l30.4,48.2l32.5-48.2h66.7l-68.2,88.6l77.5,101.3H229z"/>
</svg>
