<svg id="Capa_1" enable-background="new 0 0 512 512" height="512" viewBox="0 0 512 512" width="512" xmlns="http://www.w3.org/2000/svg"><g><path d="m482.529 102.43-198.641-16.167-254.417 16.167v397.041c0 6.92 5.609 12.529 12.529 12.529h427.998c6.921 0 12.532-5.611 12.532-12.532z" fill="#f6f9f9"/><path d="m482.529 102.43-41.207-20.603v314.047c0 52.755-42.767 95.522-95.522 95.522h-316.329v8.075c0 6.92 5.609 12.529 12.529 12.529h427.997c6.921 0 12.532-5.611 12.532-12.532z" fill="#e7ecf1"/><path d="m469.998 29.226h-427.996c-6.921 0-12.531 5.61-12.531 12.531v60.673h453.058v-60.673c0-6.921-5.61-12.531-12.531-12.531z" fill="#61a2f9"/><path d="m469.999 29.226h-28.677v73.204h41.207v-60.673c0-6.921-5.61-12.531-12.53-12.531z" fill="#5490f9"/><g fill="#dae4ea"><path d="m93.508 68.966h-7.04c-6.895 0-12.485-5.59-12.485-12.485v-43.996c0-6.895 5.59-12.485 12.485-12.485h7.04c6.895 0 12.485 5.59 12.485 12.485v43.995c0 6.896-5.589 12.486-12.485 12.486z"/><path d="m176.514 68.966h-7.04c-6.895 0-12.485-5.59-12.485-12.485v-43.996c0-6.895 5.59-12.485 12.485-12.485h7.04c6.895 0 12.485 5.59 12.485 12.485v43.995c0 6.896-5.589 12.486-12.485 12.486z"/><path d="m259.52 68.966h-7.04c-6.895 0-12.485-5.59-12.485-12.485v-43.996c0-6.895 5.59-12.485 12.485-12.485h7.04c6.895 0 12.485 5.59 12.485 12.485v43.995c0 6.896-5.59 12.486-12.485 12.486z"/><path d="m342.526 68.966h-7.04c-6.895 0-12.485-5.59-12.485-12.485v-43.996c0-6.895 5.589-12.485 12.485-12.485h7.04c6.895 0 12.485 5.59 12.485 12.485v43.995c0 6.896-5.59 12.486-12.485 12.486z"/><path d="m425.532 68.966h-7.04c-6.895 0-12.485-5.59-12.485-12.485v-43.996c0-6.895 5.589-12.485 12.485-12.485h7.04c6.895 0 12.485 5.59 12.485 12.485v43.995c0 6.896-5.59 12.486-12.485 12.486z"/></g><path d="m385.565 243.693-32.434-32.434c-2.612-2.613-6.848-2.613-9.461 0l-112.001 112.001c-.364.364-.953.364-1.317 0l-61.829-61.829c-2.613-2.613-6.848-2.613-9.461 0l-32.627 32.627c-2.613 2.613-2.613 6.848 0 9.461l99.652 99.651c2.613 2.613 6.848 2.612 9.461 0l150.017-150.017c2.612-2.612 2.612-6.847 0-9.46z" fill="#80e29d"/></g></svg>