<?xml version="1.0" encoding="utf-8"?>
<!-- Generator: Adobe Illustrator 25.2.3, SVG Export Plug-In . SVG Version: 6.00 Build 0)  -->
<svg version="1.1" id="Capa_1" xmlns="http://www.w3.org/2000/svg" xmlns:xlink="http://www.w3.org/1999/xlink" x="0px" y="0px"
	 viewBox="0 0 512 512" style="enable-background:new 0 0 512 512;" xml:space="preserve">
<style type="text/css">
	.st0{fill:#F6F9F9;}
	.st1{fill:#E7ECF1;}
	.st2{fill:#61A2F9;}
	.st3{fill:#5490F9;}
	.st4{fill:#DAE4EA;}
	.st5{fill:#DA4A54;}
</style>
<g>
	<path class="st0" d="M482.5,102.4L283.9,86.3L29.5,102.4v397c0,6.9,5.6,12.5,12.5,12.5h428c6.9,0,12.5-5.6,12.5-12.5L482.5,102.4z"
		/>
	<path class="st1" d="M482.5,102.4l-41.2-20.6v314c0,52.8-42.8,95.5-95.5,95.5H29.5v8.1c0,6.9,5.6,12.5,12.5,12.5h428
		c6.9,0,12.5-5.6,12.5-12.5V102.4z"/>
	<path class="st2" d="M470,29.2H42c-6.9,0-12.5,5.6-12.5,12.5v60.7h453.1V41.8C482.5,34.8,476.9,29.2,470,29.2z"/>
	<path class="st3" d="M470,29.2h-28.7v73.2h41.2V41.8C482.5,34.8,476.9,29.2,470,29.2z"/>
	<g>
		<path class="st4" d="M93.5,69h-7C79.6,69,74,63.4,74,56.5v-44C74,5.6,79.6,0,86.5,0h7c6.9,0,12.5,5.6,12.5,12.5v44
			C106,63.4,100.4,69,93.5,69z"/>
		<path class="st4" d="M176.5,69h-7c-6.9,0-12.5-5.6-12.5-12.5v-44C157,5.6,162.6,0,169.5,0h7c6.9,0,12.5,5.6,12.5,12.5v44
			C189,63.4,183.4,69,176.5,69z"/>
		<path class="st4" d="M259.5,69h-7c-6.9,0-12.5-5.6-12.5-12.5v-44C240,5.6,245.6,0,252.5,0h7c6.9,0,12.5,5.6,12.5,12.5v44
			C272,63.4,266.4,69,259.5,69z"/>
		<path class="st4" d="M342.5,69h-7c-6.9,0-12.5-5.6-12.5-12.5v-44C323,5.6,328.6,0,335.5,0h7c6.9,0,12.5,5.6,12.5,12.5v44
			C355,63.4,349.4,69,342.5,69z"/>
		<path class="st4" d="M425.5,69h-7c-6.9,0-12.5-5.6-12.5-12.5v-44C406,5.6,411.6,0,418.5,0h7c6.9,0,12.5,5.6,12.5,12.5v44
			C438,63.4,432.4,69,425.5,69z"/>
	</g>
	<path class="st5" d="M318.4,306.7l62.7-62.7c2.4-2.4,2.4-6.2,0-8.6L327.7,182c-2.4-2.4-6.2-2.4-8.6,0l-62.7,62.7
		c-0.2,0.2-0.6,0.2-0.8,0L192.9,182c-2.4-2.4-6.2-2.4-8.6,0l-53.4,53.4c-2.4,2.4-2.4,6.2,0,8.6l62.7,62.7c0.2,0.2,0.2,0.6,0,0.8
		l-62.7,62.7c-2.4,2.4-2.4,6.2,0,8.6l53.4,53.4c2.4,2.4,6.2,2.4,8.6,0l62.7-62.7c0.2-0.2,0.6-0.2,0.8,0l62.7,62.7
		c2.4,2.4,6.2,2.4,8.6,0l53.4-53.4c2.4-2.4,2.4-6.2,0-8.6l-62.7-62.7C318.2,307.2,318.2,306.9,318.4,306.7z"/>
</g>
</svg>
