<?xml version="1.0" encoding="utf-8"?>
<!-- Generator: Adobe Illustrator 25.4.1, SVG Export Plug-In . SVG Version: 6.00 Build 0)  -->
<svg version="1.1" id="Capa_1" xmlns="http://www.w3.org/2000/svg" xmlns:xlink="http://www.w3.org/1999/xlink" x="0px" y="0px"
	 viewBox="0 0 512 512" style="enable-background:new 0 0 512 512;" xml:space="preserve">
<style type="text/css">
	.st0{fill:#FFFFFF;}
</style>
<g id="XMLID_1497_">
	<g id="XMLID_1687_">
		<path id="XMLID_898_" class="st0" d="M278.5,512h-45c-16.5,0-30-13.5-30-30c0-14,9.6-25.7,22.5-29.1v-12.4c0-2.8-2.1-5.3-4.9-5.9
			c-24-4.7-46.4-13.9-66.7-27.6c-2.4-1.6-5.7-1.4-7.7,0.6l-8.9,8.9c6.2,10.8,5.4,24.7-2.7,34.4c-5.4,6.5-13.3,10.4-21.7,10.8
			c-8.4,0.4-16.6-2.8-22.5-8.8l-31.8-31.8c-5.7-5.7-8.8-13.2-8.8-21.2s3.1-15.5,8.8-21.2c5.7-5.7,13.2-8.8,21.2-8.8
			c5.4,0,10.7,1.4,15.2,4.1l8.8-8.8c2-2,2.3-5.2,0.6-7.7c-13.7-20.3-23-42.7-27.6-66.7c-0.6-2.9-3-4.9-5.9-4.9H59.1
			c-1.4,5.3-4.2,10.2-8.2,14.1c-5.9,5.7-13.7,8.7-21.9,8.4C12.7,307.9,0,294.5,0,278v-44.5c0-8.2,3.2-15.9,9.1-21.6
			c5.9-5.7,13.7-8.7,21.9-8.4c13.3,0.4,24.5,9.9,27.9,22.5h12.6c2.8,0,5.3-2.1,5.9-4.9c4.7-24,13.9-46.4,27.6-66.7
			c1.6-2.4,1.4-5.7-0.6-7.7l-8.8-8.8c-4.6,2.7-9.8,4.1-15.2,4.1c-8,0-15.5-3.1-21.2-8.8c-11.7-11.7-11.7-30.7,0-42.4l31.8-31.8
			c11.7-11.7,30.7-11.7,42.4,0c5.7,5.7,8.8,13.2,8.8,21.2c0,5.4-1.4,10.7-4.1,15.2l8.8,8.8c2,2,5.2,2.3,7.7,0.6
			c20.3-13.7,42.7-23,66.7-27.6c2.9-0.6,4.9-3,4.9-5.9V59.1C213.1,55.7,203.5,44,203.5,30c0-16.5,13.5-30,30-30h45
			c16.5,0,30,13.5,30,30c0,14-9.6,25.7-22.5,29.1v12.4c0,2.8,2.1,5.3,4.9,5.9c24,4.7,46.4,13.9,66.7,27.6c2.4,1.6,5.7,1.4,7.7-0.6
			l8.8-8.8c-6.8-11.5-5.2-26.6,4.6-36.5c11.7-11.7,30.7-11.7,42.4,0l31.8,31.8c11.7,11.7,11.7,30.7,0,42.4
			c-5.7,5.7-13.2,8.8-21.2,8.8c-5.4,0-10.7-1.4-15.2-4.1l-8.8,8.8c-2,2-2.3,5.2-0.6,7.7c13.7,20.3,23,42.7,27.6,66.7
			c0.6,2.9,3,4.9,5.9,4.9h12.6c3.2-12,13.6-21.3,26.2-22.4h0c8.4-0.7,16.8,2.1,23,7.8c6.2,5.7,9.7,13.7,9.7,22.1v45
			c0,8.4-3.6,16.5-9.7,22.1c-6.2,5.7-14.6,8.5-23,7.8c-12.6-1.1-23-10.4-26.2-22.4h-12.6c-2.8,0-5.3,2.1-5.9,4.9
			c-4.7,24-13.9,46.4-27.6,66.7c-1.6,2.4-1.4,5.7,0.6,7.7l8.8,8.8c4.6-2.7,9.8-4.1,15.2-4.1c8,0,15.5,3.1,21.2,8.8
			c5.7,5.7,8.8,13.2,8.8,21.2s-3.1,15.5-8.8,21.2l-31.8,31.8c-5.9,5.9-14.1,9.1-22.5,8.8c-8.4-0.4-16.3-4.3-21.7-10.7
			c-8.1-9.7-8.9-23.6-2.7-34.4l-8.9-8.9c-2-2-5.2-2.3-7.7-0.6c-20.3,13.7-42.7,23-66.7,27.6c-2.9,0.6-4.9,3-4.9,5.9v12.4
			c12.9,3.3,22.5,15.1,22.5,29.1C308.5,498.5,295,512,278.5,512L278.5,512z M151,386c5.1,0,10.2,1.5,14.6,4.5
			c18,12.2,38,20.4,59.3,24.6c12.2,2.4,21.1,13.1,21.1,25.5v19c0,6.9-5.6,12.5-12.5,12.5c-5.5,0-10,4.5-10,10s4.5,10,10,10h45
			c5.5,0,10-4.5,10-10s-4.5-10-10-10c-6.9,0-12.5-5.6-12.5-12.5v-19c0-12.4,8.9-23.1,21.1-25.5c21.3-4.1,41.3-12.4,59.3-24.6
			c10.3-7,24.2-5.7,33,3.1l13.8,13.8c4.7,4.7,4.7,12.3,0,17c-3.8,3.8-4.2,9.9-1,13.8c1.8,2.2,4.4,3.5,7.3,3.6
			c2.9,0.1,5.5-0.9,7.5-2.9l31.8-31.8c1.9-1.9,2.9-4.4,2.9-7.1c0-2.7-1-5.2-2.9-7.1c-3.9-3.9-10.2-3.9-14.1,0l-0.3,0.3
			c-4.7,4.7-12.3,4.7-17,0l-13.8-13.8c-8.8-8.8-10.1-22.6-3.1-33c12.2-18,20.4-38,24.6-59.3c2.4-12.2,13.1-21.1,25.5-21.1H460
			c6.6,0,12,5.4,12,12c0,5.4,4,10,9.1,10.4c2.9,0.3,5.6-0.7,7.7-2.6c2.1-1.9,3.3-4.5,3.3-7.4v-45c0-2.8-1.2-5.5-3.3-7.4
			c-2.1-1.9-4.8-2.8-7.7-2.6c-5.1,0.4-9.1,5-9.1,10.4c0,6.6-5.4,12-12,12h-19.4c-12.4,0-23.1-8.9-25.5-21.1
			c-4.1-21.3-12.4-41.3-24.6-59.3c-7-10.3-5.7-24.2,3.1-33l13.4-13.4c4.9-4.9,12.8-4.9,17.7,0c3.9,3.9,10.2,3.9,14.1,0
			c3.9-3.9,3.9-10.2,0-14.1L407,73.2c-3.9-3.9-10.2-3.9-14.1,0c-3.9,3.9-3.9,10.2,0,14.1c4.9,4.9,4.9,12.8,0,17.7l-13.4,13.4
			c-8.8,8.8-22.6,10.1-33,3.1c-18-12.2-38-20.4-59.3-24.6C274.9,94.6,266,83.9,266,71.5v-19c0-6.9,5.6-12.5,12.5-12.5
			c5.5,0,10-4.5,10-10s-4.5-10-10-10h-45c-5.5,0-10,4.5-10,10s4.5,10,10,10c6.9,0,12.5,5.6,12.5,12.5v19c0,12.4-8.9,23.1-21.1,25.5
			c-21.3,4.1-41.3,12.4-59.3,24.6c-10.3,7-24.2,5.7-33-3.1L119.2,105c-2.4-2.4-3.7-5.5-3.7-8.8c0-3.3,1.3-6.5,3.7-8.8
			c3.9-3.9,3.9-10.2,0-14.1c-3.9-3.9-10.2-3.9-14.1,0L73.2,105c-3.9,3.9-3.9,10.2,0,14.1c1.9,1.9,4.4,2.9,7.1,2.9s5.2-1,7.1-2.9
			c4.9-4.9,12.8-4.9,17.7,0l13.4,13.4c8.8,8.8,10.1,22.6,3.1,33c-12.2,18-20.4,38-24.6,59.3C94.6,237.1,83.9,246,71.5,246H52
			c-6.6,0-12-5.4-12-12c0-5.6-4.3-10.3-9.6-10.5c-2.7-0.1-5.3,0.9-7.3,2.8c-2,1.9-3,4.5-3,7.2V278c0,5.6,4.3,10.3,9.6,10.5
			c2.8,0.1,5.3-0.9,7.3-2.8c2-1.9,3.1-4.5,3.1-7.2c0-6.9,5.6-12.5,12.5-12.5h19c12.4,0,23.1,8.9,25.5,21.1
			c4.1,21.3,12.4,41.3,24.6,59.3c7,10.3,5.7,24.2-3.1,33l-13.8,13.8c-4.7,4.7-12.3,4.7-17,0l-0.3-0.3c-1.9-1.9-4.4-2.9-7.1-2.9
			s-5.2,1-7.1,2.9c-1.9,1.9-2.9,4.4-2.9,7.1c0,2.7,1,5.2,2.9,7.1l31.8,31.8c2,2,4.7,3,7.5,2.9c2.8-0.1,5.4-1.4,7.3-3.6
			c3.3-3.9,2.9-10-1-13.8c-4.7-4.7-4.7-12.3,0-17l13.8-13.8C137.6,388.5,144.3,386,151,386L151,386z"/>
	</g>
	<g id="XMLID_1654_">
		<path id="XMLID_895_" class="st0" d="M217.4,213.9c-23.2,0-42-18.8-42-42s18.8-42,42-42s42,18.8,42,42S240.5,213.9,217.4,213.9z
			 M217.4,149.9c-12.1,0-22,9.9-22,22s9.9,22,22,22s22-9.9,22-22S229.5,149.9,217.4,149.9z"/>
	</g>
	<g id="XMLID_1656_">
		<path id="XMLID_892_" class="st0" d="M189,355.8c-20,0-36.3-16.3-36.3-36.3s16.3-36.3,36.3-36.3s36.3,16.3,36.3,36.3
			S209,355.8,189,355.8z M189,303.1c-9,0-16.3,7.3-16.3,16.3c0,9,7.3,16.3,16.3,16.3s16.3-7.3,16.3-16.3
			C205.3,310.5,198,303.1,189,303.1z"/>
	</g>
	<g id="XMLID_1104_">
		<path id="XMLID_891_" class="st0" d="M325.8,345.9c-31.3,0-57.7-23.4-61.3-54.5c-0.6-5.5,3.3-10.5,8.8-11.1
			c5.5-0.6,10.5,3.3,11.1,8.8c2.5,21,20.3,36.9,41.5,36.9c23,0,41.8-18.7,41.8-41.8c0-21.3-16-39.2-37.1-41.5
			c-5.5-0.6-9.4-5.5-8.8-11c0.6-5.5,5.6-9.4,11-8.8c31.3,3.5,54.9,29.8,54.9,61.4C387.6,318.1,359.9,345.9,325.8,345.9L325.8,345.9z
			"/>
	</g>
	<g id="XMLID_1101_">
		<path id="XMLID_890_" class="st0" d="M313,181.9c-2.6,0-5.2-1.1-7.1-2.9s-2.9-4.4-2.9-7.1c0-2.6,1.1-5.2,2.9-7.1
			c1.9-1.9,4.4-2.9,7.1-2.9s5.2,1.1,7.1,2.9c1.9,1.9,2.9,4.4,2.9,7.1s-1.1,5.2-2.9,7.1C318.2,180.8,315.6,181.9,313,181.9z"/>
	</g>
	<g id="XMLID_1094_">
		<path id="XMLID_889_" class="st0" d="M256,385c-2.6,0-5.2-1.1-7.1-2.9c-1.9-1.9-2.9-4.4-2.9-7.1s1.1-5.2,2.9-7.1
			c1.9-1.9,4.4-2.9,7.1-2.9c2.6,0,5.2,1.1,7.1,2.9c1.9,1.9,2.9,4.4,2.9,7.1s-1.1,5.2-2.9,7.1C261.2,383.9,258.6,385,256,385z"/>
	</g>
	<g id="XMLID_1660_">
		<path id="XMLID_888_" class="st0" d="M143.7,266.1c-2.6,0-5.2-1.1-7.1-2.9c-1.9-1.9-2.9-4.4-2.9-7.1c0-2.6,1.1-5.2,2.9-7.1
			c1.9-1.9,4.4-2.9,7.1-2.9c2.6,0,5.2,1.1,7.1,2.9c1.9,1.9,2.9,4.4,2.9,7.1s-1.1,5.2-2.9,7.1C148.9,265.1,146.3,266.1,143.7,266.1z"
			/>
	</g>
	<g id="XMLID_1493_">
		<path id="XMLID_887_" class="st0" d="M289.1,257.6c-2.6,0-5.2-1.1-7.1-2.9c-1.9-1.9-2.9-4.4-2.9-7.1c0-2.6,1.1-5.2,2.9-7.1
			c1.9-1.9,4.4-2.9,7.1-2.9s5.2,1.1,7.1,2.9c1.9,1.9,2.9,4.4,2.9,7.1c0,2.6-1.1,5.2-2.9,7.1C294.3,256.5,291.8,257.6,289.1,257.6z"
			/>
	</g>
</g>
</svg>
