<?xml version="1.0" encoding="utf-8"?>
<!-- Generator: Adobe Illustrator 25.4.1, SVG Export Plug-In . SVG Version: 6.00 Build 0)  -->
<svg version="1.1" id="Capa_1" xmlns="http://www.w3.org/2000/svg" xmlns:xlink="http://www.w3.org/1999/xlink" x="0px" y="0px"
	 viewBox="0 0 512 512" style="enable-background:new 0 0 512 512;" xml:space="preserve">
<style type="text/css">
	.st0{fill:#FFFFFF;}
</style>
<g>
	<g>
		<path class="st0" d="M351.6,321.6c-16.5,0-30,13.5-30,30s13.5,30,30,30s30-13.5,30-30S368.1,321.6,351.6,321.6z M351.6,361.6
			c-5.5,0-10-4.5-10-10s4.5-10,10-10s10,4.5,10,10S357.1,361.6,351.6,361.6z"/>
		<path class="st0" d="M482,321.6c-13,0-24.2,8.4-28.3,20h-12.3c-1.9-17.4-8.8-33.4-19.3-46.4l8.7-8.7c4.1,1.9,8.5,2.9,12.9,2.9
			c7.7,0,15.4-2.9,21.2-8.8c11.7-11.7,11.7-30.7,0-42.4s-30.7-11.7-42.4,0c-9.2,9.2-11.2,23-5.9,34.1L408,281
			c-13-10.4-29-17.3-46.4-19.3v-12.3c11.6-4.1,20-15.2,20-28.3c0-13.3-8.7-24.7-20.8-28.6l7.9-7.9l8.2,8.2c2,2,4.5,2.9,7.1,2.9
			s5.1-1,7.1-2.9c3.9-3.9,3.9-10.2,0-14.1l-31-31l44.2-44.2l1.6,1.6c6,6,13.8,8.9,21.6,8.9c7.8,0,15.6-3,21.6-8.9
			c5.8-5.8,8.9-13.4,8.9-21.6s-3.2-15.8-8.9-21.6L396,8.9C384.1-3,364.7-3,352.8,8.9c-11.9,11.9-11.9,31.3,0,43.2l1.6,1.6L310.2,98
			l-31-31c-3.9-3.9-10.2-3.9-14.1,0c-3.9,3.9-3.9,10.2,0,14.1l8.2,8.2l-48.9,48.9c-3.9,3.9-3.9,10.2,0,14.1c3.9,3.9,10.2,3.9,14.1,0
			l48.9-48.9l67.1,67.1l-71,71c-0.9-1.2-1.9-2.3-3-3.4c-11.7-11.7-30.7-11.7-42.4,0c-11.7,11.7-11.7,30.7,0,42.4
			c1.1,1.1,2.2,2.1,3.4,3l-37.8,37.8l-67.1-67.1l38.2-38.2c3.9-3.9,3.9-10.2,0-14.1c-3.9-3.9-10.2-3.9-14.1,0L78.5,284
			c-13.4,13.4-13.9,34.9-1.4,48.9l-32.9,45.8c-2.9,4-2.4,9.4,1.1,12.9l3.5,3.5L2.9,440.9c-3.9,3.9-3.9,10.2,0,14.1
			c2,2,4.5,2.9,7.1,2.9s5.1-1,7.1-2.9l45.8-45.8l3.5,3.5c1.9,1.9,4.5,2.9,7.1,2.9c2,0,4.1-0.6,5.8-1.9l45.8-32.9
			c6.5,5.8,14.9,9,23.7,9c9.5,0,18.5-3.7,25.2-10.4l18.7-18.7c3.9,12.1,15.2,20.8,28.6,20.8c13,0,24.2-8.4,28.3-20h12.3
			c1.9,17.4,8.8,33.4,19.3,46.4l-8.7,8.7c-11.1-5.3-24.9-3.4-34.1,5.9c-11.7,11.7-11.7,30.7,0,42.4c5.8,5.8,13.5,8.8,21.2,8.8
			s15.4-2.9,21.2-8.8c9.2-9.2,11.2-23,5.9-34.1l8.7-8.7c13,10.4,29,17.3,46.4,19.3v12.3c-11.6,4.1-20,15.2-20,28.3
			c0,16.5,13.5,30,30,30s30-13.5,30-30c0-13-8.4-24.2-20-28.3v-12.3c17.4-1.9,33.4-8.8,46.4-19.3l8.7,8.7
			c-5.3,11.1-3.4,24.9,5.9,34.1c5.8,5.8,13.5,8.8,21.2,8.8c7.7,0,15.4-2.9,21.2-8.8c11.7-11.7,11.7-30.7,0-42.4
			c-9.2-9.2-23-11.2-34.1-5.9l-8.7-8.7c10.4-13,17.3-29,19.3-46.4h12.3c4.1,11.6,15.2,20,28.3,20c16.5,0,30-13.5,30-30
			S498.5,321.6,482,321.6L482,321.6z M366.9,23.1c2.1-2.1,4.8-3.1,7.5-3.1s5.4,1,7.5,3.1l53.1,53.1c2,2,3.1,4.6,3.1,7.5
			s-1.1,5.5-3.1,7.5c-4.1,4.1-10.8,4.1-14.9,0L366.9,38C362.8,33.9,362.8,27.2,366.9,23.1z M368.6,67.9l21.5,21.5l-44.2,44.2
			l-21.5-21.5L368.6,67.9z M351.6,422c-38.8,0-70.4-31.6-70.4-70.4s31.6-70.4,70.4-70.4s70.4,31.6,70.4,70.4S390.4,422,351.6,422z
			 M436.7,252.3c1.9-1.9,4.4-2.9,7.1-2.9s5.2,1,7.1,2.9c1.9,1.9,2.9,4.4,2.9,7.1c0,2.7-1,5.2-2.9,7.1c-1.9,1.9-4.4,2.9-7.1,2.9
			s-5.2-1-7.1-2.9C432.8,262.5,432.8,256.2,436.7,252.3L436.7,252.3z M351.6,231.2c-5.5,0-10-4.5-10-10s4.5-10,10-10s10,4.5,10,10
			S357.1,231.2,351.6,231.2z M341.6,249.5v12.3c-17.4,1.9-33.4,8.8-46.4,19.3l-8.7-8.7c1.2-2.5,2-5.1,2.5-7.8l34.1-34.1
			C325.9,239.3,332.8,246.3,341.6,249.5z M252.3,252.3c1.9-1.9,4.4-2.9,7.1-2.9s5.2,1,7.1,2.9s2.9,4.4,2.9,7.1c0,2.7-1,5.2-2.9,7.1
			c-1.9,1.9-4.4,2.9-7.1,2.9s-5.2-1-7.1-2.9s-2.9-4.4-2.9-7.1C249.4,256.7,250.4,254.2,252.3,252.3L252.3,252.3z M74.5,392.6
			l-9.1-9.1l26-36.2l19.3,19.3L74.5,392.6z M159.8,365.3c-2.9,3-6.9,4.6-11,4.6c-4.2,0-8.1-1.6-11-4.6l-45.1-45.1
			c-6.1-6.1-6.1-16,0-22.1l29.8-29.8l67.1,67.1L159.8,365.3z M264.5,288.9c2.7-0.5,5.3-1.3,7.8-2.5l8.7,8.7
			c-10.4,13-17.3,29-19.3,46.4h-12.3c-3.1-8.8-10.2-15.7-19.1-18.5L264.5,288.9z M221.2,361.6c-5.5,0-10-4.5-10-10s4.5-10,10-10
			s10,4.5,10,10S226.7,361.6,221.2,361.6z M266.4,450.9c-1.9,1.9-4.4,2.9-7.1,2.9s-5.2-1-7.1-2.9s-2.9-4.4-2.9-7.1
			c0-2.7,1-5.2,2.9-7.1c1.9-1.9,4.4-2.9,7.1-2.9s5.2,1,7.1,2.9s2.9,4.4,2.9,7.1S268.3,449,266.4,450.9z M351.6,492
			c-5.5,0-10-4.5-10-10s4.5-10,10-10s10,4.5,10,10S357.1,492,351.6,492z M450.9,436.7c1.9,1.9,2.9,4.4,2.9,7.1c0,2.7-1,5.2-2.9,7.1
			c-1.9,1.9-4.4,2.9-7.1,2.9s-5.2-1-7.1-2.9c-3.9-3.9-3.9-10.2,0-14.1c1.9-1.9,4.4-2.9,7.1-2.9C446.5,433.8,449,434.8,450.9,436.7
			L450.9,436.7z M482,361.6c-5.5,0-10-4.5-10-10s4.5-10,10-10s10,4.5,10,10S487.5,361.6,482,361.6z"/>
		<circle class="st0" cx="199.6" cy="177.1" r="10"/>
	</g>
</g>
</svg>
