<?xml version="1.0" encoding="utf-8"?>
<!-- Generator: Adobe Illustrator 21.0.2, SVG Export Plug-In . SVG Version: 6.00 Build 0)  -->
<svg xmlns="http://www.w3.org/2000/svg" xmlns:xlink="http://www.w3.org/1999/xlink" version="1.1" id="Layer_1" x="0px" y="0px" viewBox="0 0 100 100" enable-background="new 0 0 100 100" xml:space="preserve" width="512" height="512">
<g>
	<circle fill="#EA8953" cx="50" cy="50" r="48"/>
	<path opacity="0.1" d="M98,50c0-0.2511597-0.0150757-0.4987183-0.0189209-0.7489624L71.2299805,22.5h-42.5v6.9500122h0.0400391   L22.5,37.9799805v3.4400024c0,0.9799805,0.4199829,1.8599854,1.0800171,2.4899902l2.3599854,2.3599854v24.8600464L22.5,75.2399902   V77.5l19.894043,19.894043C44.8719482,97.7886963,47.4109497,98,50,98C76.5097046,98,98,76.5095825,98,50z"/>
	<g>
		<g>
			<rect x="22.5" y="75.2425308" fill="#3A556A" width="55" height="2.2574658"/>
			<polygon fill="#64798A" points="70.9600372,67.4220276 29.0399609,67.4220276 22.5,75.2425308 77.5,75.2425308    "/>
		</g>
		<rect x="25.9375324" y="35.8133507" fill="#FCD462" width="48.1249352" height="37.5867577"/>
		<rect x="29.3750286" y="46.9888802" fill="#FFFFFF" width="15.385994" height="26.4112244"/>
		<rect x="30.4414825" y="48.1886406" fill="#27A2DB" width="13.253087" height="25.2114639"/>
		<rect x="48.2936478" y="48.7885208" fill="#FFFFFF" width="22.3955212" height="15.2636137"/>
		<g>
			<rect x="59.9911957" y="49.7884483" fill="#27A2DB" width="9.6977539" height="6.1320801"/>
			<rect x="49.2934418" y="49.7884483" fill="#27A2DB" width="9.6977539" height="6.1320801"/>
			<rect x="59.9911957" y="56.9205284" fill="#27A2DB" width="9.6977539" height="6.1315918"/>
			<rect x="49.2934418" y="56.9205284" fill="#27A2DB" width="9.6977539" height="6.1315918"/>
		</g>
		<rect x="25.9375324" y="35.8133507" opacity="0.15" width="48.1249352" height="16.0711842"/>
		<g>
			<path fill="#D5D6DB" d="M22.5000381,37.9794426v3.4374962c0,1.8984833,1.5390129,3.4374962,3.4374619,3.4374962     c1.8985157,0,3.4375286-1.5390129,3.4375286-3.4374962v-3.4374962H22.5000381z"/>
			<path fill="#CE412D" d="M29.3750286,37.9794426v3.4374962c0,1.8984833,1.5390129,3.4374962,3.4374599,3.4374962     c1.8985176,0,3.4375305-1.5390129,3.4375305-3.4374962v-3.4374962H29.3750286z"/>
			<path fill="#D5D6DB" d="M36.2500191,37.9794426v3.4374962c0,1.8984833,1.5390129,3.4374962,3.4374619,3.4374962     c1.8985176,0,3.4375305-1.5390129,3.4375305-3.4374962v-3.4374962H36.2500191z"/>
			<path fill="#CE412D" d="M43.1250114,37.9794426v3.4374962c0,1.8984833,1.5390129,3.4374962,3.437458,3.4374962     C48.4609871,44.854435,50,43.3154221,50,41.4169388v-3.4374962H43.1250114z"/>
			<path fill="#D5D6DB" d="M50,37.9794426v3.4374962c0,1.8984833,1.5390129,3.4374962,3.4374619,3.4374962     c1.8985176,0,3.4375305-1.5390129,3.4375305-3.4374962v-3.4374962H50z"/>
			<path fill="#CE412D" d="M56.8749924,37.9794426v3.4374962c0,1.8984833,1.5390129,3.4374962,3.437458,3.4374962     c1.8985176,0,3.4375305-1.5390129,3.4375305-3.4374962v-3.4374962H56.8749924z"/>
			<path fill="#D5D6DB" d="M63.7499809,37.9794426v3.4374962c0,1.8984833,1.5390129,3.4374962,3.4374657,3.4374962     c1.8985138,0,3.4375229-1.5390129,3.4375229-3.4374962v-3.4374962H63.7499809z"/>
			<path fill="#CE412D" d="M70.6249695,37.9794426v3.4374962c0,1.8984833,1.5390167,3.4374962,3.4374619,3.4374962     c1.8985214,0,3.4375305-1.5390129,3.4375305-3.4374962v-3.4374962H70.6249695z"/>
			<polygon fill="#EBF0F3" points="34.0754967,29.4525738 28.7673264,29.4525738 22.5000381,37.9794426 29.3750286,37.9794426         "/>
			<polygon fill="#E56353" points="39.3836632,29.4525738 34.0754967,29.4525738 29.3750286,37.9794426 36.2500191,37.9794426         "/>
			<polygon fill="#EBF0F3" points="44.6918297,29.4525738 39.3836632,29.4525738 36.2500191,37.9794426 43.1250076,37.9794426         "/>
			<polygon fill="#E56353" points="50,29.4525738 44.6918297,29.4525738 43.1250076,37.9794426 50,37.9794426    "/>
			<polygon fill="#EBF0F3" points="55.3081665,29.4525738 50,29.4525738 50,37.9794426 56.8749886,37.9794426    "/>
			<polygon fill="#E56353" points="60.6163368,29.4525738 55.3081665,29.4525738 56.8749886,37.9794426 63.7499809,37.9794426         "/>
			<polygon fill="#EBF0F3" points="65.9245071,29.4525738 60.6163368,29.4525738 63.7499809,37.9794426 70.6249695,37.9794426         "/>
			<polygon fill="#E56353" points="71.2326736,29.4525738 65.9245071,29.4525738 70.6249695,37.9794426 77.4999619,37.9794426         "/>
		</g>
		<rect x="28.733469" y="22.5" fill="#3A556A" width="42.4992027" height="6.9525728"/>
		
			<rect x="47.5070648" y="5.7266798" transform="matrix(-1.836970e-16 1 -1 -1.836970e-16 75.9595718 -24.0071907)" fill="#64798A" width="4.9526367" height="40.4990234"/>
	</g>
</g>
</svg>
