<svg xmlns="http://www.w3.org/2000/svg" xmlns:xlink="http://www.w3.org/1999/xlink" width="120" height="120" viewBox="0 0 120 120">
  <defs>
    <clipPath id="clip-path">
      <rect id="Rectangle_1348" data-name="Rectangle 1348" width="120" height="120" transform="translate(98 586)" fill="#fff" stroke="#707070" stroke-width="1"/>
    </clipPath>
  </defs>
  <g id="Mask_Group_163" data-name="Mask Group 163" transform="translate(-98 -586)" opacity="0.4" clip-path="url(#clip-path)">
    <g id="coronavirus_2_" data-name="coronavirus (2)" transform="translate(98 586.187)">
      <g id="Group_2247" data-name="Group 2247" transform="translate(1.986 39.832)">
        <g id="Group_2243" data-name="Group 2243">
          <g id="Group_2241" data-name="Group 2241" transform="translate(0.284 0.28)">
            <path id="Path_5587" data-name="Path 5587" d="M8.493,31.427a4.766,4.766,0,0,0,1.415-.083,8.247,8.247,0,0,0,1.657,1.934c.308.148.08-1.321-.154-2.53a4.723,4.723,0,0,0,1.07-.888,12.29,12.29,0,0,0,3.894.565c.481-.143-1.436-1.637-2.8-2.644a4.749,4.749,0,0,0,.118-1.465,17.959,17.959,0,0,0,3.816-2.2c.344-.416-2.282-.14-4.458.15a4.738,4.738,0,0,0-.962-1.17,9.641,9.641,0,0,0,.622-3.156c-.1-.39-1.434,1.23-2.219,2.228a4.741,4.741,0,0,0-.841-.207,10.945,10.945,0,0,0-1.289-3.12c-.33-.317-.653,1.657-.859,3.286a4.793,4.793,0,0,0-.955.423,8.253,8.253,0,0,0-2.068-1.492c-.347-.074.277,1.409.8,2.548a4.792,4.792,0,0,0-.541.8c-.022.04-.038.082-.059.123a14.577,14.577,0,0,0-3.546-.2c-.456.131,1.285,1.114,3.044,2.02a4.754,4.754,0,0,0,.032.967,12.61,12.61,0,0,0-2.868,2.94c-.164.472,2.151-.207,3.766-.731a4.734,4.734,0,0,0,1.084,1.058A12.911,12.911,0,0,0,6.63,34.9C6.9,35.336,7.875,33.012,8.493,31.427Z" transform="translate(-1.059 -18.806)" fill="#fff"/>
          </g>
          <g id="Group_2242" data-name="Group 2242">
            <path id="Path_5588" data-name="Path 5588" d="M6.865,35.385a.36.36,0,0,1-.323-.188,12.644,12.644,0,0,1-.489-4.334,5.009,5.009,0,0,1-.9-.866,15.212,15.212,0,0,1-3.405.843.563.563,0,0,1-.481-.185.372.372,0,0,1-.043-.346,12.243,12.243,0,0,1,2.835-2.974,5.071,5.071,0,0,1-.024-.675C.88,25.024.907,24.752.931,24.511a.358.358,0,0,1,.275-.309,2.756,2.756,0,0,1,.7-.063,23.3,23.3,0,0,1,2.764.229,5.1,5.1,0,0,1,.433-.655c-1.029-2.256-.891-2.472-.79-2.631a.37.37,0,0,1,.375-.15,7.642,7.642,0,0,1,2.048,1.424,5.072,5.072,0,0,1,.66-.29c.438-3.39.759-3.39,1.043-3.39a.378.378,0,0,1,.266.112,10.6,10.6,0,0,1,1.316,3.075,5.112,5.112,0,0,1,.52.127c1.776-2.241,2.071-2.241,2.25-2.241a.347.347,0,0,1,.341.27,9.271,9.271,0,0,1-.566,3.145,5.046,5.046,0,0,1,.779.948,32.764,32.764,0,0,1,3.664-.341c.5,0,.818.046.928.281a.362.362,0,0,1-.063.391,17.4,17.4,0,0,1-3.741,2.2,5,5,0,0,1-.1,1.173c2.94,2.175,2.881,2.513,2.842,2.738a.372.372,0,0,1-.27.293,1.659,1.659,0,0,1-.452.047,16,16,0,0,1-3.434-.565,4.992,4.992,0,0,1-.847.705c.421,2.229.258,2.426.149,2.558a.346.346,0,0,1-.267.128.49.49,0,0,1-.162-.038A7.676,7.676,0,0,1,9.931,31.8a5.012,5.012,0,0,1-1.1.067C7.453,35.373,7.112,35.385,6.865,35.385Zm-1.607-6a.279.279,0,0,1,.225.114A4.444,4.444,0,0,0,6.5,30.5a.283.283,0,0,1,.119.251,15.2,15.2,0,0,0,.307,3.92,18.74,18.74,0,0,0,1.453-3.193A.274.274,0,0,1,8.67,31.3,4.469,4.469,0,0,0,10,31.219a.28.28,0,0,1,.291.119,12.1,12.1,0,0,0,1.29,1.624,15.305,15.305,0,0,0-.3-2.01.281.281,0,0,1,.13-.293,4.458,4.458,0,0,0,1.007-.835.283.283,0,0,1,.288-.082,15.731,15.731,0,0,0,3.443.59h.037a18.355,18.355,0,0,0-2.636-2.172.28.28,0,0,1-.107-.292,4.446,4.446,0,0,0,.111-1.378.28.28,0,0,1,.162-.277,25.027,25.027,0,0,0,3.424-1.876l-.138,0a34.223,34.223,0,0,0-3.772.36.277.277,0,0,1-.28-.137,4.432,4.432,0,0,0-.905-1.1.28.28,0,0,1-.077-.311,12.053,12.053,0,0,0,.614-2.66,19.68,19.68,0,0,0-1.728,2.006.282.282,0,0,1-.313.092,4.433,4.433,0,0,0-.791-.2.281.281,0,0,1-.228-.2A14.46,14.46,0,0,0,8.461,19.4a16.194,16.194,0,0,0-.531,2.913.281.281,0,0,1-.194.233,4.5,4.5,0,0,0-.9.4.279.279,0,0,1-.33-.037,12.2,12.2,0,0,0-1.637-1.276,15.864,15.864,0,0,0,.816,2.007.28.28,0,0,1-.04.3,4.546,4.546,0,0,0-.51.75l-.054.115a.277.277,0,0,1-.29.153A23.861,23.861,0,0,0,1.905,24.7l-.157,0a24.041,24.041,0,0,0,2.708,1.539.281.281,0,0,1,.152.269,4.46,4.46,0,0,0,.03.909.281.281,0,0,1-.109.262,15.427,15.427,0,0,0-2.645,2.587A19.643,19.643,0,0,0,5.171,29.4.277.277,0,0,1,5.258,29.388Z" transform="translate(-0.927 -18.675)" fill="#241726"/>
          </g>
        </g>
        <g id="Group_2244" data-name="Group 2244" transform="translate(8.202 4.931)">
          <path id="Path_5589" data-name="Path 5589" d="M6.7,22.75a.281.281,0,0,1-.274-.222,1.237,1.237,0,0,0-.5-.834,1.211,1.211,0,0,0-.822-.135.281.281,0,0,1-.131-.547,1.77,1.77,0,0,1,1.252.206,1.772,1.772,0,0,1,.755,1.191.281.281,0,0,1-.216.334A.256.256,0,0,1,6.7,22.75Z" transform="translate(-4.755 -20.977)" fill="#241726"/>
        </g>
        <g id="Group_2245" data-name="Group 2245" transform="translate(5.621 5.734)">
          <path id="Path_5590" data-name="Path 5590" d="M5.821,22.968a.281.281,0,0,1-.267-.195,1.175,1.175,0,0,0-.623-.8,1.3,1.3,0,0,0-.964.1.281.281,0,1,1-.273-.491,1.858,1.858,0,0,1,1.443-.132A1.7,1.7,0,0,1,6.088,22.6a.28.28,0,0,1-.267.367Z" transform="translate(-3.55 -21.351)" fill="#241726"/>
        </g>
        <g id="Group_2246" data-name="Group 2246" transform="translate(9.493 7.218)">
          <path id="Path_5591" data-name="Path 5591" d="M6.713,24.488a.281.281,0,0,1-.263-.38,1.086,1.086,0,0,0,.007-.935,1.442,1.442,0,0,0-.873-.572.281.281,0,1,1,.107-.551,1.982,1.982,0,0,1,1.257.85,1.616,1.616,0,0,1,.027,1.407A.282.282,0,0,1,6.713,24.488Z" transform="translate(-5.357 -22.044)" fill="#241726"/>
        </g>
      </g>
      <g id="Group_2254" data-name="Group 2254" transform="translate(59.049 0.886)">
        <g id="Group_2250" data-name="Group 2250">
          <g id="Group_2248" data-name="Group 2248" transform="translate(0.284 0.28)">
            <path id="Path_5592" data-name="Path 5592" d="M35.123,13.252a4.766,4.766,0,0,0,1.415-.083A8.247,8.247,0,0,0,38.194,15.1c.308.148.08-1.321-.154-2.53a4.723,4.723,0,0,0,1.07-.888A12.29,12.29,0,0,0,43,12.251c.481-.143-1.436-1.637-2.8-2.644a4.749,4.749,0,0,0,.118-1.465,17.96,17.96,0,0,0,3.816-2.2c.344-.416-2.282-.14-4.458.15a4.738,4.738,0,0,0-.962-1.17,9.641,9.641,0,0,0,.622-3.156c-.1-.39-1.434,1.23-2.219,2.228a4.741,4.741,0,0,0-.841-.207A10.938,10.938,0,0,0,34.988.665c-.33-.317-.653,1.657-.859,3.286a4.793,4.793,0,0,0-.955.423,8.252,8.252,0,0,0-2.068-1.492c-.347-.074.277,1.409.8,2.548a4.792,4.792,0,0,0-.541.8c-.022.04-.038.082-.059.123a14.578,14.578,0,0,0-3.546-.2c-.456.131,1.285,1.114,3.044,2.02a4.754,4.754,0,0,0,.032.967,12.61,12.61,0,0,0-2.868,2.94c-.164.472,2.151-.207,3.766-.731A4.734,4.734,0,0,0,32.82,12.4a12.911,12.911,0,0,0,.439,4.324C33.526,17.162,34.5,14.837,35.123,13.252Z" transform="translate(-27.689 -0.631)" fill="#fff"/>
          </g>
          <g id="Group_2249" data-name="Group 2249">
            <path id="Path_5593" data-name="Path 5593" d="M33.495,17.21a.349.349,0,0,1-.324-.187,12.644,12.644,0,0,1-.489-4.335,5.01,5.01,0,0,1-.9-.866,15.211,15.211,0,0,1-3.405.843.563.563,0,0,1-.481-.185.372.372,0,0,1-.043-.346,12.259,12.259,0,0,1,2.835-2.974,5.17,5.17,0,0,1-.024-.675C27.51,6.849,27.537,6.577,27.56,6.336a.358.358,0,0,1,.275-.309,2.756,2.756,0,0,1,.7-.062,23.214,23.214,0,0,1,2.764.229,5.129,5.129,0,0,1,.434-.656c-1.029-2.256-.891-2.472-.79-2.631a.372.372,0,0,1,.375-.151,7.64,7.64,0,0,1,2.048,1.424,5.127,5.127,0,0,1,.66-.29C34.463.5,34.784.5,35.068.5a.378.378,0,0,1,.266.112,10.6,10.6,0,0,1,1.316,3.075,5.112,5.112,0,0,1,.52.127c1.776-2.241,2.071-2.241,2.25-2.241a.346.346,0,0,1,.341.27,9.247,9.247,0,0,1-.566,3.145,5.009,5.009,0,0,1,.779.948A32.723,32.723,0,0,1,43.637,5.6c.5,0,.818.046.928.281a.362.362,0,0,1-.063.391,17.382,17.382,0,0,1-3.741,2.2,5,5,0,0,1-.1,1.173c2.94,2.175,2.881,2.513,2.842,2.738a.372.372,0,0,1-.27.293,1.659,1.659,0,0,1-.452.047,16.015,16.015,0,0,1-3.434-.565,5.018,5.018,0,0,1-.847.705c.421,2.229.258,2.426.149,2.558a.346.346,0,0,1-.267.128.5.5,0,0,1-.162-.038,7.676,7.676,0,0,1-1.663-1.878,5.083,5.083,0,0,1-1.1.068C34.085,17.193,33.729,17.21,33.495,17.21Zm-1.607-6a.279.279,0,0,1,.225.114,4.46,4.46,0,0,0,1.02,1,.282.282,0,0,1,.119.251,15.2,15.2,0,0,0,.307,3.92A18.65,18.65,0,0,0,35.012,13.3a.277.277,0,0,1,.288-.178,4.437,4.437,0,0,0,1.331-.078.28.28,0,0,1,.291.119,12.142,12.142,0,0,0,1.29,1.624,15.133,15.133,0,0,0-.3-2.01.281.281,0,0,1,.13-.293,4.466,4.466,0,0,0,1.007-.835.284.284,0,0,1,.288-.082,15.75,15.75,0,0,0,3.443.59h.038a18.386,18.386,0,0,0-2.636-2.172.28.28,0,0,1-.107-.292,4.446,4.446,0,0,0,.111-1.378.28.28,0,0,1,.162-.277,24.973,24.973,0,0,0,3.424-1.876l-.138,0a34.138,34.138,0,0,0-3.772.36.275.275,0,0,1-.28-.137,4.462,4.462,0,0,0-.9-1.1.28.28,0,0,1-.077-.311,12.037,12.037,0,0,0,.613-2.66A19.738,19.738,0,0,0,37.49,4.317a.28.28,0,0,1-.313.092,4.458,4.458,0,0,0-.791-.2.281.281,0,0,1-.228-.2,14.46,14.46,0,0,0-1.068-2.788,16.2,16.2,0,0,0-.531,2.913.281.281,0,0,1-.194.233,4.519,4.519,0,0,0-.9.4.281.281,0,0,1-.33-.037A12.142,12.142,0,0,0,31.5,3.455a15.894,15.894,0,0,0,.816,2.007.28.28,0,0,1-.04.3,4.547,4.547,0,0,0-.51.75l-.055.117a.276.276,0,0,1-.289.151,23.843,23.843,0,0,0-2.887-.251l-.156,0a24.022,24.022,0,0,0,2.707,1.539.281.281,0,0,1,.152.269,4.529,4.529,0,0,0,.03.91.279.279,0,0,1-.109.262A15.489,15.489,0,0,0,28.514,12.1a19.6,19.6,0,0,0,3.288-.87A.268.268,0,0,1,31.888,11.213Z" transform="translate(-27.556 -0.501)" fill="#241726"/>
          </g>
        </g>
        <g id="Group_2251" data-name="Group 2251" transform="translate(8.202 4.932)">
          <path id="Path_5594" data-name="Path 5594" d="M33.331,4.575a.281.281,0,0,1-.274-.222,1.236,1.236,0,0,0-.5-.834,1.207,1.207,0,0,0-.821-.135.281.281,0,0,1-.132-.547,1.771,1.771,0,0,1,1.252.206,1.772,1.772,0,0,1,.755,1.191.281.281,0,0,1-.216.334A.254.254,0,0,1,33.331,4.575Z" transform="translate(-31.384 -2.802)" fill="#241726"/>
        </g>
        <g id="Group_2252" data-name="Group 2252" transform="translate(5.621 5.734)">
          <path id="Path_5595" data-name="Path 5595" d="M32.451,4.793a.281.281,0,0,1-.267-.195,1.176,1.176,0,0,0-.622-.8,1.308,1.308,0,0,0-.964.1.281.281,0,1,1-.273-.491,1.855,1.855,0,0,1,1.444-.132,1.7,1.7,0,0,1,.95,1.152.281.281,0,0,1-.181.354A.3.3,0,0,1,32.451,4.793Z" transform="translate(-30.179 -3.176)" fill="#241726"/>
        </g>
        <g id="Group_2253" data-name="Group 2253" transform="translate(9.494 7.219)">
          <path id="Path_5596" data-name="Path 5596" d="M33.343,6.314a.281.281,0,0,1-.263-.38A1.089,1.089,0,0,0,33.088,5a1.431,1.431,0,0,0-.876-.575.281.281,0,0,1-.221-.33.277.277,0,0,1,.328-.221,1.983,1.983,0,0,1,1.257.85,1.618,1.618,0,0,1,.028,1.407A.281.281,0,0,1,33.343,6.314Z" transform="translate(-31.987 -3.869)" fill="#241726"/>
        </g>
      </g>
      <g id="Group_2261" data-name="Group 2261" transform="translate(102.247 63.323)">
        <g id="Group_2257" data-name="Group 2257">
          <g id="Group_2255" data-name="Group 2255" transform="translate(0.284 0.28)">
            <path id="Path_5597" data-name="Path 5597" d="M55.282,42.389a4.766,4.766,0,0,0,1.415-.083,8.246,8.246,0,0,0,1.657,1.934c.308.148.08-1.321-.154-2.53a4.723,4.723,0,0,0,1.07-.888,12.29,12.29,0,0,0,3.894.565c.481-.143-1.436-1.637-2.8-2.644a4.749,4.749,0,0,0,.118-1.465,17.959,17.959,0,0,0,3.816-2.2c.344-.416-2.282-.14-4.458.15a4.734,4.734,0,0,0-.962-1.17A9.641,9.641,0,0,0,59.5,30.9c-.1-.39-1.434,1.23-2.219,2.228a4.74,4.74,0,0,0-.841-.207,10.945,10.945,0,0,0-1.289-3.12c-.33-.317-.653,1.657-.859,3.286a4.792,4.792,0,0,0-.955.423,8.253,8.253,0,0,0-2.068-1.492c-.347-.074.277,1.409.8,2.548a4.791,4.791,0,0,0-.541.8c-.022.04-.038.082-.059.123a14.578,14.578,0,0,0-3.546-.2c-.456.131,1.285,1.114,3.044,2.02a4.754,4.754,0,0,0,.032.967,12.61,12.61,0,0,0-2.868,2.94c-.164.472,2.151-.207,3.766-.731a4.734,4.734,0,0,0,1.084,1.058,12.911,12.911,0,0,0,.439,4.324C53.685,46.3,54.663,43.974,55.282,42.389Z" transform="translate(-47.847 -29.769)" fill="#fff"/>
          </g>
          <g id="Group_2256" data-name="Group 2256">
            <path id="Path_5598" data-name="Path 5598" d="M53.654,46.347h0a.373.373,0,0,1-.32-.187,12.653,12.653,0,0,1-.49-4.335,5.022,5.022,0,0,1-.895-.866,15.211,15.211,0,0,1-3.405.843.563.563,0,0,1-.481-.185.372.372,0,0,1-.043-.346A12.233,12.233,0,0,1,50.85,38.3a5.077,5.077,0,0,1-.024-.675c-3.157-1.635-3.131-1.907-3.107-2.148a.358.358,0,0,1,.275-.309,2.756,2.756,0,0,1,.7-.062,23.234,23.234,0,0,1,2.764.229,5.122,5.122,0,0,1,.433-.656C50.861,32.419,51,32.2,51.1,32.045a.37.37,0,0,1,.375-.15,7.641,7.641,0,0,1,2.049,1.424,5.094,5.094,0,0,1,.66-.29c.437-3.391.759-3.391,1.043-3.391a.378.378,0,0,1,.266.112,10.592,10.592,0,0,1,1.316,3.076,5.017,5.017,0,0,1,.52.127c1.776-2.241,2.071-2.241,2.249-2.241a.347.347,0,0,1,.342.27,9.269,9.269,0,0,1-.566,3.145,5.054,5.054,0,0,1,.779.948,32.726,32.726,0,0,1,3.664-.341c.5,0,.817.046.928.281a.363.363,0,0,1-.063.391,17.388,17.388,0,0,1-3.742,2.2,5,5,0,0,1-.1,1.173c2.94,2.174,2.881,2.512,2.842,2.737a.372.372,0,0,1-.27.293,1.658,1.658,0,0,1-.452.048,16.014,16.014,0,0,1-3.434-.565,4.991,4.991,0,0,1-.847.705c.421,2.229.258,2.426.149,2.558a.346.346,0,0,1-.267.128.5.5,0,0,1-.162-.038,7.686,7.686,0,0,1-1.663-1.877,5.04,5.04,0,0,1-1.1.067C54.243,46.33,53.9,46.347,53.654,46.347Zm-1.608-6a.279.279,0,0,1,.225.114,4.457,4.457,0,0,0,1.019,1,.282.282,0,0,1,.119.251,15.216,15.216,0,0,0,.308,3.92,18.742,18.742,0,0,0,1.453-3.193.273.273,0,0,1,.288-.178,4.476,4.476,0,0,0,1.331-.078.28.28,0,0,1,.291.119,12.154,12.154,0,0,0,1.29,1.624,15.133,15.133,0,0,0-.3-2.01.281.281,0,0,1,.13-.293,4.458,4.458,0,0,0,1.007-.835A.284.284,0,0,1,59.5,40.7a15.75,15.75,0,0,0,3.443.59h.038a18.345,18.345,0,0,0-2.636-2.172.28.28,0,0,1-.107-.292,4.447,4.447,0,0,0,.111-1.379.28.28,0,0,1,.162-.277A24.972,24.972,0,0,0,63.934,35.3l-.138,0a34.188,34.188,0,0,0-3.772.36.277.277,0,0,1-.28-.137,4.441,4.441,0,0,0-.905-1.1.28.28,0,0,1-.077-.311,12.06,12.06,0,0,0,.614-2.66,19.691,19.691,0,0,0-1.728,2.006.281.281,0,0,1-.312.092,4.5,4.5,0,0,0-.791-.2.281.281,0,0,1-.228-.2,14.423,14.423,0,0,0-1.068-2.789,16.1,16.1,0,0,0-.531,2.913.281.281,0,0,1-.194.233,4.528,4.528,0,0,0-.9.4.281.281,0,0,1-.33-.037,12.181,12.181,0,0,0-1.637-1.276,15.959,15.959,0,0,0,.816,2.007.28.28,0,0,1-.04.3,4.567,4.567,0,0,0-.51.75L51.9,35.7l-.027.059a.278.278,0,0,1-.291.153,23.845,23.845,0,0,0-2.887-.251l-.157,0A24.113,24.113,0,0,0,51.244,37.2a.281.281,0,0,1,.152.269,4.463,4.463,0,0,0,.03.91.281.281,0,0,1-.109.263,15.435,15.435,0,0,0-2.645,2.587,19.6,19.6,0,0,0,3.288-.87A.287.287,0,0,1,52.046,40.35Z" transform="translate(-47.715 -29.638)" fill="#241726"/>
          </g>
        </g>
        <g id="Group_2258" data-name="Group 2258" transform="translate(8.202 4.932)">
          <path id="Path_5599" data-name="Path 5599" d="M53.49,33.713a.281.281,0,0,1-.274-.222,1.237,1.237,0,0,0-.5-.834,1.211,1.211,0,0,0-.822-.135.281.281,0,0,1-.131-.547,1.639,1.639,0,0,1,2.007,1.4.281.281,0,0,1-.216.334A.257.257,0,0,1,53.49,33.713Z" transform="translate(-51.543 -31.939)" fill="#241726"/>
        </g>
        <g id="Group_2259" data-name="Group 2259" transform="translate(5.621 5.733)">
          <path id="Path_5600" data-name="Path 5600" d="M52.609,33.93a.281.281,0,0,1-.267-.195,1.177,1.177,0,0,0-.623-.8,1.3,1.3,0,0,0-.964.1.281.281,0,1,1-.273-.491,1.859,1.859,0,0,1,1.443-.132,1.7,1.7,0,0,1,.951,1.152.281.281,0,0,1-.181.354A.277.277,0,0,1,52.609,33.93Z" transform="translate(-50.338 -32.313)" fill="#241726"/>
        </g>
        <g id="Group_2260" data-name="Group 2260" transform="translate(9.493 7.218)">
          <path id="Path_5601" data-name="Path 5601" d="M53.5,35.451a.281.281,0,0,1-.263-.38,1.086,1.086,0,0,0,.007-.935,1.442,1.442,0,0,0-.873-.572.281.281,0,1,1,.107-.551,1.983,1.983,0,0,1,1.257.85,1.616,1.616,0,0,1,.027,1.407A.282.282,0,0,1,53.5,35.451Z" transform="translate(-52.145 -33.006)" fill="#241726"/>
        </g>
      </g>
      <g id="Group_2262" data-name="Group 2262" transform="translate(0 72.746)">
        <path id="Path_5602" data-name="Path 5602" d="M1.943,37.92H1.935a1.946,1.946,0,1,1,.008,0ZM1.949,34.6a1.381,1.381,0,1,0-.012,2.761h.006A1.381,1.381,0,0,0,1.949,34.6Z" transform="translate(0 -34.035)" fill="#241726"/>
      </g>
      <g id="Group_2263" data-name="Group 2263" transform="translate(91.976 60.753)">
        <path id="Path_5603" data-name="Path 5603" d="M44.864,32.323h-.008a1.946,1.946,0,1,1,.008,0ZM44.87,29a1.381,1.381,0,1,0-.012,2.761h.006A1.381,1.381,0,0,0,44.87,29Z" transform="translate(-42.922 -28.438)" fill="#241726"/>
      </g>
      <g id="Group_2264" data-name="Group 2264" transform="translate(46.655 1.949)">
        <path id="Path_5604" data-name="Path 5604" d="M23.715,4.882h-.008a1.947,1.947,0,1,1,.008,0Zm.006-3.323a1.381,1.381,0,0,0-.012,2.761h.006a1.381,1.381,0,0,0,.006-2.761Z" transform="translate(-21.773 -0.997)" fill="#241726"/>
      </g>
      <g id="Group_2267" data-name="Group 2267" transform="translate(101.379 35.769)">
        <g id="Group_2265" data-name="Group 2265" transform="translate(0.283 0.28)">
          <path id="Path_5605" data-name="Path 5605" d="M51.4,19.972S51,15.724,55.017,17.234s2.561,5.335,1.056,3.956,1.562-5.77,4.607-3.661,2.213,5.967-.007,6.176,1.495-4.473,4.174-1.408-3.585,8.265-6,6.189-.359-5.22.169-3.242-1.147,3.841-5.55,3.611-2.162-6.939-.69-4.912-1.163,4.165-4.191,1.732S49.27,18.56,51.4,19.972Z" transform="translate(-47.442 -16.91)" fill="#fff"/>
        </g>
        <g id="Group_2266" data-name="Group 2266">
          <path id="Path_5606" data-name="Path 5606" d="M60.391,29.393a2.344,2.344,0,0,1-1.576-.544,3.975,3.975,0,0,1-.508-.522,7.552,7.552,0,0,1-4.705.959,2.755,2.755,0,0,1-2.747-2.138,5.027,5.027,0,0,1-2.295-1.1,3.219,3.219,0,0,1-1.024-3.762,3.857,3.857,0,0,1,3.15-2.7,1.863,1.863,0,0,1,.58.09A3.521,3.521,0,0,1,52,17.449c.69-.761,1.8-.878,3.267-.329a5.556,5.556,0,0,1,1.45.787,3.515,3.515,0,0,1,2.424-1.073,3.217,3.217,0,0,1,1.85.613,4.607,4.607,0,0,1,2.1,3.68A3.143,3.143,0,0,1,65.572,25.7C64.678,27.665,62.257,29.393,60.391,29.393Zm-1.653-1.426a3.444,3.444,0,0,0,.443.455,1.8,1.8,0,0,0,1.21.409,6,6,0,0,0,4.67-3.368,2.519,2.519,0,0,0-.275-2.832,2.493,2.493,0,0,0-1.725-.943,2.62,2.62,0,0,1-2.211,2.446c-.058.005-.113.008-.164.008h0c-.593,0-.813-.352-.82-.682-.018-.783,1.2-2.107,2.667-2.311a4.049,4.049,0,0,0-1.862-3.24,2.663,2.663,0,0,0-1.53-.514,2.94,2.94,0,0,0-2,.885,2.73,2.73,0,0,1,.787,2.793,1.171,1.171,0,0,1-1.051.842h0a1.255,1.255,0,0,1-.839-.368c-.831-.761-.5-2.179.307-3.219a5.018,5.018,0,0,0-1.272-.681c-1.228-.461-2.118-.406-2.652.179a3.44,3.44,0,0,0-.581,2.269.281.281,0,0,1-.435.261,1.278,1.278,0,0,0-.716-.214,3.327,3.327,0,0,0-2.62,2.327,2.672,2.672,0,0,0,.847,3.138,4.63,4.63,0,0,0,1.85.952,3.951,3.951,0,0,1,.724-2.663,1.118,1.118,0,0,1,.84-.464,1.022,1.022,0,0,1,.829.5,2.027,2.027,0,0,1,.28,2.152A2.191,2.191,0,0,1,51.45,27.19a2.165,2.165,0,0,0,2.182,1.534,7.011,7.011,0,0,0,4.358-.862,2.944,2.944,0,0,1-.146-2.76.988.988,0,0,1,.809-.619c.211,0,.592.109.787.836A2.655,2.655,0,0,1,58.738,27.967Zm-.087-2.92c-.055,0-.189.087-.313.32a2.349,2.349,0,0,0,.084,2.118,2.077,2.077,0,0,0,.472-2.018C58.814,25.16,58.7,25.047,58.652,25.047Zm-7.319,1.582a1.665,1.665,0,0,0,1.6-.8,1.489,1.489,0,0,0-.234-1.566c-.088-.121-.224-.265-.374-.265a.6.6,0,0,0-.408.262A3.428,3.428,0,0,0,51.333,26.629Zm11.155-4.9a2.664,2.664,0,0,0-2.06,1.723c0,.049,0,.132.259.132h0c.035,0,.072,0,.112-.005A2.045,2.045,0,0,0,62.487,21.725ZM56.763,18.7c-.7.907-.866,1.959-.349,2.432.4.364.8.239.985-.257A2.157,2.157,0,0,0,56.763,18.7Z" transform="translate(-47.31 -16.779)" fill="#241726"/>
        </g>
      </g>
      <g id="Group_2270" data-name="Group 2270" transform="translate(26.469 8.427)">
        <g id="Group_2268" data-name="Group 2268" transform="translate(0.284 0.279)">
          <path id="Path_5607" data-name="Path 5607" d="M16.447,7.212s-.409-4.247,3.612-2.737,2.561,5.335,1.056,3.956,1.562-5.77,4.607-3.661,2.212,5.967-.007,6.176,1.495-4.473,4.174-1.408-3.585,8.265-6,6.189-.359-5.22.169-3.242-1.147,3.841-5.55,3.611-2.162-6.939-.69-4.912-1.163,4.165-4.191,1.732S14.312,5.8,16.447,7.212Z" transform="translate(-12.485 -4.15)" fill="#fff"/>
        </g>
        <g id="Group_2269" data-name="Group 2269">
          <path id="Path_5608" data-name="Path 5608" d="M25.433,16.633a2.344,2.344,0,0,1-1.576-.544,4.017,4.017,0,0,1-.508-.521,7.553,7.553,0,0,1-4.7.959A2.755,2.755,0,0,1,15.9,14.388a5.025,5.025,0,0,1-2.3-1.1,3.218,3.218,0,0,1-1.024-3.761,3.857,3.857,0,0,1,3.15-2.7,1.863,1.863,0,0,1,.58.09,3.517,3.517,0,0,1,.736-2.22c.689-.76,1.8-.879,3.266-.329a5.556,5.556,0,0,1,1.45.787,3.515,3.515,0,0,1,2.424-1.073,3.218,3.218,0,0,1,1.851.613,4.609,4.609,0,0,1,2.1,3.68,3.143,3.143,0,0,1,2.479,4.568C29.721,14.905,27.3,16.633,25.433,16.633ZM23.78,15.207a3.487,3.487,0,0,0,.443.455,1.8,1.8,0,0,0,1.21.409A6,6,0,0,0,30.1,12.7a2.519,2.519,0,0,0-.275-2.832A2.493,2.493,0,0,0,28.1,8.928a2.621,2.621,0,0,1-2.211,2.446c-.727.071-.977-.315-.985-.673-.018-.783,1.2-2.106,2.667-2.312a4.051,4.051,0,0,0-1.862-3.24,2.664,2.664,0,0,0-1.53-.514,2.94,2.94,0,0,0-2,.885,2.73,2.73,0,0,1,.787,2.793,1.171,1.171,0,0,1-1.052.842h0a1.258,1.258,0,0,1-.84-.368c-.83-.761-.5-2.179.308-3.219a5.019,5.019,0,0,0-1.272-.681c-1.23-.462-2.121-.405-2.653.181a3.424,3.424,0,0,0-.581,2.266.281.281,0,0,1-.435.261,1.278,1.278,0,0,0-.716-.214,3.328,3.328,0,0,0-2.62,2.327,2.671,2.671,0,0,0,.847,3.137A4.633,4.633,0,0,0,15.8,13.8a3.953,3.953,0,0,1,.724-2.663,1.118,1.118,0,0,1,.84-.464,1.022,1.022,0,0,1,.829.5,2.027,2.027,0,0,1,.28,2.152,2.19,2.19,0,0,1-1.984,1.11,2.165,2.165,0,0,0,2.182,1.534,7.032,7.032,0,0,0,4.358-.861,2.945,2.945,0,0,1-.147-2.76.99.99,0,0,1,.809-.619c.211,0,.592.109.787.836A2.652,2.652,0,0,1,23.78,15.207Zm-.087-2.921c-.055,0-.189.087-.313.32a2.347,2.347,0,0,0,.085,2.118,2.079,2.079,0,0,0,.472-2.019C23.856,12.4,23.745,12.287,23.694,12.287Zm-7.319,1.582a1.686,1.686,0,0,0,1.6-.8,1.489,1.489,0,0,0-.234-1.566c-.088-.121-.224-.265-.374-.265a.6.6,0,0,0-.408.262A3.424,3.424,0,0,0,16.375,13.869Zm11.154-4.9a2.665,2.665,0,0,0-2.06,1.723c0,.05,0,.132.259.132.035,0,.072,0,.112-.005A2.044,2.044,0,0,0,27.529,8.965ZM21.8,5.94c-.7.907-.866,1.959-.349,2.432.395.363.8.24.985-.257A2.157,2.157,0,0,0,21.8,5.94Z" transform="translate(-12.352 -4.02)" fill="#241726"/>
        </g>
      </g>
      <g id="Group_2271" data-name="Group 2271" transform="translate(10.64 4.067)">
        <path id="Path_5609" data-name="Path 5609" d="M8.071,8.375c-.209,0-.407,0-.96-2.2-1.868-.359-2.031-.578-2.085-.652a.368.368,0,0,1-.051-.283c.034-.119.112-.4,2.245-1.255.766-2,1.024-2,1.2-2a.385.385,0,0,1,.264.135,5.466,5.466,0,0,1,.448,1.424c.06.241.131.533.173.66.111.05.359.139.565.213,1.1.393,1.378.526,1.429.787a.373.373,0,0,1-.1.305,9.92,9.92,0,0,1-1.84.791c-.9,2.055-1.095,2.065-1.265,2.074Zm-2.333-3.1c.372.108,1.057.263,1.654.375a.281.281,0,0,1,.221.209c.153.618.352,1.323.5,1.721.207-.371.522-1.034.777-1.62a.281.281,0,0,1,.164-.153c.51-.18,1.087-.4,1.444-.557-.251-.106-.595-.229-.817-.309-.626-.224-.743-.273-.824-.38a3.107,3.107,0,0,1-.27-.887c-.059-.24-.15-.608-.23-.882A15.341,15.341,0,0,0,7.7,4.3a.281.281,0,0,1-.159.161A18.173,18.173,0,0,0,5.738,5.278Z" transform="translate(-4.965 -1.985)" fill="#241726"/>
      </g>
      <g id="Group_2272" data-name="Group 2272" transform="translate(109.896 21.671)">
        <path id="Path_5610" data-name="Path 5610" d="M54.39,16.59c-.209,0-.406,0-.959-2.2-1.868-.359-2.031-.578-2.085-.652a.367.367,0,0,1-.051-.283c.034-.119.111-.4,2.245-1.256.766-2,1.024-2,1.2-2a.385.385,0,0,1,.264.135,5.49,5.49,0,0,1,.449,1.427c.059.24.131.531.172.657.111.05.36.139.566.213,1.1.393,1.378.526,1.429.787a.373.373,0,0,1-.1.305,9.906,9.906,0,0,1-1.84.791c-.9,2.055-1.095,2.065-1.265,2.074Zm-2.332-3.1c.372.108,1.057.264,1.654.375a.281.281,0,0,1,.221.209c.153.618.352,1.323.5,1.722.207-.371.522-1.034.778-1.62a.28.28,0,0,1,.164-.153c.51-.179,1.087-.4,1.444-.556-.251-.106-.595-.229-.817-.309-.626-.224-.743-.273-.824-.38A3.075,3.075,0,0,1,54.9,11.9c-.059-.24-.15-.61-.23-.885a15.362,15.362,0,0,0-.652,1.5.281.281,0,0,1-.159.161A18.108,18.108,0,0,0,52.058,13.493Z" transform="translate(-51.285 -10.2)" fill="#241726"/>
      </g>
      <g id="Group_2273" data-name="Group 2273" transform="translate(3.801 96.065)">
        <path id="Path_5611" data-name="Path 5611" d="M4.88,51.308c-.209,0-.407,0-.96-2.2-1.867-.359-2.031-.578-2.085-.652a.367.367,0,0,1-.051-.283c.034-.119.111-.4,2.245-1.256.766-2,1.024-2,1.2-2a.385.385,0,0,1,.264.135,5.493,5.493,0,0,1,.449,1.427c.059.24.131.531.172.658.112.05.36.139.566.213,1.1.393,1.378.526,1.429.787a.373.373,0,0,1-.1.305,9.921,9.921,0,0,1-1.84.791c-.9,2.055-1.095,2.065-1.265,2.074Zm-2.333-3.1c.372.108,1.057.264,1.654.375a.281.281,0,0,1,.221.209c.153.618.352,1.323.5,1.722.207-.371.522-1.034.778-1.62a.28.28,0,0,1,.164-.153c.51-.18,1.087-.4,1.443-.557-.25-.106-.594-.229-.816-.309-.626-.225-.745-.273-.825-.381a3.106,3.106,0,0,1-.269-.884c-.059-.24-.15-.61-.23-.885a15.34,15.34,0,0,0-.652,1.5.281.281,0,0,1-.159.161A18.137,18.137,0,0,0,2.547,48.211Z" transform="translate(-1.774 -44.918)" fill="#241726"/>
      </g>
      <g id="Group_2278" data-name="Group 2278" transform="translate(9.086 64.287)">
        <g id="Group_2274" data-name="Group 2274" transform="translate(2.497)">
          <path id="Path_5612" data-name="Path 5612" d="M5.686,35.487h0A.281.281,0,0,1,5.4,35.2l.029-4.837a.281.281,0,0,1,.281-.279h0A.281.281,0,0,1,6,30.37l-.029,4.837A.282.282,0,0,1,5.686,35.487Z" transform="translate(-5.405 -30.088)" fill="#241726"/>
        </g>
        <g id="Group_2275" data-name="Group 2275" transform="translate(0.547 0.997)">
          <path id="Path_5613" data-name="Path 5613" d="M4.776,33.9a.281.281,0,0,1-.161-.511L8.61,30.6a.281.281,0,0,1,.322.461L4.937,33.849A.279.279,0,0,1,4.776,33.9Z" transform="translate(-4.495 -30.553)" fill="#241726"/>
        </g>
        <g id="Group_2276" data-name="Group 2276" transform="translate(1.034 0.794)">
          <path id="Path_5614" data-name="Path 5614" d="M8.023,34.211a.28.28,0,0,1-.2-.088L4.8,30.932a.281.281,0,1,1,.408-.386l3.02,3.191a.281.281,0,0,1-.2.474Z" transform="translate(-4.723 -30.458)" fill="#241726"/>
        </g>
        <g id="Group_2277" data-name="Group 2277" transform="translate(0 2.323)">
          <path id="Path_5615" data-name="Path 5615" d="M4.521,31.778a.281.281,0,0,1,0-.562l4.653-.045a.287.287,0,0,1,.284.278.281.281,0,0,1-.278.284l-4.653.045Z" transform="translate(-4.24 -31.172)" fill="#241726"/>
        </g>
      </g>
      <g id="Group_2283" data-name="Group 2283" transform="translate(113.18 106.746)">
        <g id="Group_2279" data-name="Group 2279" transform="translate(2.496)">
          <path id="Path_5616" data-name="Path 5616" d="M54.263,55.3h0a.281.281,0,0,1-.279-.283l.029-4.837a.281.281,0,0,1,.281-.279h0a.281.281,0,0,1,.279.283l-.029,4.837A.281.281,0,0,1,54.263,55.3Z" transform="translate(-53.982 -49.902)" fill="#241726"/>
        </g>
        <g id="Group_2280" data-name="Group 2280" transform="translate(0.547 0.997)">
          <path id="Path_5617" data-name="Path 5617" d="M53.353,53.714a.281.281,0,0,1-.161-.511l3.995-2.785a.281.281,0,1,1,.322.461l-3.995,2.785A.279.279,0,0,1,53.353,53.714Z" transform="translate(-53.072 -50.367)" fill="#241726"/>
        </g>
        <g id="Group_2281" data-name="Group 2281" transform="translate(1.034 0.794)">
          <path id="Path_5618" data-name="Path 5618" d="M56.6,54.026a.28.28,0,0,1-.2-.088l-3.02-3.191a.281.281,0,1,1,.408-.386l3.02,3.191a.281.281,0,0,1-.2.474Z" transform="translate(-53.3 -50.272)" fill="#241726"/>
        </g>
        <g id="Group_2282" data-name="Group 2282" transform="translate(0 2.323)">
          <path id="Path_5619" data-name="Path 5619" d="M53.1,51.592a.281.281,0,0,1,0-.562l4.653-.045a.281.281,0,1,1,.005.562l-4.653.045Z" transform="translate(-52.817 -50.986)" fill="#241726"/>
        </g>
      </g>
      <g id="Group_2288" data-name="Group 2288" transform="translate(83.965 0)">
        <g id="Group_2284" data-name="Group 2284" transform="translate(2.497)">
          <path id="Path_5620" data-name="Path 5620" d="M40.63,5.486h0a.281.281,0,0,1-.279-.283L40.378.366a.281.281,0,0,1,.281-.279h0A.281.281,0,0,1,40.94.37l-.029,4.837A.282.282,0,0,1,40.63,5.486Z" transform="translate(-40.349 -0.087)" fill="#241726"/>
        </g>
        <g id="Group_2285" data-name="Group 2285" transform="translate(0.547 0.997)">
          <path id="Path_5621" data-name="Path 5621" d="M39.72,3.9a.281.281,0,0,1-.161-.511L43.554.6a.281.281,0,1,1,.322.461L39.88,3.848A.281.281,0,0,1,39.72,3.9Z" transform="translate(-39.439 -0.552)" fill="#241726"/>
        </g>
        <g id="Group_2286" data-name="Group 2286" transform="translate(1.034 0.793)">
          <path id="Path_5622" data-name="Path 5622" d="M42.967,4.211a.28.28,0,0,1-.2-.088L39.743.931a.281.281,0,0,1,.408-.386l3.02,3.191a.281.281,0,0,1-.2.474Z" transform="translate(-39.666 -0.457)" fill="#241726"/>
        </g>
        <g id="Group_2287" data-name="Group 2287" transform="translate(0 2.323)">
          <path id="Path_5623" data-name="Path 5623" d="M39.465,1.777a.281.281,0,0,1,0-.562l4.653-.045h0a.281.281,0,0,1,0,.562l-4.653.045Z" transform="translate(-39.184 -1.171)" fill="#241726"/>
        </g>
      </g>
      <g id="Group_2291" data-name="Group 2291" transform="translate(3.522 15.335)">
        <g id="Group_2289" data-name="Group 2289">
          <path id="Path_5624" data-name="Path 5624" d="M8.628,19.249c-.843,0-5.621-8.6-6.383-10.126A10.458,10.458,0,0,1,1.738,8a.926.926,0,0,1-.086-.466c.051-.245.31-.29.52-.29,1.646,0,12.253,2.325,12.97,3.325a.378.378,0,0,1,.061.351c-.3.881-2.657,1.738-3.126,1.9a.28.28,0,0,1-.225-.018c-2.727-1.459-6.819-3.6-8.79-4.521,1.564,1.334,4.877,3.928,7.121,5.648a.28.28,0,0,1,.106.268C9.474,19.239,8.84,19.247,8.628,19.249ZM2.621,8.631a82.656,82.656,0,0,0,6,10,19.281,19.281,0,0,0,1.088-4.353C5.64,11.153,3.619,9.514,2.621,8.631ZM3.771,8c2.419,1.152,6.556,3.349,8.238,4.247a7.284,7.284,0,0,0,2.612-1.412C13.755,10.194,7.085,8.566,3.771,8Z" transform="translate(-1.644 -7.243)" fill="#241726"/>
        </g>
        <g id="Group_2290" data-name="Group 2290" transform="translate(7.777 5.132)">
          <path id="Path_5625" data-name="Path 5625" d="M7.261,14.646H7.242c-.559-.019-1.592-1.092-1.894-1.421a.281.281,0,0,1,.412-.381,5.853,5.853,0,0,0,1.448,1.229,26.08,26.08,0,0,0,.33-4.16.3.3,0,0,1,.288-.274.281.281,0,0,1,.274.288c-.046,1.916-.175,4.269-.527,4.6A.442.442,0,0,1,7.261,14.646Z" transform="translate(-5.273 -9.638)" fill="#241726"/>
        </g>
      </g>
      <g id="Group_2294" data-name="Group 2294" transform="translate(96.369 4.541)">
        <g id="Group_2292" data-name="Group 2292">
          <path id="Path_5626" data-name="Path 5626" d="M53.34,15.473c-.534,0-1.458-1.516-2.747-4.507a.28.28,0,0,1,.038-.285C52.4,8.45,55.005,5.1,56.185,3.434,54.539,4.787,51.049,7.9,48.738,9.994a.281.281,0,0,1-.214.072c-.495-.044-2.99-.3-3.494-1.082a.39.39,0,0,1,0-.418C45.672,7.4,55.9,2.206,57.016,2.206a.432.432,0,0,1,.124.018.341.341,0,0,1,.241.3,1.889,1.889,0,0,1-.023.511c-.047.35-.121.7-.2,1.041l-.041.186c-.4,1.775-2.883,11.01-3.687,11.2A.592.592,0,0,1,53.34,15.473ZM51.176,10.9a19.249,19.249,0,0,0,2.116,3.957A82.616,82.616,0,0,0,56.675,3.7C55.922,4.8,54.362,6.88,51.176,10.9Zm-5.6-2.131a7.341,7.341,0,0,0,2.871.729c2.529-2.3,5.42-4.879,7.131-6.269C52.59,4.508,46.266,8.057,45.581,8.766Z" transform="translate(-44.972 -2.206)" fill="#241726"/>
        </g>
        <g id="Group_2293" data-name="Group 2293" transform="translate(3.339 7.393)">
          <path id="Path_5627" data-name="Path 5627" d="M48.384,10.4a.43.43,0,0,1-.212-.055c-.422-.236-1.12-2.487-1.632-4.334a.281.281,0,1,1,.541-.15,25.365,25.365,0,0,0,1.341,3.95,5.954,5.954,0,0,0,1.1-1.54.281.281,0,0,1,.494.269c-.214.393-.954,1.685-1.492,1.84A.5.5,0,0,1,48.384,10.4Z" transform="translate(-46.53 -5.656)" fill="#241726"/>
        </g>
      </g>
      <g id="Group_2297" data-name="Group 2297" transform="translate(17.824 20.683)">
        <g id="Group_2295" data-name="Group 2295" transform="translate(0.308 0.281)">
          <path id="Path_5628" data-name="Path 5628" d="M33.7,20.646S44.755,4.128,64.418,11.994s4.416,41.635,7.787,45.568,14.477,2.093,19.534,10.52S92.3,98.42,92.3,98.42H11.4s-7.3-22.473,1.124-30.338,23.035-7.866,23.6-12.36S24.715,30.2,33.7,20.646Z" transform="translate(-8.461 -9.87)" fill="#fff"/>
        </g>
        <g id="Group_2296" data-name="Group 2296">
          <path id="Path_5629" data-name="Path 5629" d="M92.465,98.851h-80.9a.281.281,0,0,1-.267-.194c-.3-.925-7.261-22.734,1.2-30.631,4.445-4.149,10.564-6.123,15.48-7.708,4.349-1.4,7.783-2.511,8.029-4.481.156-1.246-.732-3.926-1.857-7.318-2.776-8.372-6.97-21.024-.483-27.915.044-.073,7.416-10.864,20.548-10.864a28.225,28.225,0,0,1,10.476,2.144C78.559,17.431,75.36,35.466,73.242,47.4c-.86,4.845-1.6,9.029-.659,10.129,1.277,1.49,3.766,2.127,6.647,2.864,4.367,1.117,9.8,2.507,12.914,7.694,2.128,3.546,2.873,9.769,2.216,18.5a108.329,108.329,0,0,1-1.62,12.044A.281.281,0,0,1,92.465,98.851Zm-80.7-.562H92.234c.453-2.335,4.1-22.129-.572-29.913-2.994-4.99-8.082-6.291-12.571-7.439-2.974-.761-5.542-1.417-6.935-3.043-1.115-1.3-.424-5.2.533-10.593,2.085-11.754,5.237-29.518-8.211-34.9a27.67,27.67,0,0,0-10.268-2.1c-12.825,0-20.038,10.544-20.11,10.651-6.285,6.684-2.155,19.144.579,27.389,1.147,3.46,2.053,6.193,1.881,7.565-.291,2.326-3.876,3.482-8.415,4.946-4.863,1.569-10.915,3.521-15.269,7.585C5.087,75.708,11.086,96.075,11.769,98.289Z" transform="translate(-8.318 -9.739)" fill="#241726"/>
        </g>
      </g>
      <g id="Group_2298" data-name="Group 2298" transform="translate(13.23 60.344)">
        <path id="Path_5630" data-name="Path 5630" d="M9.143,42.022s5.805-7.491,5.805-11.985,6.929,0,4.869,7.678c0,0,7.116-.187,8.8,1.5S34.238,49.326,31.991,52.7s-7.3,1.311-7.3,6.929,2.06,17.6.375,18.727S9.518,80.788,7.271,79.1,6.521,50.45,9.143,42.022Z" transform="translate(-6.174 -28.248)" fill="#3bb0a8"/>
      </g>
      <g id="Group_2299" data-name="Group 2299" transform="translate(49.168 34.626)">
        <path id="Path_5631" data-name="Path 5631" d="M24.94,19.221s15.731-4.495,21.724-2.434,1.685,20.226,2.06,23.222-9.176,8.24-11.8,9.551S27.187,44.316,25.5,39.634,21.008,21.468,24.94,19.221Z" transform="translate(-22.945 -16.246)" fill="#df7f94"/>
      </g>
      <g id="Group_2300" data-name="Group 2300" transform="translate(50.756 50.676)">
        <path id="Path_5632" data-name="Path 5632" d="M23.686,27.822c.562-.157,11.27-3.744,12.393-4.058s10.487,2.039,11.8,2.666.749,8.627-.749,9.881-10.3,5.49-12.547,4.706-8.427-3.471-8.989-5.824S23.686,27.822,23.686,27.822Z" transform="translate(-23.686 -23.736)" fill="#3bb0a8"/>
      </g>
      <g id="Group_2301" data-name="Group 2301" transform="translate(50.04 27.859)">
        <path id="Path_5633" data-name="Path 5633" d="M23.352,24.14s24.533.187,25.095-1.5S44.514,12.9,37.585,13.091,24.475,17.4,23.352,24.14Z" transform="translate(-23.352 -13.088)" fill="#241726"/>
      </g>
      <g id="Group_2304" data-name="Group 2304" transform="translate(50.839 40.396)">
        <g id="Group_2302" data-name="Group 2302" transform="translate(0.278 0.281)">
          <path id="Path_5634" data-name="Path 5634" d="M25.774,19.224s19.594-.538,20.9.4,2.434,7.678-3,8.989-6.929-4.307-8.989-3.184S29.051,31.467,25.7,29.2C23.5,27.7,22.964,20.16,25.774,19.224Z" transform="translate(-23.855 -19.07)" fill="#fff"/>
        </g>
        <g id="Group_2303" data-name="Group 2303">
          <path id="Path_5635" data-name="Path 5635" d="M27.71,30.219a3.541,3.541,0,0,1-2.016-.64c-1.543-1.047-2.229-4.6-1.88-7.135.248-1.8.966-2.985,2.018-3.336a.282.282,0,0,1,.081-.015c.056,0,5.671-.154,11.029-.154,9.2,0,9.815.439,10.047.6.837.6,1.485,2.969,1.065,5.131a5.315,5.315,0,0,1-4.159,4.36,7.088,7.088,0,0,1-1.66.207h0a7.276,7.276,0,0,1-5.026-2.382c-.69-.617-1.286-1.15-1.812-1.15a.865.865,0,0,0-.423.115,12.885,12.885,0,0,0-1.853,1.434C31.59,28.577,29.683,30.219,27.71,30.219ZM25.973,19.653c-1.1.4-1.477,1.964-1.6,2.867-.362,2.623.419,5.766,1.638,6.593a2.953,2.953,0,0,0,1.7.543c1.765,0,3.584-1.566,5.045-2.825a12.977,12.977,0,0,1,1.952-1.5,1.434,1.434,0,0,1,.692-.184c.741,0,1.411.6,2.186,1.294a6.814,6.814,0,0,0,4.65,2.239h0a6.542,6.542,0,0,0,1.528-.191,4.733,4.733,0,0,0,3.74-3.921c.392-2.021-.23-4.131-.841-4.567-.21-.15-1.579-.5-9.72-.5C31.843,19.5,26.507,19.639,25.973,19.653Z" transform="translate(-23.725 -18.939)" fill="#241726"/>
        </g>
      </g>
      <g id="Group_2305" data-name="Group 2305" transform="translate(45.508 66.535)">
        <path id="Path_5636" data-name="Path 5636" d="M40.639,39.671a8.151,8.151,0,0,1-1.378-.111c-6.531-1.12-17.427-7.625-17.888-7.9a.281.281,0,1,1,.289-.482c.112.067,11.267,6.728,17.695,7.83C45.721,40.1,56.9,32.1,57.008,32.02a.281.281,0,0,1,.329.455C56.9,32.789,47.282,39.671,40.639,39.671Z" transform="translate(-21.237 -31.137)" fill="#241726"/>
      </g>
      <g id="Group_2306" data-name="Group 2306" transform="translate(62.737 74.575)">
        <path id="Path_5637" data-name="Path 5637" d="M29.558,69.734h-.012a.281.281,0,0,1-.269-.292c.014-.334,1.409-33.352,1.409-34.272a.281.281,0,1,1,.562,0c0,.932-1.352,32.933-1.409,34.3A.282.282,0,0,1,29.558,69.734Z" transform="translate(-29.277 -34.889)" fill="#241726"/>
      </g>
      <g id="Group_2307" data-name="Group 2307" transform="translate(62.681 20.651)">
        <path id="Path_5638" data-name="Path 5638" d="M29.906,22.647a.281.281,0,0,1-.281-.281c0-2.4-.37-12.25-.374-12.349a.281.281,0,0,1,.27-.291.277.277,0,0,1,.291.27c0,.1.374,9.959.374,12.371A.281.281,0,0,1,29.906,22.647Z" transform="translate(-29.251 -9.724)" fill="#241726"/>
      </g>
      <g id="Group_2308" data-name="Group 2308" transform="translate(58.779 79.55)">
        <path id="Path_5639" data-name="Path 5639" d="M33.167,37.21s48.691,8.615,48.691,10.3-6.742,29.777-6.742,29.777-46.257-6.18-47.38-7.866C25.867,66.617,33.167,37.21,33.167,37.21Z" transform="translate(-27.43 -37.21)" fill="#df7f94"/>
      </g>
      <g id="Group_2309" data-name="Group 2309" transform="translate(86.188 81.37)">
        <path id="Path_5640" data-name="Path 5640" d="M47.2,39.049s-7.686,3.169-6.929,6.367c.519,2.194,8.8-2.809,8.8-2.809s-6.555,3.746-4.495,5.056,7.866-3.933,7.866-3.933-4.307,3-3.558,5.244,8.053-3.933,8.053-3.933-6.367,5.618-4.12,6.367,8.615-3.933,9.738-7.116S54.319,35.865,47.2,39.049Z" transform="translate(-40.221 -38.06)" fill="#3bb0a8"/>
      </g>
      <g id="Group_2310" data-name="Group 2310" transform="translate(31.275 74.209)">
        <path id="Path_5641" data-name="Path 5641" d="M14.876,36.407a.281.281,0,0,1-.1-.544c.472-.177,4.654-1.706,6.217-.924a.281.281,0,0,1-.251.5c-1.138-.569-4.551.491-5.769.948A.283.283,0,0,1,14.876,36.407Z" transform="translate(-14.595 -34.718)" fill="#241726"/>
      </g>
      <g id="Group_2311" data-name="Group 2311" transform="translate(33.335 79.078)">
        <path id="Path_5642" data-name="Path 5642" d="M15.837,38.68a.281.281,0,0,1-.1-.544c.472-.177,4.654-1.706,6.217-.925a.281.281,0,1,1-.251.5c-1.139-.569-4.55.491-5.768.948A.282.282,0,0,1,15.837,38.68Z" transform="translate(-15.556 -36.99)" fill="#241726"/>
      </g>
      <g id="Group_2312" data-name="Group 2312" transform="translate(62.899 91.982)">
        <path id="Path_5643" data-name="Path 5643" d="M29.641,55.783l.829.286a.888.888,0,0,0,.739-.233,2.221,2.221,0,0,0,.568-.786,6.751,6.751,0,0,0,.549-1.7,4.727,4.727,0,0,0-.013-1.542,7.772,7.772,0,0,0-.4-1.48q-.265-.7-.521-1.418A6.423,6.423,0,0,1,31.02,45.7a4.11,4.11,0,0,1,.572-1.589q.795-1.234,1.759-1.08A1.185,1.185,0,0,1,34,43.37a.643.643,0,0,1,.246.555c-.05.315-.243.445-.577.392a.864.864,0,0,1-.413-.189q-.657-.074-1.117,1.316a4.727,4.727,0,0,0-.166.721,3.821,3.821,0,0,0,.017,1.059,5.079,5.079,0,0,0,.283,1.164q.2.521.426,1.149t.419,1.216a6.217,6.217,0,0,1,.175,2.975,5.126,5.126,0,0,1-.951,2.291,2.442,2.442,0,0,1-.946.792,2.116,2.116,0,0,1-1.239.179l-.008.05q-.825-.256-.8-.941Z" transform="translate(-29.353 -43.012)" fill="#fdffff"/>
        <path id="Path_5644" data-name="Path 5644" d="M32.564,56.953l.211-1.585c0-.007.048-.24.143-.7q-.039-.274.412-4.7t.586-5.4l-.08-.013q-1.663-.3-1.57-.879a.37.37,0,0,1,.272-.281.885.885,0,0,1,.452-.056l2.764.636.334.043q.642.1.564.595a.49.49,0,0,1-.275.374.788.788,0,0,1-.5.08l-.923-.291-.074.205q-.311,1.95-.588,5.893t-.59,5.9a.556.556,0,0,1-.289.392.746.746,0,0,1-.512.109Z" transform="translate(-26.029 -42.641)" fill="#fdffff"/>
        <path id="Path_5645" data-name="Path 5645" d="M39.1,53.777l.02,1.3a8.906,8.906,0,0,0,0,1.257,8.591,8.591,0,0,1-.008,1.307l0,.02a.562.562,0,0,1-.435.529,1.356,1.356,0,0,1-.651-.248.58.58,0,0,1-.155-.581,15.787,15.787,0,0,0,.1-2.591l-1.982-.624a10.456,10.456,0,0,0-.531,1.451,11.77,11.77,0,0,1-.379,1.156q-.3.735-.8.656a.737.737,0,0,1-.422-.227.484.484,0,0,1-.143-.43l.079-.173a88.7,88.7,0,0,0,3.722-10.1q.043-.137.191-.815A4.654,4.654,0,0,1,38.4,43.8l.694.11a.932.932,0,0,1,.471.209.436.436,0,0,1,.149.426,38.409,38.409,0,0,0-.324,4.72A38.28,38.28,0,0,1,39.1,53.777Zm-1.14.241a6.229,6.229,0,0,1,.106-1.06q.119-.749.211-1.873t.165-2.622q.074-1.5.119-2.171-1.759,5.027-2.368,7.1A4.877,4.877,0,0,0,37.957,54.018Z" transform="translate(-24.371 -42.107)" fill="#fdffff"/>
        <path id="Path_5646" data-name="Path 5646" d="M38.747,57.017q-.22,1.377-.893,1.27-.372-.059-.5-.544a13.39,13.39,0,0,0,.786-3.45,15.587,15.587,0,0,0,.139-1.586q.051-1.033.1-1.468l.085-.532q-.025-.1-.383-1.731a19.874,19.874,0,0,1-.712-4.328l.018-.11.517-.268q.63.111,1,3.426.161,1.448.16,1.458.117-.218.566-1.486,1.146-3.239,1.819-3.132a.564.564,0,0,1,.328.176.382.382,0,0,1,.105.336,11.464,11.464,0,0,1-1.062,2.887,12.307,12.307,0,0,0-1.082,2.883Z" transform="translate(-20.21 -41.577)" fill="#fdffff"/>
        <path id="Path_5647" data-name="Path 5647" d="M40.311,57.483l.829.286a.886.886,0,0,0,.739-.233,2.205,2.205,0,0,0,.568-.786A6.757,6.757,0,0,0,43,55.05a4.733,4.733,0,0,0-.012-1.542,7.722,7.722,0,0,0-.4-1.48q-.264-.7-.521-1.418A6.422,6.422,0,0,1,41.69,47.4a4.1,4.1,0,0,1,.572-1.589q.795-1.234,1.759-1.08a1.19,1.19,0,0,1,.652.341.645.645,0,0,1,.246.555c-.05.315-.243.445-.578.392a.876.876,0,0,1-.413-.189q-.658-.074-1.117,1.317a4.733,4.733,0,0,0-.166.72,3.827,3.827,0,0,0,.016,1.059,5.08,5.08,0,0,0,.284,1.163q.2.521.425,1.149t.42,1.216a6.217,6.217,0,0,1,.175,2.975,5.119,5.119,0,0,1-.952,2.291,2.437,2.437,0,0,1-.945.792,2.116,2.116,0,0,1-1.239.179l-.008.05q-.825-.256-.8-.941Z" transform="translate(-17.158 -41.07)" fill="#fdffff"/>
        <path id="Path_5648" data-name="Path 5648" d="M47.455,55.108l.019,1.3a9.026,9.026,0,0,0,0,1.257,8.559,8.559,0,0,1-.007,1.307l0,.02a.56.56,0,0,1-.435.528,1.355,1.355,0,0,1-.651-.248.582.582,0,0,1-.155-.581,15.761,15.761,0,0,0,.1-2.591l-1.983-.625a10.365,10.365,0,0,0-.53,1.451,11.677,11.677,0,0,1-.38,1.155q-.3.735-.795.657a.741.741,0,0,1-.424-.227.483.483,0,0,1-.142-.43l.079-.173a88.836,88.836,0,0,0,3.722-10.1q.043-.137.192-.815a4.644,4.644,0,0,1,.687-1.858l.694.11a.927.927,0,0,1,.472.209.434.434,0,0,1,.149.426,38.41,38.41,0,0,0-.324,4.72A38.17,38.17,0,0,1,47.455,55.108Zm-1.14.241a6.277,6.277,0,0,1,.106-1.059q.119-.749.211-1.874t.165-2.622q.073-1.5.119-2.171-1.76,5.027-2.369,7.1A4.882,4.882,0,0,0,46.314,55.349Z" transform="translate(-14.82 -40.586)" fill="#fdffff"/>
        <path id="Path_5649" data-name="Path 5649" d="M48.59,47.077l-.848,4.1-.088.552.383.051q.995.158.909.7a.527.527,0,0,1-.291.4.946.946,0,0,1-.6.074,2.489,2.489,0,0,1-.719-.238L46.4,58.549q-.145.9-.677.82a1.3,1.3,0,0,1-.685-.428q.465-1.811,1.09-5.19t.852-4.414l.08-.5q.319-1.485.526-2.781a.517.517,0,0,1,.318-.413,1,1,0,0,1,.578-.073q.306.049.655.125t.859.24q1.138.356,1.052.9-.092.583-1.138.416a2.493,2.493,0,0,0-1.043-.372l-.241-.038Z" transform="translate(-11.423 -40.109)" fill="#fdffff"/>
        <path id="Path_5650" data-name="Path 5650" d="M49.056,49.039l.166-1.756q.233-1.457,1.1-1.32a6.258,6.258,0,0,1,1.467.5q.913.407.85.81-.067.422-.705.548a8.146,8.146,0,0,0-1.5-.64q-.039.448-.11.889l-.561,2.94c0,.014,0,.124.008.331l.739.087q.994.159.905.721a.517.517,0,0,1-.243.358.658.658,0,0,1-.484.093,4.948,4.948,0,0,1-.591-.135l-.523-.083q-.064.794-.187,1.567L48.7,57.66a6.386,6.386,0,0,0-.144,1.162l1.526.191q.784.124.7.627a.478.478,0,0,1-.343.409,1.335,1.335,0,0,1-.635.043l-1.739-.277a.754.754,0,0,1-.462-.264.605.605,0,0,1-.16-.484l.087-.543.424-3.5Z" transform="translate(-8.677 -39.653)" fill="#fdffff"/>
      </g>
      <g id="Group_2313" data-name="Group 2313" transform="translate(53.13 55.86)">
        <path id="Path_5651" data-name="Path 5651" d="M25.075,27.653a.281.281,0,0,1-.031-.56c.083-.01,8.3-.938,12.2-.938s8.6.558,8.648.564a.281.281,0,0,1-.067.558c-.047-.006-4.711-.56-8.581-.56s-12.058.925-12.141.934Z" transform="translate(-24.794 -26.155)" fill="#241726"/>
      </g>
      <g id="Group_2314" data-name="Group 2314" transform="translate(52.943 60.078)">
        <path id="Path_5652" data-name="Path 5652" d="M46.711,29.524a.276.276,0,0,1-.081-.012c-6.053-1.834-21.455-.009-21.609.01a.284.284,0,0,1-.312-.246.281.281,0,0,1,.245-.312c.636-.077,15.674-1.858,21.839.01a.281.281,0,0,1-.081.55Z" transform="translate(-24.707 -28.123)" fill="#241726"/>
      </g>
      <g id="Group_2315" data-name="Group 2315" transform="translate(93.135 84.35)">
        <path id="Path_5653" data-name="Path 5653" d="M43.744,42.358a.281.281,0,0,1-.216-.46,7.065,7.065,0,0,1,3.965-2.443.281.281,0,0,1,.09.555,6.621,6.621,0,0,0-3.623,2.247A.279.279,0,0,1,43.744,42.358Z" transform="translate(-43.463 -39.451)" fill="#241726"/>
      </g>
      <g id="Group_2316" data-name="Group 2316" transform="translate(96.584 85.869)">
        <path id="Path_5654" data-name="Path 5654" d="M45.353,42.652a.281.281,0,0,1-.219-.456,6.561,6.561,0,0,1,4.2-2.036.292.292,0,0,1,.3.258.281.281,0,0,1-.257.3,6.1,6.1,0,0,0-3.8,1.827A.281.281,0,0,1,45.353,42.652Z" transform="translate(-45.072 -40.159)" fill="#241726"/>
      </g>
      <g id="Group_2317" data-name="Group 2317" transform="translate(101.412 87.385)">
        <path id="Path_5655" data-name="Path 5655" d="M47.607,43.36a.281.281,0,0,1-.2-.48A16.071,16.071,0,0,1,50.516,40.9a.281.281,0,1,1,.251.5,15.955,15.955,0,0,0-2.962,1.879A.279.279,0,0,1,47.607,43.36Z" transform="translate(-47.326 -40.867)" fill="#241726"/>
      </g>
      <g id="Group_2318" data-name="Group 2318" transform="translate(89.208 19.342)">
        <path id="Path_5656" data-name="Path 5656" d="M53.457,48.628h-.01c-.134,0-.266-.012-.4-.02a.281.281,0,0,1-.262-.3.292.292,0,0,1,.3-.262q.188.012.38.019a.281.281,0,0,1-.01.561Zm-1.5-.143a.29.29,0,0,1-.045,0,9.889,9.889,0,0,1-1.128-.248.281.281,0,0,1-.193-.347.278.278,0,0,1,.347-.193A9.279,9.279,0,0,0,52,47.926a.281.281,0,0,1-.044.558Zm-2.15-.625a.279.279,0,0,1-.117-.026,6.293,6.293,0,0,1-1.018-.582.281.281,0,1,1,.324-.459,5.805,5.805,0,0,0,.928.53.281.281,0,0,1-.117.536Zm-1.815-1.295a.281.281,0,0,1-.207-.091,5.362,5.362,0,0,1-.7-.956.281.281,0,0,1,.488-.279,4.747,4.747,0,0,0,.623.855.281.281,0,0,1-.207.471Zm-1.11-1.932a.281.281,0,0,1-.267-.195,6.592,6.592,0,0,1-.257-1.143.281.281,0,0,1,.24-.316.285.285,0,0,1,.316.241,6.109,6.109,0,0,0,.235,1.046.281.281,0,0,1-.18.354A.286.286,0,0,1,46.879,44.632Zm-.313-2.215h0a.281.281,0,0,1-.278-.284,9.009,9.009,0,0,1,.09-1.156.281.281,0,1,1,.556.079,8.45,8.45,0,0,0-.085,1.084A.281.281,0,0,1,46.566,42.417Zm.308-2.221a.272.272,0,0,1-.07-.009.281.281,0,0,1-.2-.342q.067-.258.148-.513a2.793,2.793,0,0,1-1.028-.236.281.281,0,0,1,.224-.516,2.209,2.209,0,0,0,.881.191l.089,0a.174.174,0,0,1,.031,0l.01-.025a.281.281,0,1,1,.524.2,9.388,9.388,0,0,0-.334,1.038A.281.281,0,0,1,46.874,40.2ZM48,39.024a.281.281,0,0,1-.134-.528,3.056,3.056,0,0,0,.8-.641.281.281,0,0,1,.418.376,3.583,3.583,0,0,1-.948.758A.278.278,0,0,1,48,39.024Zm-3.1-.512a.279.279,0,0,1-.183-.068,6.439,6.439,0,0,1-.808-.85.281.281,0,1,1,.438-.352,5.934,5.934,0,0,0,.737.776.281.281,0,0,1-.183.493Zm2.8-.4a.276.276,0,0,1-.135-.035.281.281,0,0,1-.11-.382,5.715,5.715,0,0,1,.664-.976.281.281,0,0,1,.425.368,5.18,5.18,0,0,0-.6.88A.28.28,0,0,1,47.69,38.107Zm1.786-.724a.281.281,0,0,1-.26-.387,1.124,1.124,0,0,0,.1-.41.188.188,0,0,0-.01-.073.287.287,0,0,1-.343-.207.259.259,0,0,1,.208-.316.8.8,0,0,1,.154-.016.548.548,0,0,1,.554.613,1.707,1.707,0,0,1-.143.623A.281.281,0,0,1,49.476,37.383Zm-6-.6a.28.28,0,0,1-.239-.132c-.175-.282-.349-.586-.516-.906l-.048-.092a.281.281,0,1,1,.5-.257l.045.087c.161.308.328.6.5.87a.281.281,0,0,1-.239.429ZM42.47,34.775a.281.281,0,0,1-.263-.183,9.284,9.284,0,0,1-.336-1.109.281.281,0,1,1,.547-.128,8.678,8.678,0,0,0,.316,1.041.281.281,0,0,1-.165.362A.288.288,0,0,1,42.47,34.775Zm-.513-2.181a.28.28,0,0,1-.279-.252,8.872,8.872,0,0,1-.048-.924c0-.077,0-.156,0-.235a.3.3,0,0,1,.289-.273.281.281,0,0,1,.273.289c0,.072,0,.144,0,.217a8.345,8.345,0,0,0,.045.868.281.281,0,0,1-.25.308Zm.056-2.239a.313.313,0,0,1-.042,0,.281.281,0,0,1-.236-.319,9.988,9.988,0,0,1,.237-1.13.281.281,0,1,1,.542.146,9.637,9.637,0,0,0-.224,1.067A.28.28,0,0,1,42.014,30.355Zm.581-2.166a.281.281,0,0,1-.262-.382c.135-.35.292-.7.467-1.051a.281.281,0,1,1,.5.252c-.166.331-.316.668-.446,1A.279.279,0,0,1,42.594,28.189ZM43.6,26.182a.281.281,0,0,1-.239-.429c.2-.321.416-.64.644-.949a.281.281,0,0,1,.452.334c-.219.3-.427.6-.619.911A.28.28,0,0,1,43.6,26.182Zm1.335-1.806a.281.281,0,0,1-.212-.465c.248-.286.512-.567.784-.836a.281.281,0,1,1,.395.4c-.262.258-.516.529-.754.8A.28.28,0,0,1,44.935,24.377Zm4.317-1.149a5.775,5.775,0,0,1-.91-.073.281.281,0,1,1,.089-.555c.275.044.566.049.826.066.08,0,.159,0,.236-.005a.277.277,0,0,1,.293.267.281.281,0,0,1-.267.294A1.538,1.538,0,0,1,49.252,23.228Zm1.363-.176a.281.281,0,0,1-.073-.552,4.249,4.249,0,0,0,.976-.391.281.281,0,1,1,.274.49,4.8,4.8,0,0,1-1.1.444A.294.294,0,0,1,50.615,23.052ZM47.3,22.874a.277.277,0,0,1-.1-.017q-.215-.079-.427-.175l-.061.052a.281.281,0,0,1-.447-.307l-.124-.07a.281.281,0,0,1,.283-.486c.09.053.18.1.272.15.185-.146.372-.287.559-.42a.281.281,0,0,1,.326.458q-.154.109-.307.226l.121.046a.281.281,0,0,1-.1.545Zm5.216-.949a.281.281,0,0,1-.224-.451.77.77,0,0,0,.183-.432.3.3,0,0,0-.093-.222.281.281,0,1,1,.4-.391.865.865,0,0,1,.252.612,1.3,1.3,0,0,1-.3.772A.281.281,0,0,1,52.517,21.925Zm-7.152-.171a.279.279,0,0,1-.177-.063,8.89,8.89,0,0,1-.85-.789.281.281,0,1,1,.407-.387,8.407,8.407,0,0,0,.8.739.281.281,0,0,1-.177.5Zm3-.254a.281.281,0,0,1-.14-.524,9.753,9.753,0,0,1,1.033-.521.281.281,0,1,1,.221.516,9.148,9.148,0,0,0-.974.491A.282.282,0,0,1,48.367,21.5Zm2.067-.865a.281.281,0,0,1-.064-.555,3.868,3.868,0,0,1,1.2-.109.281.281,0,0,1,.256.3.276.276,0,0,1-.3.256,3.344,3.344,0,0,0-1.027.1A.273.273,0,0,1,50.434,20.636Zm-6.6-.516A.281.281,0,0,1,43.6,20a5.725,5.725,0,0,1-.563-1.036.281.281,0,1,1,.519-.214,5.2,5.2,0,0,0,.509.934.281.281,0,0,1-.232.439Zm-.843-2.062a.28.28,0,0,1-.277-.236,5.12,5.12,0,0,1-.065-.816c0-.124,0-.246.013-.367a.286.286,0,0,1,.3-.262.281.281,0,0,1,.262.3q-.011.165-.011.331a4.573,4.573,0,0,0,.058.725.281.281,0,0,1-.233.322A.267.267,0,0,1,42.99,18.057Zm.14-2.224a.28.28,0,0,1-.271-.355,7.529,7.529,0,0,1,.4-1.1.281.281,0,1,1,.512.229,7.017,7.017,0,0,0-.367,1.015A.281.281,0,0,1,43.13,15.833Zm.906-2.05a.281.281,0,0,1-.24-.426c.189-.314.406-.635.643-.954a.281.281,0,0,1,.451.335c-.227.3-.433.61-.613.909A.28.28,0,0,1,44.037,13.783Zm1.336-1.806a.281.281,0,0,1-.211-.466c.246-.28.509-.561.784-.834a.281.281,0,1,1,.4.4c-.265.264-.52.536-.757.806A.281.281,0,0,1,45.373,11.977Zm1.593-1.589A.281.281,0,0,1,46.78,9.9c.522-.459.879-.719.894-.73a.281.281,0,0,1,.33.454s-.352.257-.853.7A.281.281,0,0,1,46.965,10.388Z" transform="translate(-41.631 -9.113)" fill="#241726"/>
      </g>
      <g id="Group_2319" data-name="Group 2319" transform="translate(17.23 24.211)">
        <path id="Path_5657" data-name="Path 5657" d="M24.428,51.268H24.4a.282.282,0,0,1-.252-.307c.027-.271.041-.545.041-.814,0-.092,0-.181,0-.27a.281.281,0,0,1,.271-.291.272.272,0,0,1,.291.271q0,.145,0,.292c0,.286-.014.579-.043.868A.281.281,0,0,1,24.428,51.268Zm-.072-2.239a.281.281,0,0,1-.277-.236,9.155,9.155,0,0,0-.236-1.063.281.281,0,1,1,.54-.154,9.669,9.669,0,0,1,.252,1.129.281.281,0,0,1-.233.322A.268.268,0,0,1,24.356,49.028Zm-.612-2.157a.282.282,0,0,1-.26-.174,10.824,10.824,0,0,0-.467-.99.281.281,0,1,1,.495-.265A11.409,11.409,0,0,1,24,46.484a.281.281,0,0,1-.153.367A.292.292,0,0,1,23.745,46.871Zm-1.059-1.979a.281.281,0,0,1-.234-.125c-.2-.3-.42-.6-.652-.882a.281.281,0,0,1,.435-.355c.243.3.473.61.684.925a.281.281,0,0,1-.234.437Zm-5.4-1.287h-.03a.99.99,0,0,1-.974-.8l-.016-.1a.29.29,0,0,1,.234-.33.271.271,0,0,1,.319.225l.018.117c.014.079.049.293.478.337a.281.281,0,0,1-.029.56Zm1.106-.149a.281.281,0,0,1-.082-.55,5.766,5.766,0,0,0,.988-.413.281.281,0,1,1,.261.5,6.35,6.35,0,0,1-1.085.453A.283.283,0,0,1,18.395,43.456Zm2.871-.3a.28.28,0,0,1-.2-.083c-.226-.227-.459-.442-.694-.639a.281.281,0,0,1-.149-.509l.032-.023.025-.018a8.278,8.278,0,0,0,.783-.648.281.281,0,0,1,.384.41c-.18.169-.37.331-.564.485.2.172.392.354.581.545a.281.281,0,0,1-.2.479ZM16.6,41.8a.281.281,0,0,1-.266-.371,1.247,1.247,0,0,1,1.029-.877.281.281,0,1,1,.091.554.7.7,0,0,0-.588.5A.281.281,0,0,1,16.6,41.8Zm2.92-.054a.281.281,0,0,1-.146-.041,5.146,5.146,0,0,0-.957-.465.281.281,0,0,1,.185-.53,5.679,5.679,0,0,1,1.063.515.281.281,0,0,1-.146.521Zm2.507-.848a.281.281,0,0,1-.218-.458,7.582,7.582,0,0,0,.624-.885.281.281,0,0,1,.482.29,8.182,8.182,0,0,1-.67.95A.283.283,0,0,1,22.023,40.9Zm1.149-1.921a.281.281,0,0,1-.26-.386,6.491,6.491,0,0,0,.319-1.027.281.281,0,0,1,.549.121,7.039,7.039,0,0,1-.347,1.116A.282.282,0,0,1,23.173,38.979Zm.48-2.183h-.014a.281.281,0,0,1-.267-.294q.007-.144.007-.29a6.646,6.646,0,0,0-.047-.784.281.281,0,1,1,.557-.067,7.182,7.182,0,0,1,.052.851c0,.107,0,.213-.008.317A.28.28,0,0,1,23.652,36.8Zm-.261-2.222a.281.281,0,0,1-.271-.206,8.38,8.38,0,0,0-.357-1.026.281.281,0,0,1,.518-.217,9.011,9.011,0,0,1,.381,1.095.28.28,0,0,1-.2.345A.268.268,0,0,1,23.392,34.574ZM22.546,32.5a.282.282,0,0,1-.251-.154c-.169-.333-.347-.659-.531-.968a.281.281,0,1,1,.483-.287c.19.32.375.657.55,1a.281.281,0,0,1-.251.408ZM21.4,30.569a.281.281,0,0,1-.23-.12c-.214-.3-.439-.6-.669-.87a.281.281,0,1,1,.429-.362c.241.285.477.592.7.91a.28.28,0,0,1-.069.391A.277.277,0,0,1,21.4,30.569Zm-6.541-1a2.167,2.167,0,0,1-.84-.151.281.281,0,1,1,.217-.518,1.974,1.974,0,0,0,.964.085.281.281,0,0,1,.068.557A3.28,3.28,0,0,1,14.855,29.567Zm1.46-.31a.281.281,0,0,1-.1-.542,5.56,5.56,0,0,0,.949-.49.281.281,0,0,1,.3.473,6.128,6.128,0,0,1-1.046.539A.283.283,0,0,1,16.315,29.258Zm3.631-.4a.279.279,0,0,1-.195-.079,9.063,9.063,0,0,0-.827-.709.281.281,0,1,1,.338-.448,9.664,9.664,0,0,1,.878.752.281.281,0,0,1-.195.483Zm-6.393-.3h-.01a.282.282,0,0,1-.27-.291c0-.053.007-.107.015-.163a1.956,1.956,0,0,1,.471-1.033.281.281,0,1,1,.421.371,1.4,1.4,0,0,0-.336.741.913.913,0,0,0-.009.1A.281.281,0,0,1,13.553,28.561Zm4.646-.506a.281.281,0,0,1-.191-.487l.066-.062a.261.261,0,0,1-.056-.023,5.83,5.83,0,0,0-.981-.427.281.281,0,0,1,.173-.534,6.385,6.385,0,0,1,1.076.468.278.278,0,0,1,.132.159q.162-.182.309-.376a.281.281,0,0,1,.448.34,6.771,6.771,0,0,1-.786.868A.278.278,0,0,1,18.2,28.054Zm-3.286-1.1a.281.281,0,0,1-.081-.55,3.272,3.272,0,0,1,.937-.13,1.247,1.247,0,0,1,.274.009.281.281,0,0,1,.262.3.289.289,0,0,1-.3.262c-.081-.005-.161,0-.236-.008a2.709,2.709,0,0,0-.776.107A.286.286,0,0,1,14.912,26.959Zm4.637-.686a.281.281,0,0,1-.25-.41,6.518,6.518,0,0,0,.412-.993.281.281,0,1,1,.535.172,7.07,7.07,0,0,1-.447,1.079A.281.281,0,0,1,19.549,26.273Zm.69-2.127a.3.3,0,0,1-.045,0,.281.281,0,0,1-.233-.322,7.822,7.822,0,0,0,.1-1.08.281.281,0,0,1,.281-.275h.006a.281.281,0,0,1,.275.287,8.563,8.563,0,0,1-.1,1.156A.281.281,0,0,1,20.239,24.146Zm.053-2.239a.282.282,0,0,1-.279-.254,10.218,10.218,0,0,0-.164-1.079.281.281,0,0,1,.55-.115,10.732,10.732,0,0,1,.173,1.138.281.281,0,0,1-.252.307Zm-.46-2.19a.281.281,0,0,1-.266-.191,8.914,8.914,0,0,0-.408-1.007.281.281,0,0,1,.507-.243,9.55,9.55,0,0,1,.433,1.07.281.281,0,0,1-.177.356A.274.274,0,0,1,19.832,19.717ZM18.866,17.7a.281.281,0,0,1-.236-.129,9.3,9.3,0,0,0-.641-.88.281.281,0,1,1,.433-.357,9.825,9.825,0,0,1,.68.933.281.281,0,0,1-.085.388A.278.278,0,0,1,18.866,17.7Zm-1.421-1.732a.279.279,0,0,1-.2-.08c-.255-.248-.531-.491-.822-.722a.281.281,0,1,1,.349-.44,11.326,11.326,0,0,1,.865.76.281.281,0,0,1-.2.482Zm-1.756-1.4a.279.279,0,0,1-.155-.046c-.3-.2-.616-.387-.944-.567a.281.281,0,0,1,.27-.493c.342.187.673.386.984.59a.281.281,0,0,1-.155.515Zm-1.969-1.083a.279.279,0,0,1-.117-.026c-.345-.158-.687-.3-1.021-.427a.281.281,0,0,1,.2-.525c.346.132.7.278,1.055.442a.281.281,0,0,1-.117.536Zm-2.1-.8a.288.288,0,0,1-.085-.013c-.377-.119-.736-.219-1.068-.3a.281.281,0,0,1-.2-.341.278.278,0,0,1,.341-.2c.342.087.711.19,1.1.312a.281.281,0,0,1-.085.549Zm-2.182-.556a.285.285,0,0,1-.054-.005c-.668-.13-1.087-.173-1.091-.174a.281.281,0,0,1-.251-.307.285.285,0,0,1,.307-.251c.018,0,.447.045,1.143.181a.281.281,0,0,1-.053.556Z" transform="translate(-8.04 -11.386)" fill="#241726"/>
      </g>
      <g id="Group_2320" data-name="Group 2320" transform="translate(15.965 94.196)">
        <path id="Path_5658" data-name="Path 5658" d="M8.063,46.977a.281.281,0,0,1-.219-.105,4.152,4.152,0,0,1-.322-2.589.281.281,0,0,1,.555.085,3.687,3.687,0,0,0,.205,2.153.281.281,0,0,1-.22.456Z" transform="translate(-7.451 -44.045)" fill="#241726"/>
      </g>
      <g id="Group_2321" data-name="Group 2321" transform="translate(18.915 96.864)">
        <path id="Path_5659" data-name="Path 5659" d="M9.439,48.223a.281.281,0,0,1-.219-.105A4.152,4.152,0,0,1,8.9,45.528a.281.281,0,0,1,.555.085,3.687,3.687,0,0,0,.205,2.153.281.281,0,0,1-.22.456Z" transform="translate(-8.827 -45.29)" fill="#241726"/>
      </g>
      <g id="Group_2322" data-name="Group 2322" transform="translate(15.685 99.674)">
        <path id="Path_5660" data-name="Path 5660" d="M7.932,49.534a.281.281,0,0,1-.219-.105,4.152,4.152,0,0,1-.322-2.589.281.281,0,0,1,.555.085,3.687,3.687,0,0,0,.205,2.153.281.281,0,0,1-.22.456Z" transform="translate(-7.32 -46.601)" fill="#241726"/>
      </g>
      <g id="Group_2323" data-name="Group 2323" transform="translate(18.494 101.359)">
        <path id="Path_5661" data-name="Path 5661" d="M9.242,50.32a.28.28,0,0,1-.219-.105A4.152,4.152,0,0,1,8.7,47.626a.281.281,0,0,1,.555.085,3.687,3.687,0,0,0,.205,2.153.281.281,0,0,1-.22.456Z" transform="translate(-8.63 -47.388)" fill="#241726"/>
      </g>
      <g id="Group_2324" data-name="Group 2324" transform="translate(16.246 104.168)">
        <path id="Path_5662" data-name="Path 5662" d="M8.194,51.631a.281.281,0,0,1-.219-.105,4.152,4.152,0,0,1-.322-2.589.281.281,0,0,1,.555.085,3.687,3.687,0,0,0,.205,2.153.281.281,0,0,1-.22.456Z" transform="translate(-7.582 -48.699)" fill="#241726"/>
      </g>
      <g id="Group_2325" data-name="Group 2325" transform="translate(18.213 105.853)">
        <path id="Path_5663" data-name="Path 5663" d="M9.111,52.418a.281.281,0,0,1-.219-.105,4.152,4.152,0,0,1-.322-2.589.281.281,0,0,1,.555.085,3.687,3.687,0,0,0,.205,2.153.281.281,0,0,1-.22.456Z" transform="translate(-8.499 -49.485)" fill="#241726"/>
      </g>
    </g>
  </g>
</svg>
