<?xml version="1.0" encoding="utf-8"?>
<!-- Generator: Adobe Illustrator 23.0.3, SVG Export Plug-In . SVG Version: 6.00 Build 0)  -->
<svg version="1.1" id="Layer_1" xmlns="http://www.w3.org/2000/svg" xmlns:xlink="http://www.w3.org/1999/xlink" x="0px" y="0px"
	 viewBox="0 0 18 18" style="enable-background:new 0 0 18 18;" xml:space="preserve">
<style type="text/css">
	.st0{fill:#AFAFAF;}
</style>
<path id="XMLID_338_" class="st0" d="M17.2,4.1h-1.5c0.1-0.3,0.2-0.6,0.2-1c0-0.7-0.3-1.3-0.8-1.8c-0.5-0.5-1.1-0.8-1.8-0.8
	S12,0.8,11.5,1.3L9,3.8L6.5,1.3C6,0.8,5.4,0.6,4.7,0.6S3.3,0.8,2.9,1.3C2.1,2.1,1.9,3.2,2.3,4.1H0.8C0.4,4.1,0,4.5,0,4.9v11.7
	c0,0.5,0.4,0.8,0.8,0.8h16.4c0.5,0,0.8-0.4,0.8-0.8V4.9C18,4.5,17.6,4.1,17.2,4.1z M12.6,2.5c0.2-0.2,0.4-0.3,0.7-0.3
	c0.3,0,0.5,0.1,0.7,0.3c0.2,0.2,0.3,0.4,0.3,0.7c0,0.3-0.1,0.5-0.3,0.7c-0.2,0.2-0.4,0.3-0.7,0.3l0,0c0,0,0,0,0,0H11L12.6,2.5z
	 M4,3.8c-0.4-0.4-0.4-1,0-1.4c0.2-0.2,0.4-0.3,0.7-0.3c0.3,0,0.5,0.1,0.7,0.3L7,4.1H4.7c0,0,0,0,0,0l0,0C4.4,4.1,4.2,4,4,3.8z
	 M7,5.8L5.4,7.4c-0.3,0.3-0.3,0.8,0,1.2C5.5,8.7,5.7,8.8,6,8.8c0.2,0,0.4-0.1,0.6-0.2L9,6.1l2.5,2.5c0.2,0.2,0.4,0.2,0.6,0.2
	c0.2,0,0.4-0.1,0.6-0.2c0.3-0.3,0.3-0.8,0-1.2L11,5.8h5.4v5.4H1.6V5.8C1.6,5.8,7,5.8,7,5.8z M1.6,15.8v-3h14.7v3H1.6z"/>
</svg>
