<?xml version="1.0" encoding="utf-8"?>
<!-- Generator: Adobe Illustrator 25.2.3, SVG Export Plug-In . SVG Version: 6.00 Build 0)  -->
<svg version="1.1" id="cancel-appointment" xmlns="http://www.w3.org/2000/svg" xmlns:xlink="http://www.w3.org/1999/xlink" x="0px"
	 y="0px" viewBox="0 0 512 512" style="enable-background:new 0 0 512 512;" xml:space="preserve">
<style type="text/css">
	.st0{fill:#F35CD2;}
	.st1{fill:#5D038E;}
	.st2{fill:#E9642C;}
	.st3{fill:#FFFFFF;}
</style>
<g>
	<path class="st0" d="M52.1,185.4v-80.6c0-16.1,13-29.1,29.1-29.1h349.5c16.1,0,29.1,13,29.1,29.1v80.6"/>
	<path class="st1" d="M459.9,201.1c-8.7,0-15.7-7-15.7-15.7v-80.6c0-7.4-6-13.5-13.5-13.5H81.3c-7.4,0-13.5,6-13.5,13.5v80.6
		c0,8.7-7,15.7-15.7,15.7s-15.7-7-15.7-15.7v-80.6C36.4,80.1,56.5,60,81.3,60h349.5c24.7,0,44.8,20.1,44.8,44.8v80.6
		C475.6,194.1,468.5,201.1,459.9,201.1z"/>
	<path class="st2" d="M459.9,185.4v241.4c0,22.6-19.3,40.9-43.2,40.9H95.3c-23.8,0-43.2-18.3-43.2-40.9V185.4h324.1"/>
	<path class="st1" d="M416.7,483.4H95.3c-32.4,0-58.8-25.4-58.8-56.6V185.4c0-8.7,7-15.7,15.7-15.7h324.1c8.7,0,15.7,7,15.7,15.7
		s-7,15.7-15.7,15.7H67.8v225.7c0,13.9,12.3,25.2,27.5,25.2h321.5c15.1,0,27.5-11.3,27.5-25.2V185.4c0-8.7,7-15.7,15.7-15.7
		s15.7,7,15.7,15.7v241.4C475.6,458,449.2,483.4,416.7,483.4z"/>
	<path class="st1" d="M193.3,122.7c-8.7,0-15.7-7-15.7-15.7V44.3c0-8.7,7-15.7,15.7-15.7s15.7,7,15.7,15.7V107
		C209,115.7,201.9,122.7,193.3,122.7z"/>
	<path class="st3" d="M52.1,185.4H256v94.1H52.1V185.4z"/>
	<path class="st1" d="M256,295.2H52.1c-8.7,0-15.7-7-15.7-15.7v-94.1c0-8.7,7-15.7,15.7-15.7H256c8.7,0,15.7,7,15.7,15.7v94.1
		C271.7,288.2,264.7,295.2,256,295.2z M67.8,263.8h172.5v-62.7H67.8V263.8z"/>
	<path class="st3" d="M256,185.4h203.9v94.1H256V185.4z"/>
	<path class="st1" d="M459.9,295.2H256c-8.7,0-15.7-7-15.7-15.7v-94.1c0-8.7,7-15.7,15.7-15.7h203.9c8.7,0,15.7,7,15.7,15.7v94.1
		C475.6,288.2,468.5,295.2,459.9,295.2z M271.7,263.8h172.5v-62.7H271.7V263.8z"/>
	<path class="st3" d="M52.1,373.6H256v94.1H52.1V373.6z"/>
	<path class="st1" d="M256,483.4H52.1c-8.7,0-15.7-7-15.7-15.7v-94.1c0-8.7,7-15.7,15.7-15.7H256c8.7,0,15.7,7,15.7,15.7v94.1
		C271.7,476.4,264.7,483.4,256,483.4z M67.8,452h172.5v-62.7H67.8V452z"/>
	<path class="st3" d="M52.1,279.5H256v94.1H52.1V279.5z"/>
	<g>
		<path class="st1" d="M256,389.3H52.1c-8.7,0-15.7-7-15.7-15.7v-94.1c0-8.7,7-15.7,15.7-15.7H256c8.7,0,15.7,7,15.7,15.7v94.1
			C271.7,382.3,264.7,389.3,256,389.3z M67.8,357.9h172.5v-62.7H67.8V357.9z"/>
		<path class="st1" d="M318.7,122.7c-8.7,0-15.7-7-15.7-15.7V44.3c0-8.7,7-15.7,15.7-15.7s15.7,7,15.7,15.7V107
			C334.4,115.7,327.4,122.7,318.7,122.7z"/>
		<path class="st1" d="M397.2,436.4c-4.5,0-9-1.9-12.1-5.6l-78.4-94.1c-5.5-6.7-4.6-16.6,2-22.1c6.7-5.5,16.5-4.6,22.1,2l78.4,94.1
			c5.5,6.7,4.6,16.6-2,22.1C404.3,435.2,400.7,436.4,397.2,436.4L397.2,436.4z"/>
		<path class="st1" d="M318.7,436.4c-3.5,0-7.1-1.2-10-3.6c-6.6-5.5-7.6-15.4-2-22.1l78.4-94.1c5.6-6.6,15.4-7.5,22.1-2
			c6.6,5.5,7.6,15.4,2,22.1l-78.4,94.1C327.7,434.4,323.2,436.4,318.7,436.4L318.7,436.4z"/>
	</g>
</g>
</svg>
