<svg xmlns="http://www.w3.org/2000/svg" width="75" height="75" viewBox="0 0 75 75">
  <g id="Group_1470" data-name="Group 1470" transform="translate(-148 -144)">
    <g id="Rectangle_1069" data-name="Rectangle 1069" transform="translate(148 144)" fill="#3983fe" stroke="#fff" stroke-width="4">
      <rect width="75" height="75" rx="37.5" stroke="none"/>
      <rect x="2" y="2" width="71" height="71" rx="35.5" fill="none"/>
    </g>
    <g id="Group_1469" data-name="Group 1469" transform="translate(-3 -5)">
      <text id="OUT" transform="translate(167 201)" fill="#fbfbfb" font-size="20" font-family="Avenir-Heavy, Avenir" font-weight="800"><tspan x="0" y="0">OUT</tspan></text>
      <g id="log-out" transform="translate(180 166)">
        <path id="Path_2428" data-name="Path 2428" d="M13.427,11.247l5.82-5.82A1.455,1.455,0,0,1,21.73,6.455V10.82h5.82a1.455,1.455,0,0,1,0,2.91H21.73V18.1a1.455,1.455,0,0,1-2.484,1.029l-5.82-5.82a1.453,1.453,0,0,1,0-2.057Z" transform="translate(-13 -5)" fill="#fff"/>
      </g>
    </g>
  </g>
</svg>
