<?xml version="1.0" encoding="utf-8"?>
<!-- Generator: Adobe Illustrator 23.0.6, SVG Export Plug-In . SVG Version: 6.00 Build 0)  -->
<svg version="1.1" id="Layer_1" xmlns="http://www.w3.org/2000/svg" xmlns:xlink="http://www.w3.org/1999/xlink" x="0px" y="0px"
	 viewBox="0 0 1850 1850" style="enable-background:new 0 0 1850 1850;" xml:space="preserve">
<style type="text/css">
	.st0{fill:#FFFFFF;}
</style>
<g>
	<path class="st0" d="M774.2,817.8h-667c-24.1,0-43.6-19.5-43.6-43.6v-667c0-24.1,19.5-43.6,43.6-43.6h667
		c24.1,0,43.6,19.5,43.6,43.6v667C817.8,798.3,798.3,817.8,774.2,817.8z"/>
	<path class="st0" d="M1742.8,817.8h-667c-24.1,0-43.6-19.5-43.6-43.6v-667c0-24.1,19.5-43.6,43.6-43.6h667
		c24.1,0,43.6,19.5,43.6,43.6v667C1786.4,798.3,1766.8,817.8,1742.8,817.8z"/>
	<path class="st0" d="M774.2,1786.4h-667c-24.1,0-43.6-19.5-43.6-43.6v-667c0-24.1,19.5-43.6,43.6-43.6h667
		c24.1,0,43.6,19.5,43.6,43.6v667C817.8,1766.8,798.3,1786.4,774.2,1786.4z"/>
	<path class="st0" d="M1742.8,1786.4h-667c-24.1,0-43.6-19.5-43.6-43.6v-667c0-24.1,19.5-43.6,43.6-43.6h667
		c24.1,0,43.6,19.5,43.6,43.6v667C1786.4,1766.8,1766.8,1786.4,1742.8,1786.4z"/>
</g>
</svg>
