<?xml version="1.0" encoding="utf-8"?>
<!-- Generator: Adobe Illustrator 23.0.2, SVG Export Plug-In . SVG Version: 6.00 Build 0)  -->
<svg version="1.1" id="Layer_1" xmlns="http://www.w3.org/2000/svg" xmlns:xlink="http://www.w3.org/1999/xlink" x="0px" y="0px"
	 viewBox="0 0 15 14" style="enable-background:new 0 0 15 14;" xml:space="preserve">
<style type="text/css">
	.st0{fill:#5B5B5B;}
</style>
<path class="st0" d="M7.5,13.8l-1.1-1.1C2.7,9.3,1.5,8.2,0.7,6.5C0.2,5.7,0,4.9,0,4.1C0,1.8,1.8,0,4.1,0c1.3,0,2.5,0.6,3.4,1.5l0,0
	l0.1-0.1C8.4,0.6,9.6,0,10.9,0C13.2,0,15,1.8,15,4.1c0,0.8-0.3,1.7-0.7,2.5c-0.7,1.6-2,2.8-5.7,6.1L7.5,13.8z M4.1,2C3,2,2,3,2,4.1
	C2,4.6,2.1,5,2.5,5.6C3.1,7,4.2,8,7.5,11c3.3-3,4.4-4.1,5-5.3C12.8,5.1,13,4.5,13,4.1C13,3,12,2,10.9,2c-0.7,0-1.4,0.3-1.8,0.9
	L7.5,4.6L6,2.9C5.5,2.3,4.8,2,4.1,2z"/>
</svg>
