<?xml version="1.0" encoding="utf-8"?>
<!-- Generator: Adobe Illustrator 23.0.2, SVG Export Plug-In . SVG Version: 6.00 Build 0)  -->
<svg version="1.1" id="Layer_1" xmlns="http://www.w3.org/2000/svg" xmlns:xlink="http://www.w3.org/1999/xlink" x="0px" y="0px"
	 viewBox="0 0 400.6 364.3" style="enable-background:new 0 0 400.6 364.3;" xml:space="preserve">
<style type="text/css">
	.st0{opacity:0.15;}
	.st1{fill:#3F5A7C;}
	.st2{fill:#324A5E;stroke:#324A5E;stroke-width:3;stroke-miterlimit:10;}
	.st3{fill:#FFFFFF;}
	.st4{opacity:0.2;}
	.st5{opacity:0.5;fill:#3A83FF;enable-background:new    ;}
	.st6{opacity:0.5;fill:#40C956;enable-background:new    ;}
	.st7{opacity:0.5;fill:#F5A623;enable-background:new    ;}
	.st8{opacity:0.5;fill:#F22B43;enable-background:new    ;}
	.st9{fill:#324A5E;}
	.st10{display:none;fill:none;stroke:#324A5E;stroke-width:8;stroke-miterlimit:10;}
</style>
<title>13Artboard 2</title>
<g id="Layer_1-2">
	<g class="st0">
		<path class="st1" d="M22.3,92.2h273c6.6,0,12,5.4,12,12v174c0,6.6-5.4,12-12,12h-273c-6.6,0-12-5.4-12-12v-174
			C10.3,97.6,15.7,92.2,22.3,92.2z"/>
	</g>
	<path class="st2" d="M25.3,261.2v-142c0-8.6-0.6-17.4,0-26c0.5-7.6,6.6-9,12.7-9h98.6c3.9,0,3.9-6,0-6H39.7c-5.1,0-9.9-0.2-14.3,3
		c-8.5,6.3-6.1,19.6-6.1,28.9v151.1c0,3.9,6-66.1,6-70L25.3,261.2z"/>
	<path class="st2" d="M252.7,276.2h-216c-1.1,0-2.1,0-3.2-0.1c-7.2-0.9-8.1-7.1-8.1-12.9v-29.6c0-3.9-6-3.9-6,0v27
		c0,3.6-0.4,7.7,0.7,11.2c2.1,6.1,7.8,10.3,14.3,10.4c10.1,0.4,20.3,0,30.4,0h199c3.8-0.1,4.8-6.1,0.9-6H252.7z"/>
	<path class="st2" d="M128.6,84.2h165.2c5.6,0,15.4-1.7,19.8,2.7c3.1,3.1,2.7,7.2,2.7,11.2v165.8c0,6-1.6,11.9-9,12.4
		c-14.8,1-30.1,0-44.9,0h-5.1c-3.9,0-3.9,6,0,6h46.4c8.6,0,17-3.2,18.4-12.9c0.3-2.8,0.3-5.7,0.2-8.5V104.7c0-3.6,0.1-7.2,0-10.9
		c-0.2-8.7-6.2-15.3-15-15.7c-24.3-1-48.9,0-73.3,0H128.6C124.8,78.2,124.8,84.2,128.6,84.2z"/>
</g>
<g id="Layer_1-2-2">
	<g class="st0">
		<path class="st1" d="M67.2,53.2h272.1c6.6,0,12,5.4,12,12v173.5c0,6.6-5.4,12-12,12H67.2c-6.6,0-12-5.4-12-12V65.1
			C55.3,58.5,60.6,53.2,67.2,53.2z"/>
	</g>
	<path class="st3" d="M79.2,42.2h272.1c6.6,0,12,5.4,12,12v173.4c0,6.6-5.4,12-12,12H79.2c-6.6,0-12-5.4-12-12V54.2
		C67.2,47.6,72.6,42.2,79.2,42.2z"/>
	<path class="st2" d="M70.2,151.9V80.1c0-8.6-0.6-17.3,0-25.9c0.5-7.6,6.5-9,12.7-9h58.4c3.9,0,3.9-6,0-6H84.6
		c-5.1,0-9.9-0.2-14.3,3c-8.5,6.3-6.1,19.5-6.1,28.8v80.8C64.2,155.8,70.2,155.8,70.2,151.9z"/>
	<path class="st2" d="M70.2,170.8v-8c0-3.9-6-3.9-6,0v8C64.2,174.7,70.2,174.7,70.2,170.8z"/>
	<path class="st2" d="M279,236.6H81.6c-1.1,0-2.1,0-3.2-0.1c-7.2-0.9-8.1-7.1-8.1-12.9v-29.5c0-3.9-6-3.9-6,0v26.9
		c0,3.6-0.4,7.6,0.7,11.2c2.1,6.1,7.8,10.3,14.3,10.4c10.1,0.4,20.2,0,30.3,0h169.5C282.8,242.5,282.8,236.5,279,236.6z"/>
	<path class="st2" d="M173.2,45.2h164.7c5.6,0,15.4-1.7,19.7,2.7c3.1,3.1,2.7,7.2,2.7,11.2v165.2c0,6-1.6,11.9-9,12.4
		c-14.8,1-30,0-44.8,0h-5.1c-3.9,0-3.9,6,0,6h46.3c8.6,0,17-3.2,18.3-12.9c0.3-2.8,0.3-5.6,0.2-8.5V65.7c0-3.6,0.1-7.2,0-10.9
		c-0.2-8.7-6.2-15.2-14.9-15.7c-24.2-1-48.7,0-73.1,0H173.2C169.4,39.2,169.4,45.2,173.2,45.2z"/>
</g>
<g class="st4">
	<path class="st1" d="M97.1,160.2H157c1.6,0,3-1.4,3-3.2c0-1.8-1.3-3.2-3-3.2c0,0,0,0,0,0H97.1c-1.6,0-3,1.4-3,3.2
		C94.1,158.7,95.4,160.2,97.1,160.2C97.1,160.2,97.1,160.2,97.1,160.2z"/>
</g>
<g class="st4">
	<path class="st1" d="M97.1,182.5h47.1c1.6,0,3-1.4,3-3.2c0-1.8-1.3-3.2-3-3.2c0,0,0,0,0,0H97.1c-1.6,0-3,1.4-3,3.2
		C94.1,181,95.4,182.4,97.1,182.5C97.1,182.5,97.1,182.5,97.1,182.5z"/>
</g>
<g class="st4">
	<path class="st1" d="M97.1,204.7h35.7c1.6,0,3-1.4,3-3.2c0-1.8-1.3-3.2-3-3.2c0,0,0,0,0,0H97.1c-1.6,0-3,1.4-3,3.2
		C94.1,203.3,95.4,204.7,97.1,204.7C97.1,204.7,97.1,204.7,97.1,204.7z"/>
</g>
<g class="st4">
	<path class="st1" d="M97.1,115.2H157c1.6,0,3-1.4,3-3.2s-1.3-3.2-3-3.2c0,0,0,0,0,0H97.1c-1.6,0-3,1.4-3,3.2
		C94.1,113.8,95.4,115.2,97.1,115.2C97.1,115.2,97.1,115.2,97.1,115.2z"/>
</g>
<g class="st4">
	<path class="st1" d="M97.1,137.5h47.1c1.6,0,3-1.4,3-3.2c0-1.8-1.3-3.2-3-3.2c0,0,0,0,0,0H97.1c-1.6,0-3,1.4-3,3.2
		C94.1,136,95.4,137.5,97.1,137.5C97.1,137.5,97.1,137.5,97.1,137.5z"/>
</g>
<path class="st1" d="M97.1,87.9H157c4.2,0,4.2-10.9,0-10.9H97.1C92.9,77,92.9,87.9,97.1,87.9z"/>
<path class="st5" d="M188.4,106.8h24.3c5,0,9,4,9,9V139c0,5-4,9-9,9h-24.3c-5,0-9-4-9-9v-23.2C179.4,110.8,183.4,106.8,188.4,106.8z
	"/>
<path class="st6" d="M248.3,106.8h24.3c5,0,9,4,9,9V139c0,5-4,9-9,9h-24.3c-5,0-9-4-9-9v-23.2C239.3,110.8,243.4,106.8,248.3,106.8z
	"/>
<path class="st7" d="M308.3,106.8h24.3c5,0,9,4,9,9V139c0,5-4,9-9,9h-24.3c-5,0-9-4-9-9v-23.2C299.3,110.8,303.3,106.8,308.3,106.8z
	"/>
<path class="st6" d="M188.4,165.2h24.3c5,0,9,4,9,9v23.2c0,5-4,9-9,9h-24.3c-5,0-9-4-9-9v-23.2C179.4,169.2,183.4,165.2,188.4,165.2
	z"/>
<path class="st8" d="M248.3,165.2h24.3c5,0,9,4,9,9v23.2c0,5-4,9-9,9h-24.3c-5,0-9-4-9-9v-23.2C239.3,169.2,243.4,165.2,248.3,165.2
	z"/>
<path class="st5" d="M308.3,165.2h24.3c5,0,9,4,9,9v23.2c0,5-4,9-9,9h-24.3c-5,0-9-4-9-9v-23.2C299.3,169.2,303.3,165.2,308.3,165.2
	z"/>
<path class="st1" d="M186.9,86.8H334c10.1,0,10.1-10.9,0-10.9H186.9C176.8,75.9,176.8,86.8,186.9,86.8z"/>
<path class="st9" d="M109.3,311.3h123c8.5,0,8.5-9.7,0-9.7h-123C100.8,301.6,100.8,311.3,109.3,311.3z"/>
<path class="st10" d="M275.4,217.8l-13.9-36.2c-1.1-2.8,1.7-5.5,4.5-4.4l34.9,14.4c2.5,1,2.3,4.6-0.3,5.4c-5.1,1.5-13,2.5-15.1,4.8
	c-3.6,4.1-3,10.1-4.7,15.7C280,220.2,276.4,220.4,275.4,217.8z"/>
</svg>
