<?xml version="1.0" encoding="utf-8"?>
<!-- Generator: Adobe Illustrator 23.0.6, SVG Export Plug-In . SVG Version: 6.00 Build 0)  -->
<svg version="1.1" id="Layer_1" xmlns="http://www.w3.org/2000/svg" xmlns:xlink="http://www.w3.org/1999/xlink" x="0px" y="0px"
	 viewBox="0 0 1000 1000" style="enable-background:new 0 0 1000 1000;" xml:space="preserve">
<style type="text/css">
	.st0{display:none;}
	.st1{display:inline;fill:#3A83FF;}
	.st2{fill:#3A83FF;}
</style>
<g class="st0">
	<path class="st1" d="M874.7,254.7H736.3v40.8h138.4c31.8,0,74.5,42.7,74.5,74.5v446.3c0,31.8-42.7,74.5-74.5,74.5H125.3
		c-31.8,0-74.5-42.7-74.5-74.5V370c0-31.8,42.7-74.5,74.5-74.5h138.4v-40.8H125.3C61.6,254.7,10,306.4,10,370v446.3
		c0,63.7,51.6,115.3,115.3,115.3h749.4c63.7,0,115.3-51.6,115.3-115.3V370C990,306.4,938.4,254.7,874.7,254.7L874.7,254.7z
		 M269.8,467.5l207.8,208.2c5.4,5.4,12.8,8.5,20.4,8.5l0,0c7.6,0,14.9-3,20.4-8.4l208.2-208.2c11.3-11.3,11.3-29.5,0-40.8
		s-29.5-11.3-40.8,0L525.2,587.3v-490c0-15.9-12.9-28.8-28.8-28.8c-15.9,0-28.8,12.9-28.8,28.8V584l-157-157.2
		c-5.7-5.6-13-8.5-20.4-8.5s-14.8,2.8-20.4,8.4C258.6,438,258.6,456.2,269.8,467.5L269.8,467.5z"/>
</g>
<g>
	<g>
		<path class="st2" d="M9.6,446.6v355.7c0,90.8,73.6,164.3,164.3,164.3h652.2c90.8,0,164.3-73.6,164.3-164.3V289.2
			c0-90.8-73.6-164.3-163.7-164.3h-79.9v52.2h79.9c62.1,0,112.1,50,112.1,112.1v513.1c0,62.1-50,112.1-112.1,112.1H174.5
			c-62.1,0-112.1-50-112.1-112.1 M758.3,436.8c10.3-9.7,10.3-26.5,0-36.8s-26.5-10.3-36.8,0L526.2,595.3v-536
			c0-14.4-11.5-25.9-25.9-25.9S474.5,45,474.5,59.3v538.4l-199.9-200c-10.3-10.3-26.5-10.3-36.8,0c-10.3,10.3-10.3,26.5,0,36.8
			l243,243c4.6,4.6,11.5,7.5,18.4,7.5s13.2-2.3,18.4-7.5L758.3,436.8L758.3,436.8z M9.6,446.6v355.7c0,90.8,73.6,164.3,164.3,164.3
			h652.2c90.8,0,164.3-73.6,164.3-164.3V289.2c0-90.8-73.6-164.3-163.7-164.3h-79.9v52.2h79.9c62.1,0,112.1,50,112.1,112.1v513.1
			c0,62.1-50,112.1-112.1,112.1H174.5c-62.1,0-112.1-50-112.1-112.1 M9.6,446.6v355.7c0,90.8,73.6,164.3,164.3,164.3h652.2
			c90.8,0,164.3-73.6,164.3-164.3V289.2c0-90.8-73.6-164.3-163.7-164.3h-79.9v52.2h79.9c62.1,0,112.1,50,112.1,112.1v513.1
			c0,62.1-50,112.1-112.1,112.1H174.5c-62.1,0-112.1-50-112.1-112.1"/>
	</g>
	<g>
		<path class="st2" d="M937.6,802.2c0,62.1-50,112.1-112.1,112.1H173.4c-62.1,0-112.1-50-112.1-112.1V289.2
			c0-62.1,50-112.1,112.1-112.1h79.9v-52.2h-79.9c-90.2,0-163.7,73.6-163.7,164.3v513.1c-0.1,90.8,73.5,164.3,164.2,164.3h652.2
			c90.8,0,164.3-73.6,164.3-164.3V446.6 M241.8,436.8l240.7,240.7c5.2,5.2,11.5,7.5,18.4,7.5c6.9,0,13.8-2.8,18.4-7.5l243-243
			c10.3-10.3,10.3-26.5,0-36.8c-10.3-10.3-26.5-10.3-36.8,0L525.6,597.7V59.3c0-14.4-11.5-25.9-25.9-25.9
			c-14.4,0-25.9,11.5-25.9,25.9v536.1L278.5,400c-10.3-10.3-26.5-10.3-36.8,0C231.4,410.4,231.4,427,241.8,436.8L241.8,436.8z
			 M937.6,802.2c0,62.1-50,112.1-112.1,112.1H173.4c-62.1,0-112.1-50-112.1-112.1V289.2c0-62.1,50-112.1,112.1-112.1h79.9v-52.2
			h-79.9c-90.2,0-163.7,73.6-163.7,164.3v513.1c-0.1,90.8,73.5,164.3,164.2,164.3h652.2c90.8,0,164.3-73.6,164.3-164.3V446.6
			 M9.6,802.2c0,90.8,73.6,164.3,164.3,164.3h652.2c90.8,0,164.3-73.6,164.3-164.3V446.6c-10.9,6.9-52.8,355.7-52.8,355.7
			c0,62.1-50,112.1-112.1,112.1H173.4c-62.1,0-112.1-50-112.1-112.1V289.2c0-62.1,50-112.1,112.1-112.1h79.9v-52.2h-79.9
			c-90.2,0-163.7,73.6-163.7,164.3"/>
	</g>
</g>
</svg>
