<?xml version="1.0" encoding="utf-8"?>
<!-- Generator: Adobe Illustrator 23.0.6, SVG Export Plug-In . SVG Version: 6.00 Build 0)  -->
<svg version="1.1" xmlns="http://www.w3.org/2000/svg" xmlns:xlink="http://www.w3.org/1999/xlink" x="0px" y="0px"
	 viewBox="0 0 50 50" style="enable-background:new 0 0 50 50;" xml:space="preserve">
<style type="text/css">
	.st0{fill:#40C956;}
	.st1{fill:#FFFFFF;}
</style>
<g id="Layer_2">
	<rect y="0" class="st0" width="50" height="50"/>
</g>
<g id="Layer_1">
	<g>
		<path class="st1" d="M25.1,14.7c-3.1,0-5.7,2.5-5.7,5.7c0,0.5,0.4,0.9,0.9,0.9s0.9-0.4,0.9-0.9c0-2,1.6-3.8,3.8-3.8
			c0.5,0,0.9-0.4,0.9-0.9C26,15.1,25.6,14.7,25.1,14.7z M20.4,36.9c0,0.2,0.1,0.3,0.2,0.5l1.4,2.1c0.2,0.2,0.5,0.4,0.8,0.4h4.6
			c0.3,0,0.6-0.2,0.8-0.4l1.4-2.1c0.1-0.2,0.2-0.3,0.2-0.5v-2.5h-9.3V36.9z M25.1,10.1c-6,0-10.3,4.8-10.3,10.3c0,2.6,1,5,2.5,6.8
			c1,1.1,2.5,3.4,3,5.4l0,0h2.8l0,0c0-0.2-0.1-0.6-0.2-0.8c-0.3-1.1-1.3-3.8-3.6-6.4c-1.2-1.4-1.8-3.1-1.9-4.9
			c0-4.3,3.5-7.5,7.5-7.5c4.1,0,7.5,3.4,7.5,7.5c0,1.8-0.7,3.5-1.9,4.9c-2.3,2.6-3.3,5.3-3.6,6.4c-0.1,0.2-0.2,0.6-0.2,0.8l0,0h2.8
			l0,0c0.6-2,2.1-4.3,3-5.4c1.6-1.8,2.5-4.2,2.5-6.8C35.3,14.7,30.7,10.1,25.1,10.1z"/>
		<g>
			<path class="st1" d="M13.5,20.8c0-1-0.7-1.7-1.7-1.7H8.3c-1,0-1.7,0.7-1.7,1.7c0,1,0.7,1.7,1.7,1.7h3.4
				C12.6,22.5,13.5,21.7,13.5,20.8z"/>
			<path class="st1" d="M14.1,15.5c0.7-0.7,0.7-1.7,0-2.5l0,0l-2.5-2.5c-0.7-0.7-1.8-0.5-2.5,0.2c-0.6,0.7-0.6,1.6,0,2.2l2.5,2.5
				c0.3,0.3,0.7,0.5,1.2,0.5C13.3,16,13.8,15.7,14.1,15.5z"/>
			<path class="st1" d="M14.7,26.1c-0.7-0.7-1.7-0.7-2.5,0l0,0l-2.5,2.5c-0.7,0.7-0.5,1.8,0.2,2.5c0.7,0.6,1.6,0.6,2.2,0l2.5-2.5
				c0.3-0.3,0.5-0.7,0.5-1.2C15.2,26.9,15,26.4,14.7,26.1z"/>
		</g>
		<g>
			<path class="st1" d="M36.5,20.8c0-1,0.7-1.7,1.7-1.7h3.4c1,0,1.7,0.7,1.7,1.7c0,1-0.7,1.7-1.7,1.7h-3.4
				C37.4,22.5,36.5,21.7,36.5,20.8z"/>
			<path class="st1" d="M35.9,15.4c-0.7-0.7-0.7-1.7,0-2.5l0,0l2.5-2.5c0.7-0.7,1.8-0.5,2.5,0.2c0.6,0.7,0.6,1.6,0,2.2l-2.5,2.5
				c-0.3,0.3-0.7,0.5-1.2,0.5C36.7,16,36.2,15.7,35.9,15.4z"/>
			<path class="st1" d="M35.3,26.1c0.7-0.7,1.7-0.7,2.5,0l0,0l2.5,2.5c0.7,0.7,0.5,1.8-0.2,2.5c-0.7,0.6-1.6,0.6-2.2,0l-2.5-2.5
				c-0.3-0.3-0.5-0.7-0.5-1.2C34.8,26.9,35,26.4,35.3,26.1z"/>
		</g>
	</g>
</g>
</svg>
