<?xml version="1.0" encoding="utf-8"?>
<!-- Generator: Adobe Illustrator 23.0.2, SVG Export Plug-In . SVG Version: 6.00 Build 0)  -->
<svg version="1.1" id="Layer_1" xmlns="http://www.w3.org/2000/svg" xmlns:xlink="http://www.w3.org/1999/xlink" x="0px" y="0px"
	 viewBox="0 0 400.6 272" style="enable-background:new 0 0 400.6 272;" xml:space="preserve">
<style type="text/css">
	.st0{display:none;fill:#FBFCF2;}
	.st1{opacity:0.15;}
	.st2{fill:#3F5A7C;}
	.st3{fill:#FFFFFF;}
	.st4{fill:#324A5E;stroke:#324A5E;stroke-width:3;stroke-miterlimit:10;}
	.st5{opacity:0.2;}
	.st6{fill:#3F5A7C;stroke:#2E576D;stroke-width:6;stroke-linecap:round;stroke-linejoin:round;stroke-miterlimit:10;}
</style>
<title></title>
<path class="st0" d="M184.8,45.1c-20.5-0.3-39.8-8.3-57.6-16.9C103.5,16.8,79,3.2,50.7,3.9C37.5,4.2,24.1,8.1,14.8,16
	C4.5,24.8-0.1,37.6-0.1,50c-0.1,28.9,20.7,53.8,24.1,82.2c3,24.6-8.8,49.4-2.5,73.8c9.4,36.2,48.8,55.9,88.7,63
	c33,5.9,77.6,8.8,103.4-13.4c13.1-11.3,23.6-28.7,42.2-28.8c14.6-0.1,25.5,10.9,38.2,17.1c21.8,10.6,51.1,5.8,69.9-8.4
	c29.6-22.5,26.8-53.8,23.4-84.9c-1.9-18-0.6-36.1,3.8-53.7c4.3-17.5,13.6-34.5,7.4-52.6c-10.4-30.3-57.8-43.6-91-43
	c-25.2,0.4-49.6,7.2-71.6,17.4c-20.9,9.7-40,21.5-65.1,21"/>
<g>
	<g>
		<g id="Layer_1-2_1_">
			<g>
				<g class="st1">
					<path class="st2" d="M89.5,85.2h261.6c6.4,0,11.5,3.8,11.5,8.4v122c0,4.6-5.1,8.4-11.5,8.4H89.5c-6.4,0-11.5-3.8-11.5-8.4v-122
						C78,89,83.2,85.2,89.5,85.2z"/>
				</g>
				<path class="st3" d="M101.3,74.7h261.6c6.4,0,11.5,3.8,11.5,8.4v122.1c0,4.6-5.1,8.4-11.5,8.4H101.3c-6.4,0-11.5-3.8-11.5-8.4
					V83.1C89.8,78.4,94.9,74.7,101.3,74.7z"/>
				<path class="st4" d="M92.4,151.5v-50.8c0-6.1-0.6-12.3,0-18.4c0.5-5.4,6.3-6.4,12.2-6.4h56.2c3.7,0,3.7-4.2,0-4.2h-54.6
					c-4.8,0-9.5-0.2-13.7,2.1c-8.1,4.4-5.9,13.9-5.9,20.4v57.3C86.7,154.2,92.4,154.2,92.4,151.5L92.4,151.5z"/>
				<path class="st4" d="M92.4,164.9v-5.6c0-2.7-5.8-2.7-5.8,0v5.6C86.6,167.6,92.4,167.6,92.4,164.9z"/>
				<path class="st4" d="M293,211.5H103.3c-1,0-2,0-3-0.1c-6.9-0.6-7.8-5-7.8-9.1v-20.9c0-2.7-5.8-2.7-5.8,0v19.1
					c0,2.6-0.4,5.4,0.7,7.9c2,4.3,7.5,7.3,13.7,7.4c9.7,0.3,19.4,0,29.1,0h162.9C296.8,215.7,296.8,211.5,293,211.5L293,211.5z"/>
				<path class="st4" d="M191.4,75.9h158.4c5.3,0,14.8-1.2,18.9,1.9c3,2.2,2.5,5.1,2.5,7.9v117.1c0,4.2-1.6,8.4-8.6,8.7
					c-14.2,0.7-28.8,0-43.1,0h-4.9c-3.7,0-3.7,4.2,0,4.2h44.5c8.2,0,16.3-2.2,17.7-9.1c0.2-2,0.3-4,0.2-6V90.4c0-2.5,0.1-5.1,0-7.7
					c-0.2-6.1-5.9-10.8-14.4-11.1c-23.3-0.7-46.9,0-70.2,0h-101C187.7,71.7,187.7,75.9,191.4,75.9z"/>
				<g>
					<g class="st5">
						<path class="st6" d="M123.9,187.2h217.8c0.2-24.1-0.1-41.2,0-59.9H123.9C123.9,138.7,123.8,173.6,123.9,187.2z"/>
					</g>
					<g>
						<path class="st2" d="M125.3,108h123.1c5.2,0,5.2-9.3,0-9.3H125.3C120.1,98.6,120.1,108,125.3,108z"/>
					</g>
				</g>
				<circle class="st3" cx="155.1" cy="157.3" r="21"/>
				<g>
					<path class="st3" d="M195.3,172.5h123.1c5.2,0,5.2-7.2,0-7.2H195.3C190.1,165.3,190.1,172.5,195.3,172.5z"/>
				</g>
				<g>
					<path class="st3" d="M195.3,150.8h97.4c5.2,0,5.2-7.2,0-7.2h-97.4C190.1,143.6,190.1,150.8,195.3,150.8z"/>
				</g>
			</g>
		</g>
	</g>
</g>
<g>
	<g>
		<g id="Layer_1-2">
			<g>
				<g class="st1">
					<path class="st2" d="M30.5,20.2h261.6c6.4,0,11.5,3.8,11.5,8.4v122c0,4.6-5.1,8.4-11.5,8.4H30.5c-6.4,0-11.5-3.8-11.5-8.4v-122
						C19,24,24.2,20.2,30.5,20.2z"/>
				</g>
				<path class="st3" d="M42.3,9.7h261.6c6.4,0,11.5,3.8,11.5,8.4v122.1c0,4.6-5.1,8.4-11.5,8.4H42.3c-6.4,0-11.5-3.8-11.5-8.4V18.1
					C30.8,13.4,35.9,9.7,42.3,9.7z"/>
				<path class="st4" d="M33.4,86.5V35.6c0-6.1-0.6-12.3,0-18.4c0.5-5.4,6.3-6.4,12.2-6.4h56.2c3.7,0,3.7-4.2,0-4.2H47.2
					c-4.8,0-9.5-0.2-13.7,2.1c-8.1,4.4-5.9,13.9-5.9,20.4v57.3C27.7,89.2,33.4,89.2,33.4,86.5L33.4,86.5z"/>
				<path class="st4" d="M33.4,99.9v-5.6c0-2.7-5.8-2.7-5.8,0v5.6C27.6,102.6,33.4,102.6,33.4,99.9z"/>
				<path class="st4" d="M234,146.5H44.3c-1,0-2,0-3-0.1c-6.9-0.6-7.8-5-7.8-9.1v-20.9c0-2.7-5.8-2.7-5.8,0v19.1
					c0,2.6-0.4,5.4,0.7,7.9c2,4.3,7.5,7.3,13.7,7.4c9.7,0.3,19.4,0,29.1,0h162.9C237.8,150.7,237.8,146.5,234,146.5L234,146.5z"/>
				<path class="st4" d="M132.4,10.9h158.4c5.3,0,14.8-1.2,18.9,1.9c3,2.2,2.5,5.1,2.5,7.9v117.1c0,4.2-1.6,8.4-8.6,8.7
					c-14.2,0.7-28.8,0-43.1,0h-4.9c-3.7,0-3.7,4.2,0,4.2h44.5c8.2,0,16.3-2.2,17.7-9.1c0.2-2,0.3-4,0.2-6V25.4c0-2.5,0.1-5.1,0-7.7
					c-0.2-6.1-5.9-10.8-14.4-11.1c-23.3-0.7-46.9,0-70.2,0h-101C128.7,6.7,128.7,10.9,132.4,10.9z"/>
				<g>
					<g class="st5">
						<path class="st6" d="M64.9,122.2h217.8c0.2-24.1-0.1-41.2,0-59.9H64.9C64.9,73.7,64.8,108.6,64.9,122.2z"/>
					</g>
					<g>
						<path class="st2" d="M66.3,43h123.1c5.2,0,5.2-9.3,0-9.3H66.3C61.1,33.6,61.1,43,66.3,43z"/>
					</g>
				</g>
				<circle class="st3" cx="96.1" cy="92.3" r="21"/>
				<g>
					<path class="st3" d="M136.3,107.5h123.1c5.2,0,5.2-7.2,0-7.2H136.3C131.1,100.3,131.1,107.5,136.3,107.5z"/>
				</g>
				<g>
					<path class="st3" d="M136.3,85.8h97.4c5.2,0,5.2-7.2,0-7.2h-97.4C131.1,78.6,131.1,85.8,136.3,85.8z"/>
				</g>
			</g>
		</g>
	</g>
</g>
</svg>
