<?xml version="1.0" encoding="utf-8"?>
<!-- Generator: Adobe Illustrator 23.0.3, SVG Export Plug-In . SVG Version: 6.00 Build 0)  -->
<svg version="1.1" id="Layer_1" xmlns="http://www.w3.org/2000/svg" xmlns:xlink="http://www.w3.org/1999/xlink" x="0px" y="0px"
	 viewBox="0 0 400.6 272" style="enable-background:new 0 0 400.6 272;" xml:space="preserve">
<style type="text/css">
	.st0{display:none;fill:#FBFCF2;}
	.st1{opacity:0.15;}
	.st2{fill:#3F5A7C;}
	.st3{fill:#FFFFFF;}
	.st4{fill:#324A5E;stroke:#324A5E;stroke-width:3;stroke-miterlimit:10;}
	.st5{opacity:0.5;fill:#40C956;}
	.st6{opacity:0.5;fill:#F5A623;}
</style>
<title></title>
<g>
	<g>
		<g id="Layer_1-2_2_">
			<path class="st0" d="M146.1,64c-17.5,2.9-35.3-0.9-51.8-5.4c-22-6-45-13.8-69.1-8.8c-11.2,2.4-22,7.8-28.7,16
				c-7.5,9-9.4,20.7-7.4,31.2c4.4,24.7,26,42.7,33.4,66.4c6.4,20.5,0.2,43.5,9.4,63.4c13.7,29.4,50.4,40.1,85.5,39.9
				c29.1-0.1,67.6-4.6,86.1-27.5c9.4-11.7,15.7-28.2,31.5-31.2c12.4-2.4,23.5,5.3,35.3,8.6c20.3,5.6,44.5-3,58.3-18.1
				c21.8-23.8,14.5-50.1,6.7-76.1c-4.4-15.1-6.1-30.7-5.1-46.4c0.9-15.6,6.2-31.6-1.9-46C314.7,5.8,272.2,1.9,244,7.6
				c-21.4,4.3-41.2,13.9-58.4,26c-16.3,11.5-30.8,24.6-52.3,28.1"/>
			<g class="st1">
				<path class="st2" d="M32.7,82.1l233-42.5c5.6-1,11.1,2.7,12.1,8.4l27.1,148.5c1,5.6-2.7,11.1-8.4,12.1l-233,42.5
					c-5.6,1-11.1-2.7-12.1-8.4L24.4,94.2C23.3,88.6,27.1,83.1,32.7,82.1z"/>
			</g>
			<path class="st3" d="M41.3,70.8l233-42.5c5.6-1,11.1,2.7,12.1,8.4l27.1,148.5c1,5.6-2.7,11.1-8.4,12.1l-233,42.5
				c-5.6,1-11.1-2.7-12.1-8.4L32.9,83C31.9,77.3,35.6,71.9,41.3,70.8z"/>
			<path class="st4" d="M50.7,166.1l-11.2-61.4c-1.3-7.3-3.2-14.8-4.1-22.2c-0.8-6.6,4.2-8.7,9.4-9.7l50-9.1
				c3.3-0.6,2.4-5.7-0.9-5.1l-48.6,8.9c-4.4,0.8-8.5,1.4-11.7,4.8c-6.3,6.7-2.2,17.7-0.7,25.6L45.6,167
				C46.2,170.4,51.3,169.4,50.7,166.1L50.7,166.1z"/>
			<path class="st4" d="M53.7,182.3l-1.2-6.8c-0.6-3.3-5.7-2.4-5.1,0.9l1.2,6.8C49.2,186.6,54.3,185.7,53.7,182.3z"/>
			<path class="st4" d="M242.6,206l-169,30.8c-0.9,0.2-1.8,0.3-2.7,0.4c-6.3,0.4-8-4.8-8.9-9.7l-4.6-25.3c-0.6-3.3-5.7-2.4-5.1,0.9
				l4.2,23c0.6,3.1,0.9,6.6,2.3,9.4c2.7,4.9,8.3,7.6,13.8,6.6c8.7-1.2,17.3-3.2,25.9-4.7l145.1-26.5
				C246.9,210.5,246,205.3,242.6,206L242.6,206z"/>
			<path class="st4" d="M122.2,58.7l141-25.7c4.8-0.9,12.9-3.8,17.3-0.8c3.1,2.2,3.4,5.7,4,9.1l25.8,141.5c0.9,5.1,0.5,10.4-5.7,12
				c-12.5,3.2-25.7,4.7-38.3,7l-4.4,0.8c-3.3,0.6-2.4,5.7,0.9,5.1l39.6-7.2c7.3-1.3,14-5.4,13.7-13.9c-0.2-2.4-0.6-4.8-1.2-7.3
				L290.7,46c-0.6-3.1-1-6.2-1.7-9.3c-1.5-7.4-7.7-12.1-15.2-11.1c-20.9,2.9-41.7,7.6-62.6,11.4l-89.9,16.4
				C118,54.2,119,59.3,122.2,58.7z"/>
		</g>
		<polygon class="st5" points="87,217.1 113.7,165.1 162.9,170.5 195.8,100.6 236.6,140.6 253.6,115 288.6,179 		"/>
		<circle class="st6" cx="117.5" cy="117.8" r="24.8"/>
	</g>
</g>
<g>
	<g>
		<g id="Layer_1-2_1_">
			<path class="st0" d="M227.1,56.8c-17.6-2.2-33.5-10.9-48.1-20c-19.4-12.1-39.2-26.1-63.7-28.2C103.9,7.8,92,9.9,83.2,15.8
				c-9.8,6.5-14.9,17.1-16,27.8C64.4,68.6,80,92,80.2,116.8c0.3,21.5-12.2,41.8-9.1,63.4c4.7,32.1,36.8,52.8,70.6,62.7
				c27.9,8.2,66.1,14.9,90.4-1.8c12.4-8.5,23.1-22.5,39.1-20.9c12.6,1.3,21,11.8,31.3,18.3c17.8,11.2,43.5,9.8,61.1-0.7
				c27.6-16.6,28.2-43.9,28.2-71c0.1-15.7,2.9-31.2,8.3-45.9c5.4-14.7,15-28.5,11.3-44.7c-6.1-27.1-45.7-43-74.4-45.6
				c-21.8-2-43.4,1.5-63.4,8.3c-18.9,6.4-36.5,14.8-58.1,12"/>
			<g class="st1">
				<path class="st2" d="M113.3,41.8l235.4,25.7c5.7,0.6,9.8,5.8,9.2,11.5l-16.4,150c-0.6,5.7-5.8,9.8-11.5,9.2L94.6,212.5
					c-5.7-0.6-9.8-5.8-9.2-11.5l16.4-150C102.4,45.3,107.6,41.2,113.3,41.8z"/>
			</g>
			<path class="st3" d="M124.7,33.4l235.4,25.7c5.7,0.6,9.8,5.8,9.2,11.5l-16.4,150c-0.6,5.7-5.8,9.8-11.5,9.2L106,204.2
				c-5.7-0.6-9.8-5.8-9.2-11.5l16.4-150C113.8,37,119,32.8,124.7,33.4z"/>
			<path class="st4" d="M106.5,127.4l6.8-62.1c0.8-7.4,1.1-15.1,2.4-22.4c1.1-6.5,6.5-7.1,11.8-6.6l50.5,5.5
				c3.4,0.4,3.9-4.8,0.6-5.2l-49.1-5.4c-4.4-0.5-8.5-1.1-12.6,1.2c-7.9,4.6-7.1,16.3-8,24.3l-7.6,69.9
				C101,130.2,106.2,130.8,106.5,127.4L106.5,127.4z"/>
			<path class="st4" d="M104.8,143.8l0.8-6.9c0.4-3.4-4.8-3.9-5.2-0.6l-0.8,6.9C99.2,146.6,104.4,147.2,104.8,143.8z"/>
			<path class="st4" d="M279.1,220.4l-170.7-18.6c-0.9-0.1-1.8-0.2-2.8-0.4c-6.1-1.5-6.3-6.9-5.8-11.9l2.8-25.5
				c0.4-3.4-4.8-3.9-5.2-0.6l-2.5,23.3c-0.3,3.1-1.1,6.6-0.5,9.7c1.2,5.5,5.8,9.6,11.4,10.3c8.7,1.3,17.5,1.9,26.2,2.9l146.6,16
				C281.9,225.9,282.5,220.7,279.1,220.4L279.1,220.4z"/>
			<path class="st4" d="M205.7,44.9l142.5,15.6c4.8,0.5,13.4,0,16.8,4.2c2.4,3,1.7,6.5,1.3,9.9l-15.6,143c-0.6,5.2-2.5,10.1-8.9,9.8
				c-12.9-0.5-26-2.8-38.7-4.2l-4.4-0.5c-3.4-0.4-3.9,4.8-0.6,5.2l40,4.4c7.4,0.8,15-1.2,17.1-9.4c0.5-2.4,0.8-4.8,1-7.3l14.7-134.7
				c0.3-3.1,0.8-6.2,1-9.4c0.6-7.5-3.9-13.8-11.5-15c-20.9-3.1-42.2-4.6-63.2-6.9l-90.9-9.9C203,39.4,202.4,44.5,205.7,44.9z"/>
		</g>
		<polygon class="st5" points="126.8,186.6 167.2,144.4 212.8,163.7 264.3,106 291.9,156 315.6,136.3 330.9,207.7 		"/>
		<circle class="st6" cx="184.4" cy="100.2" r="24.8"/>
	</g>
</g>
</svg>
