<?xml version="1.0" encoding="utf-8"?>
<!-- Generator: Adobe Illustrator 23.0.3, SVG Export Plug-In . SVG Version: 6.00 Build 0)  -->
<svg version="1.1" id="Layer_1" focusable="false" xmlns="http://www.w3.org/2000/svg" xmlns:xlink="http://www.w3.org/1999/xlink"
	 x="0px" y="0px" viewBox="0 0 384 512" style="enable-background:new 0 0 384 512;" xml:space="preserve">
<style type="text/css">
	.st0{fill:#F22B43;}
</style>
<path class="st0" d="M181.9,256.1c-5-16-4.9-46.9-2-46.9C188.3,209.2,187.5,246.1,181.9,256.1z M180.2,303.3
	c-7.7,20.2-17.3,43.3-28.4,62.7c18.3-7,39-17.2,62.9-21.9C202,334.5,189.8,320.7,180.2,303.3L180.2,303.3z M86.1,428.1
	c0,0.8,13.2-5.4,34.9-40.2C114.3,394.2,91.9,412.4,86.1,428.1z M248,160h136v328c0,13.3-10.7,24-24,24H24c-13.3,0-24-10.7-24-24V24
	C0,10.7,10.7,0,24,0h200v136C224,149.2,234.8,160,248,160z M240,331.8c-20-12.2-33.3-29-42.7-53.8c4.5-18.5,11.6-46.6,6.2-64.2
	c-4.7-29.4-42.4-26.5-47.8-6.8c-5,18.3-0.4,44.1,8.1,77c-11.6,27.6-28.7,64.6-40.8,85.8c-0.1,0-0.1,0.1-0.2,0.1
	c-27.1,13.9-73.6,44.5-54.5,68c5.6,6.9,16,10,21.5,10c17.9,0,35.7-18,61.1-61.8c25.8-8.5,54.1-19.1,79-23.2
	c21.7,11.8,47.1,19.5,64,19.5c29.2,0,31.2-32,19.7-43.4C299.7,325.4,259.3,329.3,240,331.8z M377,105L279,7c-4.5-4.5-10.6-7-17-7h-6
	v128h128v-6.1C384,115.6,381.5,109.5,377,105z M302.9,360.3c4.1-2.7-2.5-11.9-42.8-9C297.2,367.1,302.9,360.3,302.9,360.3z"/>
</svg>
