<svg id="Capa_1" enable-background="new 0 0 512.007 512.007" height="512" viewBox="0 0 512.007 512.007" width="512" xmlns="http://www.w3.org/2000/svg"><g><g><g><g><g><g><path d="m.007 256.007c-1.027-140.163 113.787-255.015 256-256 141.382-.979 256 114.615 256 256s-114.615 256-256 256-254.965-114.619-256-256z" fill="#ffce00"/></g></g></g></g></g><path d="m512.007 256.007c0-9.592-.528-19.064-1.555-28.39l-105.298-105.298-32.873 26.653-101.277-101.278-30 65.484 67.045 67.045-50.433 50.433-81.17-81.17-21.213 21.213 81.17 81.17-49.395 49.395-52.445-52.445-74.556 30 121.26 121.26-56.08 29.15 77.127 77.127c17.3 3.702 35.26 5.65 53.694 5.65 141.384.001 255.999-114.615 255.999-255.999z" fill="#ffa300"/><g><path d="m361.563 378.602h-211.112v-134.878c0-58.297 47.259-105.556 105.556-105.556 58.297 0 105.556 47.259 105.556 105.556z" fill="#ff6c52"/></g><g><path d="m361.563 243.724c0-58.257-47.194-105.489-105.436-105.555v240.433h105.436z" fill="#ff432e"/></g><g><path d="m125.186 363.511h261.641v65.718h-261.641z" fill="#fff"/></g><g><path d="m256.127 363.511h130.7v65.718h-130.7z" fill="#e9edf5"/></g><g><circle cx="256.007" cy="230.589" fill="#ff9b87" r="33.231"/></g><g><path d="m289.238 230.589c0-18.313-14.813-33.162-33.11-33.228v66.455c18.296-.065 33.11-14.915 33.11-33.227z" fill="#ff6c52"/></g><g><path d="m241.004 47.695h30v65.484h-30z" fill="#fff"/></g><g><path d="m256.127 47.694h14.876v65.484h-14.876z" fill="#e9edf5"/></g><g><path d="m126.649 101.693h30v68.42h-30z" fill="#fff" transform="matrix(.707 -.707 .707 .707 -54.61 139.966)"/></g><g><path d="m60.007 248.819h74.556v30h-74.556z" fill="#fff"/></g><g><path d="m336.148 120.903h68.42v30h-68.42z" fill="#e9edf5" transform="matrix(.707 -.707 .707 .707 12.378 301.688)"/></g><g><path d="m377.444 248.819h74.556v30h-74.556z" fill="#e9edf5"/></g></g></svg>