<svg id="flat_final_copy" height="512" viewBox="0 0 512 512" width="512" xmlns="http://www.w3.org/2000/svg" data-name="flat final copy"><path d="m327.165 147.033a7.962 7.962 0 0 1 -4.334-1.281l-5.333-3.445c-.145-.094-.288-.194-.428-.3a18.54 18.54 0 0 1 -3.833-25.937 2.542 2.542 0 0 0 -.526-3.552l-3.63-2.694a8 8 0 0 1 9.536-12.848l3.632 2.7a18.559 18.559 0 0 1 3.834 25.936 2.541 2.541 0 0 0 .389 3.445l5.042 3.257a8 8 0 0 1 -4.349 14.72z" fill="#f9b534"/><path d="m393.847 63.668c-.136 0-.272 0-.409-.01a8 8 0 0 1 -7.588-8.392l.376-7.462a15.427 15.427 0 0 1 -14.058-16.142l.333-6.6a8 8 0 1 1 15.979.8l-.3 6.04a15.424 15.424 0 0 1 14.057 16.142l-.4 8.025a8 8 0 0 1 -7.99 7.599z" fill="#65d1df"/><path d="m255.711 134.729a8 8 0 0 1 -6.717-3.644l-4.682-7.21q-.141-.219-.269-.446a22.3 22.3 0 0 1 8.536-30.314 6.267 6.267 0 0 0 2.4-8.532l-2.994-5.342a8 8 0 1 1 13.956-7.824l2.994 5.342a22.266 22.266 0 0 1 -8.535 30.313 6.278 6.278 0 0 0 -2.5 8.351l4.512 6.947a8 8 0 0 1 -6.7 12.359z" fill="#65d1df"/><path d="m250.717 46.794a8 8 0 0 1 -7.142-11.594 22.173 22.173 0 0 1 9-9.413 6.276 6.276 0 0 0 2.4-8.533l-2.994-5.342a8 8 0 1 1 13.956-7.824l2.994 5.342a22.293 22.293 0 0 1 -8.531 30.313 6.217 6.217 0 0 0 -2.531 2.641 8 8 0 0 1 -7.152 4.41z" fill="#64a053"/><path d="m461.649 125.88h-.1a22.294 22.294 0 0 1 -22-22.536 6.278 6.278 0 0 0 -6.187-6.344l-6.122-.073a8 8 0 0 1 .093-16h.1l6.124.073a22.3 22.3 0 0 1 22 22.534 6.277 6.277 0 0 0 5.985 6.34l8.272-.439a8 8 0 1 1 .846 15.978l-8.584.455c-.144.008-.285.012-.427.012z" fill="#f9b534"/><path d="m338.544 76.752a8.016 8.016 0 0 1 -1.806-.207l-9.143-2.11a18.538 18.538 0 0 1 -13.895-22.235 2.542 2.542 0 0 0 -1.9-3.044l-11.113-2.565a8 8 0 1 1 3.6-15.59l11.113 2.566a18.561 18.561 0 0 1 13.891 22.233 2.537 2.537 0 0 0 1.9 3.045l9.144 2.11a8 8 0 0 1 -1.793 15.8z" fill="#f7685f"/><path d="m381.512 125.054a7.993 7.993 0 0 1 -6.646-3.537l-6.459-9.6a8 8 0 0 1 13.278-8.928l6.458 9.605a8 8 0 0 1 -6.631 12.465z" fill="#64a053"/><path d="m184.835 147.033a8 8 0 0 1 -4.349-14.72l5.042-3.257a2.54 2.54 0 0 0 .389-3.444 18.56 18.56 0 0 1 3.833-25.936l3.633-2.7a8 8 0 0 1 9.536 12.848l-3.631 2.7a2.542 2.542 0 0 0 -.525 3.552 18.539 18.539 0 0 1 -3.833 25.936c-.14.1-.283.2-.428.3l-5.333 3.445a7.964 7.964 0 0 1 -4.334 1.276z" fill="#f7685f"/><path d="m118.153 63.668a8 8 0 0 1 -7.983-7.6l-.4-8.025a15.424 15.424 0 0 1 14.054-16.143l-.3-6.04a8 8 0 1 1 15.979-.8l.333 6.6a15.427 15.427 0 0 1 -14.062 16.14l.376 7.462a8 8 0 0 1 -7.588 8.392c-.137.011-.273.014-.409.014z" fill="#65d1df"/><path d="m50.351 125.88c-.142 0-.283 0-.424-.011l-8.584-.455a8 8 0 1 1 .846-15.978l8.272.439a6.277 6.277 0 0 0 5.985-6.339 22.3 22.3 0 0 1 21.998-22.536l6.125-.073a8 8 0 1 1 .191 16l-6.123.073a6.278 6.278 0 0 0 -6.192 6.345 22.293 22.293 0 0 1 -22 22.535z" fill="#f9b534"/><path d="m173.456 76.752a8 8 0 0 1 -1.793-15.8l9.143-2.11a2.536 2.536 0 0 0 1.9-3.044 18.562 18.562 0 0 1 13.9-22.234l11.111-2.564a8 8 0 1 1 3.6 15.59l-11.117 2.567a2.541 2.541 0 0 0 -1.9 3.045 18.539 18.539 0 0 1 -13.9 22.233l-9.142 2.11a8.016 8.016 0 0 1 -1.802.207z" fill="#f9b534"/><path d="m130.488 125.054a8 8 0 0 1 -6.631-12.465l6.458-9.605a8 8 0 0 1 13.278 8.928l-6.459 9.6a7.994 7.994 0 0 1 -6.646 3.542z" fill="#64a053"/><path d="m201.771 255.689-57.771 66.198-14.839 3.164h-24.535l-14.839-3.164-73.311-84.008-4.649 4.8a13.59 13.59 0 0 0 -1.616 16.883l61.026 93.478a58.492 58.492 0 0 1 8.521 30.4v34.39h74.272v-34.39a58.493 58.493 0 0 1 8.522-30.4l55.083-84.375z" fill="#fcd3c4"/><path d="m79.759 415.916h74.272v87.867h-74.272z" fill="#4e6078"/><path d="m116.935 442.283a3.085 3.085 0 0 0 -3.085 3.084v58.416h6.17v-58.416a3.085 3.085 0 0 0 -3.085-3.084z" fill="#47576d"/><path d="m79.759 417.831h74.272v5.966h-74.272z" fill="#47576d"/><path d="m144 321.887-14.839 3.164h-24.535l-14.839-3.164-57.769-66.2-15.865 12.98 55.084 84.376a58.487 58.487 0 0 1 8.522 30.4v34.39h74.271v-34.39a58.487 58.487 0 0 1 8.522-30.4l55.083-84.376-15.864-12.978z" fill="#f7685f"/><path d="m116.783 313.242c-2.158 0-6.262-1.685-9.93-4.906a22.17 22.17 0 0 1 -2.823-2.971v22.461s2.3 10.706 13.371 10.706 12.224-10.706 12.224-10.706v-22.542c-3.653 4.625-9.548 7.958-12.842 7.958z" fill="#fcd3c4"/><path d="m116.827 323.073c7.249-2.63 11.677-5.675 12.8-8.12v-9.669c-3.653 4.625-9.548 7.958-12.842 7.958-2.158 0-6.262-1.685-9.93-4.906a22.17 22.17 0 0 1 -2.823-2.971v22.461a15.645 15.645 0 0 0 3.941 6.992c.002-5.61 2.515-9.446 8.854-11.745z" fill="#ffc7b5"/><path d="m129.383 272.365c-3.767 2.671-5.674 3.759-9.416 3.759a25.767 25.767 0 0 1 -3.485-.268 26.82 26.82 0 0 1 -10.149-3.476l-5.617-3.788-2.324 6.364a27.413 27.413 0 0 1 -2.86 5v17.334c0 11.737 13.781 21.251 21.251 21.251s21.339-9.514 21.339-21.251v-24.3a6.673 6.673 0 0 0 -4.729-1.94 6.916 6.916 0 0 0 -4.01 1.315z" fill="#fcd3c4"/><path d="m144.187 248.137s-4.234 5-9.253 4c-6.311-1.258-11.046-4.861-23.493-4.861-9.234 0-22.973 2.18-26.02 16.33-3.29 15.273 10.111 24.045 10.111 24.045a12.63 12.63 0 0 0 3.063-2.908 33.794 33.794 0 0 0 4.775-7.974 31.85 31.85 0 0 0 12.385 4.331c8.269 1.147 11.746-.909 16.694-4.417 3.718-2.636 5.673 10.968 5.673 10.968s6.974-6 9.094-10.652c7.925-17.371-3.029-28.862-3.029-28.862z" fill="#56585e"/><path d="m310.229 255.689 57.771 66.198 14.839 3.164h24.537l14.839-3.164 73.311-84.008 4.649 4.8a13.59 13.59 0 0 1 1.616 16.883l-61.026 93.478a58.492 58.492 0 0 0 -8.521 30.4v34.39h-74.274v-34.39a58.493 58.493 0 0 0 -8.522-30.4l-55.083-84.375z" fill="#fcd3c4"/><path d="m357.97 415.916h74.272v87.867h-74.272z" fill="#4e6078"/><path d="m395.146 442.283a3.085 3.085 0 0 0 -3.085 3.084v58.416h6.17v-58.416a3.085 3.085 0 0 0 -3.085-3.084z" fill="#47576d"/><path d="m357.97 417.831h74.272v5.966h-74.272z" fill="#47576d"/><path d="m422.213 321.887-14.839 3.164h-24.537l-14.837-3.164-57.769-66.2-15.864 12.978 55.083 84.376a58.487 58.487 0 0 1 8.522 30.4v34.39h74.271v-34.39a58.487 58.487 0 0 1 8.522-30.4l55.084-84.376-15.865-12.978z" fill="#f9b534"/><path d="m394.994 313.242c-2.158 0-6.262-1.685-9.93-4.906a22.17 22.17 0 0 1 -2.823-2.971v22.461s2.3 10.706 13.371 10.706 12.224-10.706 12.224-10.706v-22.542c-3.653 4.625-9.548 7.958-12.842 7.958z" fill="#fcd3c4"/><path d="m395.038 323.073c7.249-2.63 11.677-5.675 12.8-8.12v-9.669c-3.653 4.625-9.548 7.958-12.842 7.958-2.158 0-6.262-1.685-9.93-4.906a22.17 22.17 0 0 1 -2.823-2.971v22.461a15.645 15.645 0 0 0 3.941 6.992c.002-5.61 2.516-9.446 8.854-11.745z" fill="#ffc7b5"/><path d="m407.594 272.365c-3.767 2.671-5.674 3.759-9.416 3.759a25.779 25.779 0 0 1 -3.485-.268 26.82 26.82 0 0 1 -10.149-3.476l-5.617-3.788-2.324 6.364a27.413 27.413 0 0 1 -2.86 5v17.334c0 11.737 13.781 21.251 21.251 21.251s21.339-9.514 21.339-21.251v-24.3a6.673 6.673 0 0 0 -4.729-1.94 6.916 6.916 0 0 0 -4.01 1.315z" fill="#fcd3c4"/><path d="m422.4 248.137s-4.234 5-9.253 4c-6.311-1.258-11.046-4.861-23.493-4.861-9.234 0-22.973 2.18-26.02 16.33-3.29 15.273 10.111 24.045 10.111 24.045a12.61 12.61 0 0 0 3.063-2.908 33.794 33.794 0 0 0 4.775-7.974 31.85 31.85 0 0 0 12.385 4.331c8.269 1.147 11.746-.909 16.694-4.417 3.718-2.636 5.673 10.968 5.673 10.968s6.974-6 9.094-10.652c7.923-17.371-3.029-28.862-3.029-28.862z" fill="#56585e"/><path d="m209.091 389.844h96.31v113.939h-96.31z" fill="#4e6078"/><path d="m316.452 308.314 79.134-121.214a17.624 17.624 0 0 0 -2.1-21.893l-6.028-6.227-95.058 108.935-19.242 4.1h-31.821l-19.242-4.1-95.064-108.936-6.031 6.227a17.624 17.624 0 0 0 -2.1 21.893l79.134 121.215a75.845 75.845 0 0 1 11.05 39.419v44.593h96.316v-44.593a75.845 75.845 0 0 1 11.052-39.419z" fill="#fcd3c4"/><path d="m257.3 424.034a4 4 0 0 0 -4 4v75.749h8v-75.749a4 4 0 0 0 -4-4z" fill="#47576d"/><path d="m209.091 392.326h96.31v7.736h-96.31z" fill="#47576d"/><path d="m292.4 267.915-19.242 4.1h-31.821l-19.242-4.1-74.91-85.841-20.572 16.826 71.428 109.411a75.845 75.845 0 0 1 11.05 39.419v44.593h96.309v-44.59a75.845 75.845 0 0 1 11.05-39.419l71.43-109.414-20.572-16.829z" fill="#65d1df"/><path d="m257.1 256.705c-2.8 0-8.12-2.186-12.876-6.363a28.81 28.81 0 0 1 -3.662-3.853v29.126s2.984 13.885 17.338 13.885 15.851-13.884 15.851-13.884v-29.23c-4.733 5.996-12.377 10.319-16.651 10.319z" fill="#fcd3c4"/><path d="m257.159 269.452c9.4-3.41 15.142-7.358 16.6-10.529v-12.538c-4.736 6-12.38 10.319-16.652 10.319-2.8 0-8.12-2.185-12.876-6.362a28.81 28.81 0 0 1 -3.662-3.853v29.126a20.3 20.3 0 0 0 5.111 9.067c.001-7.274 3.259-12.248 11.479-15.23z" fill="#ffc7b5"/><path d="m273.441 203.7c-4.885 3.464-7.358 4.875-12.21 4.875a33.407 33.407 0 0 1 -4.519-.349 34.771 34.771 0 0 1 -13.161-4.507l-7.284-4.911-3.013 8.252a35.531 35.531 0 0 1 -3.709 6.484v22.476c0 15.219 17.871 27.557 27.557 27.557s27.671-12.338 27.671-27.557v-31.511a8.65 8.65 0 0 0 -6.133-2.517 8.972 8.972 0 0 0 -5.199 1.708z" fill="#fcd3c4"/><path d="m292.638 172.281s-5.491 6.49-12 5.193c-8.183-1.631-14.324-6.3-30.464-6.3-11.974 0-29.789 2.826-33.741 21.176-4.266 19.8 13.111 31.179 13.111 31.179a16.365 16.365 0 0 0 3.972-3.771 43.82 43.82 0 0 0 6.192-10.34 41.309 41.309 0 0 0 16.059 5.617c10.724 1.486 15.232-1.179 21.648-5.728 4.821-3.418 7.357 14.222 7.357 14.222s9.043-7.785 11.793-13.812c10.277-22.536-3.927-37.436-3.927-37.436z" fill="#56585e"/></svg>