<?xml version="1.0" encoding="utf-8"?>
<!-- Generator: Adobe Illustrator 25.4.1, SVG Export Plug-In . SVG Version: 6.00 Build 0)  -->
<svg version="1.1" id="Layer_1" xmlns="http://www.w3.org/2000/svg" xmlns:xlink="http://www.w3.org/1999/xlink" x="0px" y="0px"
	 viewBox="0 0 1103.1 1090.3" style="enable-background:new 0 0 1103.1 1090.3;" xml:space="preserve">
<style type="text/css">
	.st0{fill:#FFFFFF;}
	.st1{fill:#23469A;}
	.st2{fill:#8CC542;}
	.st3{fill:#8CC641;}
	.st4{fill:#EB1F76;}
	.st5{fill:#EC1E76;}
	.st6{fill:#E32376;}
</style>
<image style="display:none;overflow:visible;" width="1008" height="1024" xlink:href="../Downloads/MicrosoftTeams-image (9).jpg"  transform="matrix(1 0 0 1 54 33.1429)">
</image>
<g>
	<g>
		<path class="st0" d="M743.4,395.3c-0.9-0.5-1.7-1-2.4-1.4c-9.2-5.5-19.4-8-29.9-8.5c-3.8-0.2-7,1.8-8.6,5.7
			c-3.3,8.3-7.6,16.4-10,25c-8.6,30.9-16.6,62-24.9,93c-1.5,5.5-1.2,11.7-6.2,15.9c-6.3,5.2-5.7,11.8-3.8,18.7
			c0.7,2.6,1.1,5.6,0.8,8.2c-3.9,27.8-8,55.6-12,83.4c-0.4,2.9-1.5,4.3-4.5,4.8c-44.7,8-88.8,18.9-132.3,32
			c-1.6,0.5-3.4,0.8-6.3,1.4c2.4-43.8,13.6-84.9,24.1-126c10.5-41.2,21.2-82.5,38.2-121.7c-6.3-5.1-24.3-9.7-32-8.4
			c-3.6,0.6-6,2.3-7.3,5.9c-6.8,19.3-14.1,38.4-20.7,57.8c-4.7,14-8.6,28.3-12.5,41.4c-3.6,0-6.6-0.3-9.5,0.1c-12,1.7-24,3.5-36,5.4
			c-3.2,0.5-4.7-0.3-4.3-3.8c2.2-19.8,4.2-39.7,6.6-59.5c0.7-5.4-0.7-9.6-5.4-11.6c-8.9-3.9-18-7.5-27.2-10.7
			c-6.2-2.2-11.7-0.7-16,4.7c-2.2,2.7-5,4.9-7.3,7.5c-27.3,29.6-50.8,62.1-73.4,95.3c-2.5,3.6-5.2,5.3-9.3,6.5
			c-22.1,6.3-44.1,12.8-66,19.6c-8,2.5-13.7,16.8-10.3,25.5c21.2-8.8,42.5-17.2,66.2-23.3c-2,3.3-3.2,5.2-4.4,7.2
			c-13.5,22.7-27.7,45.1-40.4,68.3c-9,16.4-16.4,33.8-24,51c-1.2,2.8-0.8,7.8,1,10.1c9.2,12.2,22.7,16.3,37.2,18.8
			c0.4-2.7,0.4-4.7,1-6.6c6.2-19.5,11.3-39.4,19.2-58.2c13.9-32.9,29.5-65.2,44.5-97.6c0.9-1.9,3.4-3.7,5.5-4.3
			c14.6-4.1,29.2-7.9,43.9-11.7c5.4-1.4,10.8-2.5,16.8-3.8c-0.8,14.8-1.5,28.7-2.2,42.7c-2.1,41.5-2.9,82.9-0.6,124.4
			c0.4,6.5,0.3,13.7,7,17.8c9.8,5.9,19.6,11.8,29.7,17.3c2.8,1.5,6.2,1.8,10,2.8c-1.3-4-2.7-6.9-3.1-9.9
			c-1.9-14.8-4.8-29.7-4.9-44.6c-0.1-39.6,1-79.3,2-118.9c0.3-12.3,1.7-24.6,2.4-36.9c0.2-3.2,1.6-4.3,4.4-4.8
			c8.2-1.4,16.4-2.8,24.5-4.7c6.7-1.6,14.4,0.1,20.1-6.8c-0.3,1.7-0.3,2.6-0.5,3.5c-5.1,20.3-10.9,40.5-15.3,60.9
			c-5,23.2-8.8,46.7-13.1,70c-2.4,13,2.3,23.3,13.3,29.9c7.1,4.3,15.2,7.2,23.2,9.8c2.9,0.9,7.1,0.1,9.9-1.4
			c43.1-22.4,89.1-36.7,136.1-48c1.9-0.4,4.5,0.4,6.2,1.5c9.6,6.4,20,10.5,31.4,12.3c1.2,0.2,2.4-0.1,3.3-0.2
			c0-11.3-1-22.1,0.2-32.7c2.2-20.2,5.1-40.3,8.7-60.2c4.2-23.4,9.3-46.6,14.2-69.9c0.4-2.1,1.9-4,3.4-6.9c1.2,2.2,1.8,3,2.2,3.8
			c19.2,41.2,40.1,81.6,63.6,120.5c8.7,14.5,18.7,28.3,28.8,41.9c5.6,7.5,10.3,8.4,18.1,3.4c8.4-5.3,16.2-11.6,23.8-18
			c3.1-2.6,5.1-6.5,8-10.2c-9.6-2.3-16.6-7.1-22.1-13.3c-13-14.3-25.9-28.7-37.6-44c-23.4-30.4-42.6-63.6-61.1-97.2
			c-2.1-3.8-1.9-6,1.5-8.8c17.3-14.6,34.1-29.8,51.6-44.2c27.7-22.8,54.6-46.7,87.1-63.2c-0.1-0.2,0-0.8-0.3-1.2
			c-6.4-7.9-20.1-10.3-28.7-4.9c-3,1.9-5.9,3.7-8.7,5.8c-35.9,26.4-69.1,56-102.3,85.5c-5.5,4.9-11,9.8-17.1,15.3
			C719.4,457.5,733.9,406.8,743.4,395.3z M179.6,511.1c0.1,1.3,0.2,1.7,0.2,2c-2.1,7-4.3,14-6.3,21
			c-15.4,55.3-27.7,111.3-36.6,168.1c-3,19.4-6.2,38.8-4.2,58.6c0.3,2.9,2.2,6.8,4.6,8c8.5,4.4,17.4,8.1,26.3,11.5
			c2.6,1,5.8,0.5,7.7,0.6c0-8.7-0.9-16.9,0.2-24.9c4.4-33,8.6-66,14.4-98.7c5.2-28.9,11.8-57.7,18.9-86.2
			c5.6-22.7,12.9-45.1,19.6-67.6c0.6-1.8,2.6-4.2,4.3-4.6c20.3-4.2,40.7-8.2,61.1-12c8.7-1.6,11.1-4,12-13.8c-1.6,0-3.2-0.2-4.8,0
			c-17.8,2.1-35.7,4.1-53.5,6.6c-10.1,1.4-19.9,3.5-29.8-0.9c-2.1-0.9-4.5-1.3-6.8-1.5c-11.8-0.6-11.7-1.4-16.6,8.3
			c-0.8,1.5-2.6,3-4.2,3.4c-7.1,1.6-14.4,2.7-21.6,4.2c-27.2,5.5-54.4,11.3-80.6,20.7c-2,0.7-4.4,1.5-5.5,3.1
			c-5.6,8.2-7.4,17.5-7.7,28.1C106.4,530.7,142.7,520.8,179.6,511.1z M659.6,148c-15.1,0-25.7,3.2-36.4,10.3
			c-24.3,16.3-42,49.9-18.5,83.1c2.2,3.1,0.9,4.5-1.5,6.4c-19.5,16.4-36.6,35-48,58.1c-3.6,7.2-6.1,14.9-4.1,23.1
			c2.9,11.8,11.5,18.4,22.1,22.6c19.1,7.4,38.8,7.2,58.5,2.8c21.5-4.9,40.9-14.1,55.7-31.2c11.3-13,11.9-27.5,2.2-41.7
			c-2.7-4-5.7-7.8-8.5-11.7c-14.6-20.5-29.6-40.6-43.4-61.6c-5-7.7-8-17.3-9.7-26.4c-2-11,5.7-18.3,17-18.3c9.3,0,15,5.5,17.2,13.4
			c3.2,11.6,5,23.6,7.2,35.5c0.8,4.3,2.9,5.8,5.7,3c10.4-10.4,19.8-21.6,25-35.7c1.4-3.8,1-7.1-1.2-10.4
			C688.7,154.1,673.4,149,659.6,148z M590.4,108.9c-7.8-5.3-16.4-6.8-25.5-7.1c-10.8-0.4-13.7,1.1-15.4,11.7
			c-2.6,16.9-4.4,33.9-5.9,50.9c-0.8,8.5,5.6,14.3,14.3,14.1c1.2,0,3-1.4,3.4-2.6C569.3,152.9,578.8,130.7,590.4,108.9z"/>
		<path class="st1" d="M523.3,1054.9c0-46.8,0.1-93.7-0.1-140.5c0-5,1.3-6.4,6.4-6.4c123.7,0.1,247.3,0.1,371,0.1c1.6,0,3.3,0,5.6,0
			c0,2.4,0,4.3,0,6.3c0,44.7,0,89.3,0,134c0,2.2,0.1,4.3,0.1,6.5C778.6,1054.9,651,1054.9,523.3,1054.9z M616.2,940.1
			c-15.4-11.2-31.4-15.4-49.2-10.5c-13.1,3.6-19.9,12.3-20.6,25c-0.8,13,4.4,21,17.4,26.6c3.3,1.5,6.8,2.6,10.3,3.7
			c4.9,1.6,9.9,2.8,14.8,4.5c4.4,1.5,7.2,4.5,6.2,9.5c-0.9,4.9-4.6,6.6-9.1,7c-7.3,0.8-13.8-1.4-19.9-5.2c-3.7-2.4-7.3-5-11.1-7.6
			c-3.6,4.4-6.9,8.6-10.4,12.6c-2.2,2.4-1.5,3.9,0.7,5.7c13.1,10.9,28,15.8,45,13.7c16.2-2,27-12.9,27.4-27.4
			c0.3-14.2-5.6-22.5-20.3-27.8c-7.5-2.7-15.2-4.6-22.8-7.2c-3.7-1.3-6.2-4.1-5.5-8.4c0.7-4.6,4-6.8,8.4-7.1
			c3.1-0.2,6.5-0.4,9.4,0.6c6.2,2,12.2,4.8,19,7.5C608.9,950.6,612.3,945.7,616.2,940.1z M739.9,1023.9c0-16.9,1.5-33.6-0.4-50
			c-2.5-22-25.2-30.6-43.3-17.9c-0.8,0.5-1.6,0.9-3.1,1.9c0-2.4,0-4,0-5.6c0-8,0.1-16-0.1-24c0-1.5-1.6-4.1-2.5-4.2
			c-5.9-0.4-11.9-0.2-18.1-0.2c0,33.7,0,66.7,0,100c6.9,0,13.5,0,20.7,0c0-2.3,0-4.2,0-6.2c0-11.3-0.2-22.7,0-34
			c0.2-9.3,6.5-15.8,14.7-15.7c7.4,0.1,11.3,5.1,11.5,15.2c0.2,11.5,0.1,23,0.1,34.5c0,1.9,0,3.9,0,6.1
			C726.6,1023.9,733.2,1023.9,739.9,1023.9z M819.5,1024c0.2-0.8,0.6-1.5,0.6-2.1c0-15.5,0.3-31-0.1-46.5
			c-0.2-8.7-3.4-16.3-11.6-20.8c-9.6-5.3-19.7-5.5-30.1-3.4c-7.7,1.6-14.8,4.5-21.3,9.7c3.2,4.7,6.2,9,9.2,13.3
			c7.6-4.8,14.9-7.7,23.3-7.1c6.4,0.5,9.3,3.8,9.3,11.5c-7.3,0-14.6-0.4-21.8,0.1c-13.9,1-22.4,9-22.8,20.6
			c-0.5,13.8,8.7,24.1,22.6,25.8c8.9,1,16.7-1,23.2-8.2c0.4,3,0.6,4.9,0.8,7C807.2,1024,813.3,1024,819.5,1024z M878.3,1002.1
			c-1.4,1.1-1.9,1.9-2.6,2.1c-3.2,0.8-7.2,2.9-9.6,1.8c-2.3-1.1-3.6-5.4-4.4-8.6c-0.7-3.2-0.2-6.6-0.2-10c0-6.8,0-13.5,0-20.8
			c5,0,9.3,0.2,13.6-0.1c1.3-0.1,3.6-1.5,3.7-2.5c0.4-4,0.2-8.1,0.2-12.6c-4.8,0-9-0.2-13.1,0.1c-3.6,0.3-4.6-1.2-4.5-4.6
			c0.2-5.6,0.1-11.2,0.1-16.9c-7.3,0-13.8,0-21,0c0,4.6,0,8.9,0,13.2c0,7.7,0,7.7-7.3,8.5c-0.3,0-0.5,0.4-1.2,0.9c0,3,0.1,6.3,0,9.6
			c-0.2,3.1,0.7,4.9,4.1,4.5c3.6-0.4,4.5,1.4,4.4,4.7c-0.1,10.3-0.2,20.6,0.3,30.9c0.5,10.6,6.8,18.6,16.3,21.7
			c10.3,3.4,21.7,0.2,28.6-8.1C883.4,1011.6,881,1007.1,878.3,1002.1z M633.2,951.6c0,24.3,0,48.2,0,72.3c6.9,0,13.5,0,20,0
			c0-24.3,0-48.3,0-72.3C646.4,951.6,640.1,951.6,633.2,951.6z M643.2,946.2c7,0,12.1-4.9,12.3-11.7c0.2-6.9-5.2-12.6-12-12.6
			c-6.8-0.1-12.3,5.5-12.3,12.4C631.2,941.1,636.3,946.1,643.2,946.2z"/>
		<path class="st0" d="M616.2,940.1c-3.9,5.6-7.4,10.6-10.4,15c-6.7-2.7-12.7-5.4-19-7.5c-2.9-0.9-6.3-0.8-9.4-0.6
			c-4.4,0.3-7.6,2.5-8.4,7.1c-0.7,4.3,1.8,7.1,5.5,8.4c7.5,2.6,15.3,4.5,22.8,7.2c14.7,5.3,20.7,13.6,20.3,27.8
			c-0.4,14.4-11.2,25.4-27.4,27.4c-17,2.1-31.9-2.8-45-13.7c-2.2-1.8-2.9-3.3-0.7-5.7c3.5-4,6.8-8.2,10.4-12.6
			c3.8,2.6,7.3,5.2,11.1,7.6c6,3.8,12.6,6,19.9,5.2c4.5-0.5,8.2-2.2,9.1-7c1-5-1.8-8-6.2-9.5c-4.9-1.7-9.9-2.9-14.8-4.5
			c-3.5-1.1-7-2.3-10.3-3.7c-13-5.6-18.1-13.6-17.4-26.6c0.8-12.7,7.6-21.4,20.6-25C584.8,924.7,600.8,928.8,616.2,940.1z"/>
		<path class="st0" d="M739.9,1023.9c-6.7,0-13.3,0-20.6,0c0-2.2,0-4.2,0-6.1c0-11.5,0.1-23-0.1-34.5c-0.2-10.1-4.1-15-11.5-15.2
			c-8.2-0.2-14.5,6.3-14.7,15.7c-0.2,11.3-0.1,22.7,0,34c0,2,0,3.9,0,6.2c-7.2,0-13.8,0-20.7,0c0-33.3,0-66.3,0-100
			c6.2,0,12.1-0.2,18.1,0.2c1,0.1,2.5,2.7,2.5,4.2c0.3,8,0.1,16,0.1,24c0,1.6,0,3.2,0,5.6c1.6-0.9,2.4-1.4,3.1-1.9
			c18.2-12.7,40.8-4,43.3,17.9C741.4,990.3,739.9,1007.1,739.9,1023.9z"/>
		<path class="st0" d="M819.5,1024c-6.2,0-12.3,0-18.8,0c-0.3-2.1-0.5-4-0.8-7c-6.5,7.1-14.4,9.2-23.2,8.2
			c-13.9-1.6-23-12-22.6-25.8c0.4-11.6,8.9-19.6,22.8-20.6c7.3-0.5,14.6-0.1,21.8-0.1c0-7.7-2.9-11.1-9.3-11.5
			c-8.3-0.6-15.7,2.4-23.3,7.1c-3-4.3-5.9-8.6-9.2-13.3c6.5-5.3,13.6-8.2,21.3-9.7c10.4-2.1,20.5-1.9,30.1,3.4
			c8.2,4.5,11.4,12.1,11.6,20.8c0.4,15.5,0.1,31,0.1,46.5C820.1,1022.5,819.7,1023.1,819.5,1024z M798.2,992.9
			c-6,0.4-12.1,0.3-18.1,1.4c-5.5,1.1-6.9,7.7-2.8,11.3c3.3,3,10.8,3.3,15.6,0.6C797.8,1003.5,799.5,999.7,798.2,992.9z"/>
		<path class="st0" d="M878.3,1002.1c2.7,5,5.1,9.5,7.4,13.9c-6.9,8.3-18.3,11.4-28.6,8.1c-9.5-3.1-15.8-11.1-16.3-21.7
			c-0.4-10.3-0.3-20.6-0.3-30.9c0-3.3-0.8-5.1-4.4-4.7c-3.4,0.4-4.3-1.4-4.1-4.5c0.2-3.3,0-6.6,0-9.6c0.7-0.5,0.9-0.9,1.2-0.9
			c7.3-0.9,7.3-0.9,7.3-8.5c0-4.3,0-8.6,0-13.2c7.2,0,13.7,0,21,0c0,5.7,0.2,11.3-0.1,16.9c-0.1,3.4,0.8,4.9,4.5,4.6
			c4.1-0.3,8.3-0.1,13.1-0.1c0,4.4,0.3,8.5-0.2,12.6c-0.1,1-2.3,2.4-3.7,2.5c-4.3,0.3-8.6,0.1-13.6,0.1c0,7.2,0,14,0,20.8
			c0,3.3-0.6,6.8,0.2,10c0.7,3.1,2,7.5,4.4,8.6c2.4,1.1,6.3-0.9,9.6-1.8C876.4,1004,877,1003.2,878.3,1002.1z"/>
		<path class="st0" d="M633.2,951.6c6.9,0,13.2,0,20,0c0,24,0,48,0,72.3c-6.5,0-13.1,0-20,0C633.2,999.8,633.2,975.9,633.2,951.6z"
			/>
		<path class="st0" d="M643.2,946.2c-6.9,0-12-5.1-12-11.9c0-6.9,5.4-12.5,12.3-12.4c6.8,0.1,12.2,5.7,12,12.6
			C655.3,941.3,650.1,946.2,643.2,946.2z"/>
		<path class="st0" d="M347.9,547c18.1-32.9,38.4-63,61.7-91c0.4,0.1,0.9,0.2,1.3,0.3c-0.6,6.1-1.1,12.2-1.7,18.3
			c-1.9,19-3.8,38.1-5.6,57.1c-0.3,2.6-0.4,4.8-3.8,5.4c-15.8,3.1-31.6,6.4-47.4,9.6C351.3,547,350.2,546.9,347.9,547z"/>
		<path class="st1" d="M798.2,992.9c1.2,6.8-0.5,10.6-5.3,13.3c-4.8,2.7-12.2,2.4-15.6-0.6c-4-3.6-2.7-10.2,2.8-11.3
			C786.1,993.2,792.3,993.3,798.2,992.9z"/>
	</g>
	<path class="st0" d="M207.3,142.3"/>
	<rect x="63.9" y="907.9" class="st2" width="462.2" height="146.6"/>
	<g>
		<path class="st0" d="M183.2,1024.4l0.5-68.5h-0.4l-25.1,68.5h-16.4L117.3,956h-0.4l0.5,68.5h-22v-96.7h33.2l22,62h0.5l21-62H206
			v96.7H183.2z"/>
		<path class="st0" d="M236.2,946.9c-7.2,0-12.8-5.6-12.8-12.3c0-6.6,5.6-12.3,12.8-12.3c7.1,0,12.8,5.5,12.8,12.3
			C249,941.6,243.3,946.9,236.2,946.9z M225,1024.4v-68h22.4v68H225z"/>
		<path class="st0" d="M309.8,1024.4v-37.2c0-7.5-2-14.3-10.1-14.3c-7.9,0-12,6.8-12,14.6v36.9h-22.5v-68h21.7v9.4h0.3
			c3.1-6,10.9-11.3,20.4-11.3c18.3,0,24.9,14.2,24.9,27.9v42.1H309.8z"/>
		<path class="st0" d="M400.8,1024.4v-8.9h-0.3c-4.4,6.8-13.3,10.8-22.3,10.8c-20.5,0-32.4-17.2-32.4-36.2c0-19,12.3-35.7,32.1-35.7
			c10,0,16.9,4.6,20.8,9.2h0.3v-42.5h22.4v103.3H400.8z M383.6,972.8c-10.7,0-16.1,8.6-16.1,17.4c0,8.9,5.5,17.6,16.1,17.6
			c10.1,0,16.4-8.6,16.4-17.5C400,981.6,393.7,972.8,383.6,972.8z"/>
		<path class="st0" d="M438.3,965.7c7.9-7.5,19.3-11.5,30.3-11.5c22.8,0,31.3,11.2,31.3,35.9v34.3h-20.5v-7.2H479
			c-3.4,5.6-11.2,8.9-19.3,8.9c-10.8,0-24.7-5.3-24.7-21.3c0-19.7,23.9-23,43.7-23v-1.1c0-6.7-5.3-9.8-12.3-9.8
			c-6.4,0-12.7,3.1-16.8,7L438.3,965.7z M479.4,994.8h-2.9c-9.8,0-20.9,1.2-20.9,9.3c0,5.2,5.2,7,9.7,7c9,0,14.1-5.5,14.1-13.9
			V994.8z"/>
	</g>
	<path class="st3" d="M209.9,790.3l73.3-15.4c0,0,77.1,38.6,145.3,41.1c0,0,52.7,7.7,90,3.9s144-5.9,266.1-88.1l187.7,72l-72-181.9
		c0,0,77.1-95.1,60.4-225s-95.1-217.3-192.9-263.6S604.6,76.7,495.3,80.6C386,84.4,257.4,150,182.9,222l25.7-86.1
		c0,0,104.1-65.6,172.3-81s144-39.9,294.4-6.4s230.1,124.7,266.1,167.1s64.3,128.6,69.4,199.3c5.1,70.7-38.6,196.7-57.9,212.1
		l102.9,259.7L791,787.9c0,0-99,53.9-178.7,69.3s-182.2,10.8-218.6,5.1C335.9,853.3,221.4,813.4,209.9,790.3z"/>
	<g>
		<path class="st4" d="M47.3,430.9c1-6,2-12.1,3-18.1c8-49.5,20.2-98,34.2-146.1c9-31,19.4-61.5,29.4-92.2c1.8-5.5,4.1-11,6.9-16
			c1.3-2.3,4.1-4.6,6.6-5.1c9.7-1.9,28.4,2.8,36.7,8.6c-19,43.7-30.9,89.8-42.7,135.8c-11.8,46-24.2,91.9-27.1,140.9
			c55.9-16.7,110.9-30.4,166.8-39.9c-0.1-0.9,0-1.4-0.2-1.6c-13-12.7-12.5-29-11.1-44.9c3.5-37.6,15.8-72.4,36.4-104
			c8.6-13.2,18.9-25,33-32.7c21.5-11.8,55.1-3,68,17.7c6.2,10,7.5,20.4,1.3,30.7c-18.1,29.9-42.9,52.3-75.8,65.1
			c-3.4,1.3-7,2-10.6,2.5c-3.9,0.5-6.1,1.9-6.8,6.2c-2,13.5-3.9,27.1-1.3,40.7c0.6,3.2,1.9,6.4,3.7,9.1c2.6,3.8,6.5,5.3,11.3,3.9
			c11.1-3.3,20.4-9.7,29.3-16.7c27.4-21.4,48.4-48.3,66.3-78c6.4-10.5,7.8-22.1,10.5-33.5c3-12.9,5.8-26,8.6-39
			c0.2-0.8,0.2-1.6,0.5-4.2c-10.8,4.6-20.6,8.8-31,13.3c0.1-2,0.1-4,0.4-5.8c0.5-2.3,1.4-4.4,2.1-6.7c3.2-10.5,9.7-17.4,21.2-17.8
			c9.6-0.3,13.6-4.8,15.8-14.3c4.2-18.3,10-36.2,15.7-54.1c4.1-12.8,7.9-14.9,21.3-11.9c7,1.6,13.8,4.4,19.8,6.3
			c-6.4,21.5-12.4,41.8-18.7,63.4c20.3-3,38.9-5.8,57.7-8.6c-0.7,7.1-5.4,12.5-11.4,13.8c-15.1,3.3-30.2,6.7-45.3,9.9
			c-3,0.6-4.4,2-5.1,5.1c-9.4,40.8-18.8,81.7-23.9,123.3c-1.1,8.9-2.8,17.8-3.3,26.7c-0.6,10-0.1,20.1-0.1,30.9
			c-3.6-0.8-8.5-1.1-12.8-2.8c-8.1-3.3-16.1-7-23.6-11.5c-2.5-1.5-4.6-6.2-4.3-9.2c0.9-13.4,2.7-26.8,4.3-40.2
			c0.4-3.2,0.8-6.4,0.5-9.8c-4.9,7.7-9.5,15.5-14.7,23c-15.4,22.5-33,43-54.4,60.1c-16.6,13.3-34.4,14.5-53.4,6.7
			c-2.6-1.1-4.5-1.7-7,0.9c-1.7,1.8-5,2.2-7.7,2.8c-52.1,11.5-102.9,27.1-151.5,49.6c-3.6,1.7-7.4,3.2-10.7,5.5
			c-7,4.9-14.2,4.6-21.9,2.2c-10.5-3.3-20.2-8.1-27.3-16.7c-3.4-4.1-5.2-9.5-7.8-14.3C47.3,436.9,47.3,433.9,47.3,430.9z
			 M301.2,316.9c7.2-1.2,13.4-3.9,18.8-8.1c17.1-13.3,28.7-30.5,34.8-51.2c2-6.6,2.5-13.8,2.5-20.7c-0.1-7.9-5.8-10.8-12.3-6.4
			c-4.1,2.7-7.8,6.4-10.7,10.3c-16.3,21.8-25.3,47-33.1,72.8C301,314.5,301.2,315.5,301.2,316.9z"/>
		<path class="st5" d="M743.4,395.3c-9.5,11.5-24,62.1-25,74.4c6.1-5.4,11.5-10.4,17.1-15.3c33.3-29.5,66.4-59.2,102.3-85.5
			c2.8-2.1,5.8-3.9,8.7-5.8c8.6-5.4,22.3-3,28.7,4.9c0.3,0.3,0.2,0.9,0.3,1.2c-32.5,16.5-59.4,40.4-87.1,63.2
			c-17.5,14.4-34.3,29.6-51.6,44.2c-3.3,2.8-3.5,5-1.5,8.8c18.4,33.6,37.6,66.8,61.1,97.2c11.8,15.3,24.7,29.7,37.6,44
			c5.6,6.1,12.5,11,22.1,13.3c-2.8,3.7-4.8,7.6-8,10.2c-7.6,6.4-15.4,12.7-23.8,18c-7.8,5-12.6,4.1-18.1-3.4
			c-10.1-13.6-20-27.4-28.8-41.9c-23.5-38.9-44.4-79.3-63.6-120.5c-0.4-0.9-0.9-1.7-2.2-3.8c-1.4,2.9-2.9,4.8-3.4,6.9
			c-4.9,23.3-10,46.5-14.2,69.9c-3.6,20-6.5,40.1-8.7,60.2c-1.2,10.6-0.2,21.5-0.2,32.7c-0.9,0.1-2.1,0.4-3.3,0.2
			c-11.3-1.8-21.8-5.9-31.4-12.3c-1.7-1.1-4.3-1.9-6.2-1.5c-47,11.3-93,25.6-136.1,48c-2.8,1.5-7,2.3-9.9,1.4
			c-8-2.6-16.1-5.5-23.2-9.8c-10.9-6.6-15.7-16.9-13.3-29.9c4.3-23.4,8.1-46.8,13.1-70c4.4-20.5,10.1-40.6,15.3-60.9
			c0.2-0.9,0.3-1.9,0.5-3.5c-5.7,6.8-13.4,5.2-20.1,6.8c-8.1,1.9-16.3,3.3-24.5,4.7c-2.9,0.5-4.3,1.6-4.4,4.8
			c-0.7,12.3-2.1,24.6-2.4,36.9c-0.9,39.6-2,79.3-2,118.9c0,14.9,3,29.7,4.9,44.6c0.4,3,1.8,6,3.1,9.9c-3.8-1-7.2-1.3-10-2.8
			c-10-5.5-19.9-11.4-29.7-17.3c-6.8-4.1-6.7-11.3-7-17.8c-2.4-41.5-1.6-82.9,0.6-124.4c0.7-13.9,1.4-27.9,2.2-42.7
			c-5.9,1.3-11.4,2.4-16.8,3.8c-14.7,3.8-29.3,7.6-43.9,11.7c-2.1,0.6-4.6,2.4-5.5,4.3c-15.1,32.4-30.7,64.7-44.5,97.6
			c-7.9,18.8-12.9,38.8-19.2,58.2c-0.6,1.9-0.6,3.9-1,6.6c-14.5-2.5-28-6.6-37.2-18.8c-1.8-2.4-2.2-7.4-1-10.1
			c7.6-17.2,15-34.5,24-51c12.8-23.2,26.9-45.6,40.4-68.3c1.2-2,2.4-3.9,4.4-7.2c-23.7,6.2-45.1,14.5-66.2,23.3
			c-3.3-8.7,2.3-23.1,10.3-25.5c21.9-6.8,43.9-13.3,66-19.6c4.1-1.2,6.8-2.9,9.3-6.5c22.6-33.2,46.2-65.7,73.4-95.3
			c2.4-2.6,5.2-4.8,7.3-7.5c4.3-5.4,9.8-6.9,16-4.7c9.2,3.2,18.3,6.8,27.2,10.7c4.7,2.1,6,6.3,5.4,11.6c-2.4,19.8-4.4,39.7-6.6,59.5
			c-0.4,3.6,1.1,4.4,4.3,3.8c12-1.9,24-3.8,36-5.4c2.9-0.4,5.9-0.1,9.5-0.1c3.9-13.1,7.8-27.4,12.5-41.4
			c6.5-19.4,13.8-38.5,20.7-57.8c1.3-3.6,3.7-5.2,7.3-5.9c7.7-1.4,25.7,3.3,32,8.4c-17,39.3-27.6,80.5-38.2,121.7
			c-10.5,41.1-21.7,82.2-24.1,126c2.9-0.7,4.7-0.9,6.3-1.4c43.5-13.1,87.6-23.9,132.3-32c3-0.5,4.1-1.9,4.5-4.8
			c4-27.8,8.1-55.6,12-83.4c0.4-2.7,0-5.6-0.8-8.2c-1.9-7-2.5-13.6,3.8-18.7c5.1-4.2,4.8-10.4,6.2-15.9c8.3-31,16.3-62.1,24.9-93
			c2.4-8.6,6.6-16.7,10-25c1.6-3.9,4.8-5.9,8.6-5.7c10.6,0.5,20.7,3,29.9,8.5C741.7,394.4,742.4,394.8,743.4,395.3z M347.9,547
			c2.3-0.1,3.4,0,4.5-0.3c15.8-3.2,31.6-6.5,47.4-9.6c3.3-0.7,3.5-2.8,3.8-5.4c1.8-19,3.8-38.1,5.6-57.1c0.6-6.1,1.1-12.2,1.7-18.3
			c-0.4-0.1-0.9-0.2-1.3-0.3C386.3,484.1,366,514.1,347.9,547z"/>
		<path class="st4" d="M179.6,511.1c-36.8,9.7-73.1,19.6-109,33.9c0.3-10.6,2.1-19.9,7.7-28.1c1.1-1.6,3.5-2.4,5.5-3.1
			c26.2-9.4,53.4-15.2,80.6-20.7c7.2-1.4,14.4-2.5,21.6-4.2c1.6-0.4,3.5-1.9,4.2-3.4c4.9-9.7,4.8-8.9,16.6-8.3
			c2.3,0.1,4.7,0.5,6.8,1.5c9.9,4.4,19.7,2.3,29.8,0.9c17.8-2.5,35.6-4.5,53.5-6.6c1.6-0.2,3.2,0,4.8,0c-0.9,9.9-3.3,12.2-12,13.8
			c-20.4,3.8-40.8,7.8-61.1,12c-1.7,0.4-3.8,2.7-4.3,4.6c-6.7,22.5-14,44.8-19.6,67.6c-7.1,28.5-13.7,57.3-18.9,86.2
			c-5.8,32.7-10,65.7-14.4,98.7c-1.1,8-0.2,16.2-0.2,24.9c-1.9-0.1-5.1,0.4-7.7-0.6c-8.9-3.5-17.8-7.1-26.3-11.5
			c-2.3-1.2-4.3-5.1-4.6-8c-2-19.7,1.2-39.2,4.2-58.6c8.9-56.7,21.2-112.7,36.6-168.1c2-7,4.2-14,6.3-21
			C179.8,512.8,179.7,512.4,179.6,511.1z"/>
		<path class="st4" d="M659.6,148c13.8,0.9,29.1,6,39.3,21.3c2.2,3.3,2.6,6.6,1.2,10.4c-5.1,14.2-14.6,25.3-25,35.7
			c-2.8,2.8-4.9,1.3-5.7-3c-2.2-11.9-4-23.9-7.2-35.5c-2.2-7.9-7.9-13.4-17.2-13.4c-11.3,0-19,7.3-17,18.3
			c1.7,9.1,4.7,18.7,9.7,26.4c13.7,21,28.8,41.1,43.4,61.6c2.8,3.9,5.8,7.7,8.5,11.7c9.7,14.1,9.1,28.6-2.2,41.7
			c-14.8,17-34.2,26.3-55.7,31.2c-19.6,4.4-39.3,4.6-58.5-2.8c-10.7-4.1-19.2-10.7-22.1-22.6c-2-8.3,0.5-15.9,4.1-23.1
			c11.4-23.1,28.5-41.6,48-58.1c2.3-2,3.7-3.4,1.5-6.4c-23.5-33.2-5.8-66.8,18.5-83.1C633.9,151.3,644.5,148,659.6,148z
			 M612.2,252.1c-2.7,3.2-4.9,5.5-6.8,8c-10.3,13.6-19.4,27.8-22,45.3c-2.5,17.5,7.7,33.1,23.6,35.6c12.9,2.1,24.8-1.1,35.5-8.4
			c8.6-5.8,11-12.6,7.2-22.3C641.4,288.6,625.5,271.9,612.2,252.1z"/>
		<path class="st6" d="M590.4,108.9c-11.7,21.8-21.2,44-29,67c-0.4,1.1-2.2,2.5-3.4,2.6c-8.7,0.2-15.1-5.6-14.3-14.1
			c1.5-17,3.3-34,5.9-50.9c1.7-10.6,4.5-12.1,15.4-11.7C574,102.1,582.7,103.6,590.4,108.9z"/>
		<path class="st0" d="M301.2,316.9c0-1.4-0.2-2.4,0-3.3c7.8-25.7,16.7-51,33.1-72.8c2.9-3.9,6.6-7.6,10.7-10.3
			c6.5-4.4,12.2-1.5,12.3,6.4c0,6.9-0.5,14.1-2.5,20.7c-6.1,20.6-17.8,37.9-34.8,51.2C314.6,313,308.4,315.6,301.2,316.9z"/>
		<path class="st0" d="M643.2,946.2c-6.9,0-12-5.1-12-11.9c0-6.9,5.4-12.5,12.3-12.4c6.8,0.1,12.2,5.7,12,12.6
			C655.3,941.3,650.1,946.2,643.2,946.2z"/>
		<path class="st0" d="M347.9,547c18.1-32.9,38.4-63,61.7-91c0.4,0.1,0.9,0.2,1.3,0.3c-0.6,6.1-1.1,12.2-1.7,18.3
			c-1.9,19-3.8,38.1-5.6,57.1c-0.3,2.6-0.4,4.8-3.8,5.4c-15.8,3.1-31.6,6.4-47.4,9.6C351.3,547,350.2,546.9,347.9,547z"/>
		<path class="st0" d="M612.2,252.1c13.4,19.7,29.2,36.5,37.6,58.1c3.8,9.7,1.4,16.5-7.2,22.3c-10.7,7.3-22.6,10.5-35.5,8.4
			c-15.9-2.5-26.1-18.2-23.6-35.6c2.5-17.5,11.7-31.6,22-45.3C607.3,257.6,609.4,255.3,612.2,252.1z"/>
	</g>
</g>
</svg>
