<?xml version="1.0" encoding="utf-8"?>
<!-- Generator: Adobe Illustrator 23.0.3, SVG Export Plug-In . SVG Version: 6.00 Build 0)  -->
<svg version="1.1" id="Layer_1" xmlns="http://www.w3.org/2000/svg" xmlns:xlink="http://www.w3.org/1999/xlink" x="0px" y="0px"
	 viewBox="0 0 20 17" style="enable-background:new 0 0 20 17;" xml:space="preserve">
<style type="text/css">
	.st0{opacity:0.54;fill:#231F20;enable-background:new    ;}
	.st1{fill:none;}
</style>
<g>
	<path class="st0" d="M1,17c-0.1,0-0.3,0-0.4-0.1c-0.4-0.2-0.7-0.7-0.6-1.1C1.3,9.4,5.2,5.3,11,4.2V1c0-0.4,0.2-0.8,0.6-0.9
		C12-0.1,12.4,0,12.7,0.3l7,7c0.4,0.4,0.4,1,0,1.4l-7,7c-0.3,0.3-0.7,0.4-1.1,0.2C11.2,15.8,11,15.4,11,15v-3.1
		c-4.2,0.2-7,1.7-9.2,4.7C1.6,16.9,1.3,17,1,17z M12,9.9c0.6,0,1,0.4,1,1v1.7L17.6,8L13,3.4V5c0,0.5-0.4,0.9-0.9,1
		c-4.8,0.7-7.4,3.4-8.9,6.3C5.6,10.7,8.4,9.9,12,9.9z M12,5L12,5L12,5z"/>
	<path class="st1" d="M19,0H1v18h18V0z"/>
</g>
</svg>
