<?xml version="1.0" encoding="iso-8859-1"?>
<!-- Generator: Adobe Illustrator 19.0.0, SVG Export Plug-In . SVG Version: 6.00 Build 0)  -->
<svg version="1.1" id="Capa_1" xmlns="http://www.w3.org/2000/svg" xmlns:xlink="http://www.w3.org/1999/xlink" x="0px" y="0px"
	 viewBox="0 0 512 512" style="enable-background:new 0 0 512 512;" xml:space="preserve">
<path style="fill:#E8EAE9;" d="M510.774,457.6c-27.733-72.533-55.467-145.067-84.267-217.6c-2.133-6.4-10.667-10.667-19.2-10.667
	c-36.267,3.2-71.467,3.2-104.533-1.067c-3.2,0-5.333,0-7.467,1.067c-28.8,8.533-58.667,16-89.6,19.2c-3.2,0-5.333,0-8.533-1.067
	c-30.933-9.6-59.733-22.4-87.467-37.333c-9.6-5.333-22.4-1.067-25.6,8.533c-27.733,73.6-55.467,146.133-83.2,218.667
	c-2.133,6.4,3.2,16,14.933,21.333c48,22.4,99.2,40.533,151.467,52.267c3.2,1.067,8.533,1.067,12.8,1.067
	c49.067-2.133,96-8.533,141.867-19.2c4.267-1.067,8.533-1.067,12.8-1.067c49.067,2.133,99.2-1.067,149.333-8.533
	C501.174,480,515.041,467.2,510.774,457.6z"/>
<path style="fill:#F6B64C;" d="M199.307,268.8c35.2-3.2,69.333-10.667,102.4-21.333c8.533,74.667,16,149.333,24.533,224
	c-49.067,11.733-99.2,19.2-151.467,21.333C183.307,418.133,191.841,343.467,199.307,268.8z"/>
<g>
	<path style="fill:#FFD15D;" d="M301.707,248.533c34.133,4.267,69.333,4.267,105.6,1.067c24.533,71.467,48,144,72.533,215.467
		c-51.2,7.467-102.4,10.667-153.6,7.467C317.707,397.867,310.241,323.2,301.707,248.533z"/>
	<path style="fill:#FFD15D;" d="M103.307,229.333c29.867,16,61.867,29.867,96,39.467c-8.533,74.667-16,149.333-24.533,224
		c-50.133-11.733-98.133-27.733-144-49.067C55.307,372.267,78.774,300.8,103.307,229.333z"/>
</g>
<g>
	<path style="fill:#F15741;" d="M250.507,312.533c-28.8,0-51.2,18.133-51.2,39.467c0,21.333,22.4,39.467,51.2,39.467
		c27.733,0,51.2-18.133,51.2-39.467C301.707,330.667,279.307,312.533,250.507,312.533z M250.507,382.933
		c-22.4,0-40.533-13.867-40.533-30.933c0-17.067,18.133-30.933,40.533-30.933s40.533,13.867,40.533,30.933
		S272.907,382.933,250.507,382.933z"/>
	<ellipse style="fill:#F15741;" cx="250.507" cy="352" rx="18.133" ry="13.867"/>
</g>
<path style="fill:#67C6B9;" d="M250.507,0c-61.867,0-112,50.133-112,112c0,74.667,112,240,112,240s112-162.133,112-240
	C362.507,50.133,312.374,0,250.507,0z"/>
<circle style="fill:#FFFFFF;" cx="250.507" cy="112" r="72.533"/>
<g>
</g>
<g>
</g>
<g>
</g>
<g>
</g>
<g>
</g>
<g>
</g>
<g>
</g>
<g>
</g>
<g>
</g>
<g>
</g>
<g>
</g>
<g>
</g>
<g>
</g>
<g>
</g>
<g>
</g>
</svg>
