<svg id="Layer_3" enable-background="new 0 0 64 64" height="512" viewBox="0 0 64 64" width="512" xmlns="http://www.w3.org/2000/svg"><g><g><path d="m60 54h-56v-33c0-1.657 1.343-3 3-3h50c1.657 0 3 1.343 3 3z" fill="#8892a0"/></g><g><path d="m8 22h48v28h-48z" fill="#a2dbf7"/></g><g><path d="m12 16h40v24h-40z" fill="#b0b9bf"/></g><g><path d="m2 54h60v4c0 2.209-1.791 4-4 4h-52c-2.209 0-4-1.791-4-4z" fill="#8892a0"/></g><g><path d="m12 16v15.531c1.452.303 2.956.469 4.5.469 10.107 0 18.561-6.821 20.861-16z" fill="#dfe3e5"/></g><g><path d="m18 20h4v4h-4z" fill="#96cc7f"/></g><g><path d="m26 20h4v4h-4z" fill="#96cc7f"/></g><g><path d="m34 20h4v4h-4z" fill="#96cc7f"/></g><g><path d="m42 20h4v4h-4z" fill="#96cc7f"/></g><g><path d="m18 28h4v4h-4z" fill="#96cc7f"/></g><g><path d="m26 28h4v4h-4z" fill="#96cc7f"/></g><g><path d="m34 28h4v4h-4z" fill="#96cc7f"/></g><g><path d="m42 28h4v4h-4z" fill="#96cc7f"/></g><g><path d="m12 36h40v4h-40z" fill="#8892a0"/></g><g><path d="m42 12c0-1.423.302-2.774.838-4h-30.838v8h30.85c-.54-1.225-.85-2.574-.85-4z" fill="#96cc7f"/></g><g><path d="m20 12c-1.105 0-2-.895-2-2v-2c0-1.105.895-2 2-2 1.105 0 2 .895 2 2v2c0 1.105-.895 2-2 2z" fill="#8892a0"/></g><g><path d="m28 12c-1.105 0-2-.895-2-2v-2c0-1.105.895-2 2-2 1.105 0 2 .895 2 2v2c0 1.105-.895 2-2 2z" fill="#8892a0"/></g><g><path d="m36 12c-1.105 0-2-.895-2-2v-2c0-1.105.895-2 2-2 1.105 0 2 .895 2 2v2c0 1.105-.895 2-2 2z" fill="#8892a0"/></g><g><circle cx="52" cy="12" fill="#96cc7f" r="10"/></g><g><path d="m58.293 4.233c-1.719-1.395-3.907-2.233-6.293-2.233-5.523 0-10 4.477-10 10 0 2.565.974 4.897 2.561 6.667 6.585-1.364 11.892-7.026 13.732-14.434z" fill="#c0e0b2"/></g><g><path d="m24 54v2c0 1.105.895 2 2 2h12c1.105 0 2-.895 2-2v-2z" fill="#cfd3d9"/></g><g><path d="m58 63h-52c-2.757 0-5-2.243-5-5v-4c0-.553.448-1 1-1h60c.552 0 1 .447 1 1v4c0 2.757-2.243 5-5 5zm-55-8v3c0 1.654 1.346 3 3 3h52c1.654 0 3-1.346 3-3v-3z"/></g><g><path d="m61 54h-2v-34c0-.267-.104-.518-.292-.707l1.413-1.415c.567.567.879 1.32.879 2.122z"/></g><g><path d="m5 54h-2v-34c0-1.654 1.346-3 3-3h6v2h-6c-.551 0-1 .449-1 1z"/></g><g><path d="m38 59h-12c-1.654 0-3-1.346-3-3v-2h2v2c0 .552.449 1 1 1h12c.551 0 1-.448 1-1v-2h2v2c0 1.654-1.346 3-3 3z"/></g><g><path d="m56 51h-48c-.552 0-1-.447-1-1v-28c0-.552.448-1 1-1h4v2h-3v26h46v-28h2v29c0 .553-.448 1-1 1z"/></g><g><path d="m12 15h31v2h-31z"/></g><g><path d="m20 13c-1.654 0-3-1.346-3-3v-2c0-1.654 1.346-3 3-3s3 1.346 3 3v2c0 1.654-1.346 3-3 3zm0-6c-.551 0-1 .449-1 1v2c0 .551.449 1 1 1s1-.449 1-1v-2c0-.551-.449-1-1-1z"/></g><g><path d="m28 13c-1.654 0-3-1.346-3-3v-2c0-1.654 1.346-3 3-3s3 1.346 3 3v2c0 1.654-1.346 3-3 3zm0-6c-.551 0-1 .449-1 1v2c0 .551.449 1 1 1s1-.449 1-1v-2c0-.551-.449-1-1-1z"/></g><g><path d="m36 13c-1.654 0-3-1.346-3-3v-2c0-1.654 1.346-3 3-3s3 1.346 3 3v2c0 1.654-1.346 3-3 3zm0-6c-.551 0-1 .449-1 1v2c0 .551.449 1 1 1s1-.449 1-1v-2c0-.551-.449-1-1-1z"/></g><g><path d="m41.141 10.911c-.094-.294-.141-.6-.141-.911v-2c0-1.654 1.346-3 3-3v2c-.551 0-1 .449-1 1v2c0 .104.016.207.046.303z"/></g><g><path d="m22 7h4v2h-4z"/></g><g><path d="m30 7h4v2h-4z"/></g><g><path d="m38 7h4v2h-4z"/></g><g><path d="m52 41h-40c-.552 0-1-.447-1-1v-32c0-.552.448-1 1-1h6v2h-5v30h38v-17h2v18c0 .553-.448 1-1 1z"/></g><g><path d="m52 23c-6.065 0-11-4.935-11-11s4.935-11 11-11 11 4.935 11 11-4.935 11-11 11zm0-20c-4.962 0-9 4.038-9 9s4.038 9 9 9 9-4.038 9-9-4.038-9-9-9z"/></g><g><path d="m50 16c-.256 0-.512-.098-.707-.293l-3-3 1.414-1.414 2.293 2.293 6.293-6.293 1.414 1.414-7 7c-.195.195-.451.293-.707.293z"/></g><g><path d="m22 25h-4c-.552 0-1-.448-1-1v-4c0-.552.448-1 1-1h4c.552 0 1 .448 1 1v4c0 .552-.448 1-1 1zm-3-2h2v-2h-2z"/></g><g><path d="m30 25h-4c-.552 0-1-.448-1-1v-4c0-.552.448-1 1-1h4c.552 0 1 .448 1 1v4c0 .552-.448 1-1 1zm-3-2h2v-2h-2z"/></g><g><path d="m38 25h-4c-.552 0-1-.448-1-1v-4c0-.552.448-1 1-1h4c.552 0 1 .448 1 1v4c0 .552-.448 1-1 1zm-3-2h2v-2h-2z"/></g><g><path d="m46 25h-4c-.552 0-1-.448-1-1v-4c0-.552.448-1 1-1h4c.552 0 1 .448 1 1v4c0 .552-.448 1-1 1zm-3-2h2v-2h-2z"/></g><g><path d="m22 33h-4c-.552 0-1-.448-1-1v-4c0-.552.448-1 1-1h4c.552 0 1 .448 1 1v4c0 .552-.448 1-1 1zm-3-2h2v-2h-2z"/></g><g><path d="m30 33h-4c-.552 0-1-.448-1-1v-4c0-.552.448-1 1-1h4c.552 0 1 .448 1 1v4c0 .552-.448 1-1 1zm-3-2h2v-2h-2z"/></g><g><path d="m38 33h-4c-.552 0-1-.448-1-1v-4c0-.552.448-1 1-1h4c.552 0 1 .448 1 1v4c0 .552-.448 1-1 1zm-3-2h2v-2h-2z"/></g><g><path d="m46 33h-4c-.552 0-1-.448-1-1v-4c0-.552.448-1 1-1h4c.552 0 1 .448 1 1v4c0 .552-.448 1-1 1zm-3-2h2v-2h-2z"/></g><g><path d="m12 35h40v2h-40z"/></g><g><path d="m5 57h2v2h-2z"/></g><g><path d="m9 57h2v2h-2z"/></g></g></svg>