<?xml version="1.0" encoding="iso-8859-1"?>
<!-- Generator: Adobe Illustrator 19.0.0, SVG Export Plug-In . SVG Version: 6.00 Build 0)  -->
<svg version="1.1" id="Layer_1" xmlns="http://www.w3.org/2000/svg" xmlns:xlink="http://www.w3.org/1999/xlink" x="0px" y="0px"
	 viewBox="0 0 512.001 512.001" style="enable-background:new 0 0 512.001 512.001;" xml:space="preserve">
<circle style="fill:#FF7A53;" cx="256.001" cy="255.996" r="255.996"/>
<path style="fill:#FF4F19;" d="M511.472,272.308L325.121,85.957c-17.231-18.581-41.838-30.233-69.118-30.233
	c-51.986,0-94.28,42.294-94.28,94.28v56.109h-15.283c-16.871,0-30.675,13.804-30.675,30.675v126.76
	c0,18.83,8.273,35.814,21.355,47.521l100.252,100.252c6.153,0.443,12.364,0.679,18.629,0.679
	C391.91,512,503.059,406.092,511.472,272.308z"/>
<path style="fill:#3C3B41;" d="M350.285,225.686h-34.719v-75.682c0-32.842-26.719-59.56-59.56-59.56s-59.561,26.719-59.561,59.56
	v75.682h-34.719v-75.682c0-51.986,42.294-94.28,94.28-94.28s94.281,42.294,94.281,94.28V225.686z"/>
<path style="fill:#171719;" d="M256.005,55.725v34.719l0,0c32.842,0,59.56,26.719,59.56,59.56v75.682h34.719v-75.682
	C350.285,98.018,307.99,55.725,256.005,55.725z"/>
<path style="fill:#FFDB2D;" d="M332.435,427.355H179.574c-35.093,0-63.807-28.713-63.807-63.807v-126.76
	c0-16.871,13.804-30.675,30.675-30.675h219.126c16.871,0,30.675,13.804,30.675,30.675v126.76
	C396.242,398.642,367.528,427.355,332.435,427.355z"/>
<path style="fill:#EBB300;" d="M365.567,206.114H256.005v221.241h76.431c35.093,0,63.807-28.713,63.807-63.807v-126.76
	C396.242,219.918,382.438,206.114,365.567,206.114z"/>
<rect x="142.286" y="275.546" style="fill:#FFFFFF;" width="227.44" height="82.368"/>
<rect x="256.001" y="275.546" style="fill:#D8D8DA;" width="113.715" height="82.368"/>
<rect x="150.488" y="284.407" style="fill:#3C3B41;" width="211.025" height="64.663"/>
<rect x="256.001" y="284.407" style="fill:#171719;" width="105.512" height="64.663"/>
<g>
	<polygon style="fill:#FFFFFF;" points="213.254,307.41 208.262,300.194 196.454,308.363 196.454,294.005 187.679,294.005 
		187.679,308.363 175.871,300.194 170.878,307.41 184.354,316.734 170.878,326.059 175.871,333.275 187.679,325.106 
		187.679,339.464 196.454,339.464 196.454,325.106 208.262,333.275 213.254,326.059 199.777,316.734 	"/>
	<polygon style="fill:#FFFFFF;" points="277.193,307.41 272.199,300.194 260.392,308.363 260.392,294.005 251.616,294.005 
		251.616,308.363 239.809,300.194 234.816,307.41 248.292,316.734 234.816,326.059 239.809,333.275 251.616,325.106 
		251.616,339.464 260.392,339.464 260.392,325.106 272.199,333.275 277.193,326.059 263.716,316.734 	"/>
</g>
<g>
	<polygon style="fill:#D8D8DA;" points="260.392,325.106 272.199,333.275 277.193,326.059 263.716,316.734 277.193,307.41 
		272.199,300.194 260.392,308.363 260.392,294.005 256.005,294.005 256.005,339.464 260.392,339.464 	"/>
	<polygon style="fill:#D8D8DA;" points="341.131,307.41 336.138,300.194 324.331,308.363 324.331,294.005 315.555,294.005 
		315.555,308.363 303.748,300.194 298.754,307.41 312.231,316.734 298.754,326.059 303.748,333.275 315.555,325.106 
		315.555,339.464 324.331,339.464 324.331,325.106 336.138,333.275 341.131,326.059 327.654,316.734 	"/>
</g>
<g>
</g>
<g>
</g>
<g>
</g>
<g>
</g>
<g>
</g>
<g>
</g>
<g>
</g>
<g>
</g>
<g>
</g>
<g>
</g>
<g>
</g>
<g>
</g>
<g>
</g>
<g>
</g>
<g>
</g>
</svg>
