<svg id="Capa_1" enable-background="new 0 0 512 512" height="512" viewBox="0 0 512 512" width="512" xmlns="http://www.w3.org/2000/svg"><g><g><g><circle cx="256" cy="256" fill="#00ddc1" r="256"/></g></g><path d="m93.743 404.327 100.02 100.02c84.343 21.052 177.312-1.382 243.256-67.327 55.723-55.723 80.371-130.741 73.977-203.547l-115.88-115.882z" fill="#00baa0"/><g><g><path d="m122.028 404.327h-28.285l64.301-64.301 14.142 14.142z" fill="#eef4ff"/></g><g><path d="m122.028 404.327h-14.142l57.229-57.23 7.071 7.071z" fill="#d6e9f8"/></g></g><g><path d="m208.07 137.643h124v208.999h-124z" fill="#eef4ff" transform="matrix(.707 .707 -.707 .707 250.322 -120.046)"/><path d="m261.417 159.74h61.5v208.999h-61.5z" fill="#d6e9f8" transform="matrix(.707 .707 -.707 .707 272.419 -129.199)"/></g><g><path d="m178.376 201.608h172.457v92h-172.457z" fill="#d6e9f8" transform="matrix(-.707 .707 -.707 -.707 626.793 235.59)"/><path d="m194.816 241.298h172.457v45.5h-172.457z" fill="#b2d7f3" transform="matrix(-.707 .707 -.707 -.707 666.483 252.03)"/></g><g><path d="m146.592 321.62h44v44h-44z" fill="#7a3eb4" transform="matrix(.707 .707 -.707 .707 292.356 -18.569)"/><path d="m165.37 329.398h22v44h-22z" fill="#613393" transform="matrix(.707 .707 -.707 .707 300.134 -21.79)"/></g><g><path d="m198.048 353.926-48.714-48.715 3.003-33.017 7.454-7.454 63.722 63.721z" fill="#eef4ff"/><path d="m207.007 362.884-28.486-28.486 25.464-25.464 36.416 36.416-.383 14.525z" fill="#d6e9f8"/></g><g><path d="m186.648 247.027h65.074v92h-65.074z" fill="#ff6379" transform="matrix(.707 -.707 .707 .707 -143.004 240.813)"/><path d="m203.088 286.717h65.074v45.5h-65.074z" fill="#ff415b" transform="matrix(.707 -.707 .707 .707 -149.814 257.253)"/></g><g><path d="m201.778 249.534h56.27v15h-56.27z" fill="#b2d7f3" transform="matrix(.707 .707 -.707 .707 249.091 -87.289)"/><path d="m236.236 278.607h45.5v15h-45.5z" fill="#8bbbff" transform="matrix(.707 .707 -.707 .707 278.163 -99.332)"/></g><g><path d="m213.739 187.123h196.7v26h-196.7z" fill="#b2d7f3" transform="matrix(.707 -.707 .707 .707 -50.099 279.295)"/><path d="m218.512 198.646h196.7v12.5h-196.7z" fill="#8bbbff" transform="matrix(.707 -.707 .707 .707 -52.076 284.068)"/></g><g><path d="m320.14 112.072h124v36.001h-124z" fill="#d6e9f8" transform="matrix(.707 .707 -.707 .707 203.901 -232.117)"/><path d="m373.487 134.169h61.5v36.001h-61.5z" fill="#b2d7f3" transform="matrix(.707 .707 -.707 .707 225.998 -241.27)"/></g><g><path d="m281.776 142.699h62.5v26.001h-62.5z" fill="#eef4ff" transform="matrix(.707 .707 -.707 .707 201.779 -175.74)"/><path d="m326.117 186.539h61.5v26.001h-61.5z" fill="#d6e9f8" transform="matrix(.707 .707 -.707 .707 245.62 -193.899)"/></g></g></svg>