<svg xmlns="http://www.w3.org/2000/svg" xmlns:xlink="http://www.w3.org/1999/xlink" width="500" height="500" viewBox="0 0 500 500">
  <defs>
    <clipPath id="clip-Custom_Size_1">
      <rect width="500" height="500"/>
    </clipPath>
  </defs>
  <g id="Custom_Size_1" data-name="Custom Size – 1" clip-path="url(#clip-Custom_Size_1)">
    <g id="Group_16" data-name="Group 16">
      <g id="Group_15" data-name="Group 15" transform="translate(-0.221 -15.2)">
        <path id="Path_53" data-name="Path 53" d="M249.384,242.123a11.345,11.345,0,0,0-10.358-6.717h-.077a11.349,11.349,0,0,0-10.341,6.858L201.568,305.1a11.341,11.341,0,1,0,20.835,8.967l1.447-3.361h31.317l1.565,3.5a11.342,11.342,0,0,0,20.714-9.248Zm-15.772,45.9,5.606-13.028,5.819,13.028Zm0,0" transform="translate(7.501 19.93)" fill="#fbd43a"/>
        <path id="Path_54" data-name="Path 54" d="M289.8,304.958l-28.062-62.835a11.341,11.341,0,0,0-10.355-6.717H251.3c.077,0,.269,39.587.269,39.587l5.819,13.028h-5.5v22.684h15.633l1.562,3.5a11.343,11.343,0,1,0,20.714-9.251Zm0,0" transform="translate(-4.855 19.93)" fill="#fb8626"/>
        <path id="Path_55" data-name="Path 55" d="M158.558,235.078a11.343,11.343,0,0,0-11.342,11.342v27.687h-23.7V246.42a11.342,11.342,0,0,0-22.684,0V309.5a11.342,11.342,0,0,0,22.684,0V296.791h23.7V309.5a11.342,11.342,0,0,0,22.684,0V246.42a11.341,11.341,0,0,0-11.342-11.342Zm0,0" transform="translate(31.842 20.01)" fill="#fbd43a"/>
        <path id="Path_56" data-name="Path 56" d="M370.359,234.461A11.343,11.343,0,0,0,359.018,245.8v30.759L329.352,238.8A11.342,11.342,0,0,0,309.09,245.8v63.556a11.342,11.342,0,1,0,22.684,0V278.6l29.669,37.765a11.341,11.341,0,0,0,20.259-7.006V245.8a11.341,11.341,0,0,0-11.342-11.342Zm0,0" transform="translate(-18.947 20.161)" fill="#fb8626"/>
        <path id="Path_57" data-name="Path 57" d="M487.776,304.235l-17.562-40.116,12.314-8.557A11.342,11.342,0,0,0,469.6,236.919l-20,13.823a11.384,11.384,0,0,0-.96.744l-7.7,5.349V245.987a11.342,11.342,0,1,0-22.684,0V309.07a11.342,11.342,0,0,0,11.33,11.342h.012a11.342,11.342,0,0,0,11.342-11.318l.05-24.669,10.228-7.109,15.766,36.016a11.343,11.343,0,0,0,20.782-9.1Zm0,0" transform="translate(-45.572 20.116)" fill="#fb8626"/>
        <path id="Path_58" data-name="Path 58" d="M173.546,389.257a11.342,11.342,0,0,0-15.879,2.274l-15.353,20.48-15.35-20.48a11.342,11.342,0,0,0-18.153,13.6L130.973,434.7v27.093a11.342,11.342,0,1,0,22.684,0V434.7l22.161-29.569a11.342,11.342,0,0,0-2.271-15.879Zm0,0" transform="translate(30.448 -17.037)" fill="#fbd43a"/>
        <path id="Path_59" data-name="Path 59" d="M242.064,386.375a36.183,36.183,0,0,0-25.637,10.24,32.536,32.536,0,0,0-9.794,23.23v19.78c0,18.519,15.8,33.73,35.222,33.91h.334a36.1,36.1,0,0,0,25.307-10.243,32.523,32.523,0,0,0,9.791-23.23V420.285C277.289,401.766,261.487,386.552,242.064,386.375Zm12.541,53.688a9.937,9.937,0,0,1-3.075,7.118,13.288,13.288,0,0,1-9.336,3.671h-.13c-7.03-.065-12.748-5.1-12.748-11.227v-19.78a9.924,9.924,0,0,1,3.075-7.115,13.276,13.276,0,0,1,9.333-3.674c.044,0,.089,0,.133,0,7.03.062,12.748,5.1,12.748,11.227Zm0,0" transform="translate(6.039 -16.887)" fill="#fbd43a"/>
        <path id="Path_60" data-name="Path 60" d="M253.382,386.375l-.34,22.681c.044,0,.089,0,.133,0,7.03.062,12.748,5.1,12.748,11.227v19.777a9.937,9.937,0,0,1-3.075,7.118,13.288,13.288,0,0,1-9.336,3.671h-.13l-.207,22.684h.331a36.092,36.092,0,0,0,25.307-10.243,32.538,32.538,0,0,0,9.794-23.23V420.285c0-18.519-15.8-33.733-35.225-33.91Zm0,0" transform="translate(-5.279 -16.887)" fill="#fb8626"/>
        <path id="Path_61" data-name="Path 61" d="M373.322,386.414a11.343,11.343,0,0,0-11.342,11.342v42.21a9.937,9.937,0,0,1-3.075,7.118,13.4,13.4,0,0,1-9.466,3.671c-7.03-.065-12.748-5.1-12.748-11.227v-42.21a11.342,11.342,0,1,0-22.684,0v42.21c0,18.519,15.8,33.733,35.225,33.91h.334A36.1,36.1,0,0,0,374.873,463.2a32.533,32.533,0,0,0,9.791-23.227v-42.21a11.344,11.344,0,0,0-11.342-11.345Zm0,0" transform="translate(-20.147 -16.79)" fill="#fb8626"/>
        <path id="Path_64" data-name="Path 64" d="M58.589,234.582H12.471a11.342,11.342,0,1,0,0,22.684H24.188v52.117a11.342,11.342,0,1,0,22.684,0V257.266H58.589a11.342,11.342,0,1,0,0-22.684Zm0,0" transform="translate(56.157 20.131)" fill="#fbd43a"/>
      </g>
      <g id="vaccines" transform="translate(179.752 58.747)">
        <g id="Group_13" data-name="Group 13" transform="translate(4.23 20.657)">
          <path id="Path_21" data-name="Path 21" d="M129.272,115.467a4.113,4.113,0,0,1,.4-5.785L145.6,95.712a4.069,4.069,0,0,1,5.759.388L200.1,152.187l-22.089,19.366Z" transform="translate(-96.49 -89.971)" fill="#f5f7fa"/>
          <g id="Group_12" data-name="Group 12">
            <g id="Group_4" data-name="Group 4" transform="translate(29.109)">
              <g id="Group_3" data-name="Group 3">
                <g id="Group_2" data-name="Group 2">
                  <path id="Path_22" data-name="Path 22" d="M119.713,81.445l3.844-3.37a4.069,4.069,0,0,1,5.759.388l11.529,13.153-10,8.767L119.318,87.23A4.113,4.113,0,0,1,119.713,81.445Z" transform="translate(-118.313 -77.062)" fill="#3ac0ee"/>
                  <path id="Path_23" data-name="Path 23" d="M413.606,436.234l15.743-13.8a4.2,4.2,0,0,1,5.938.4,4.241,4.241,0,0,1-.408,5.964l-15.743,13.8a4.2,4.2,0,0,1-5.938-.4A4.241,4.241,0,0,1,413.606,436.234Z" transform="translate(-333.393 -329.088)" fill="#3ac0ee"/>
                  <path id="Path_24" data-name="Path 24" d="M290.954,317.974l32.237-28.262a4.2,4.2,0,0,1,5.938.4,4.241,4.241,0,0,1-.408,5.964l-32.236,28.262a4.2,4.2,0,0,1-5.938-.4A4.24,4.24,0,0,1,290.954,317.974Z" transform="translate(-243.619 -231.945)" fill="#bac3cc"/>
                  <g id="Group_1" data-name="Group 1" transform="translate(2.668 4.727)">
                    <path id="Path_25" data-name="Path 25" d="M151.36,96.1a4.069,4.069,0,0,0-5.759-.388l-15.934,13.97a4.113,4.113,0,0,0-.4,5.785l35.911,41.327,22.089-19.366Z" transform="translate(-128.267 -94.698)" fill="#fde86f"/>
                    <path id="Path_26" data-name="Path 26" d="M220.51,142.6l5.9-5.175L190.5,96.1a4.069,4.069,0,0,0-5.759-.388l-3,2.63Z" transform="translate(-167.408 -94.698)" fill="#fddf33"/>
                    <path id="Path_27" data-name="Path 27" d="M265.98,326.344l2.085,2.4Z" transform="translate(-229.065 -264.249)" fill="#fc7743"/>
                    <path id="Path_28" data-name="Path 28" d="M348.384,254.1l.165.189Z" transform="translate(-289.379 -211.37)" fill="#fc7743"/>
                    <path id="Path_29" data-name="Path 29" d="M292.765,259.5l-4.532-5.215-.165-.189L265.98,273.465l2.085,2.4,2.611,3Z" transform="translate(-229.065 -211.37)" fill="#3ac0ee"/>
                  </g>
                </g>
              </g>
            </g>
            <g id="Group_11" data-name="Group 11" transform="translate(0 39.938)">
              <g id="Group_7" data-name="Group 7" transform="translate(34.97)">
                <g id="Group_6" data-name="Group 6">
                  <path id="Path_30" data-name="Path 30" d="M183.72,248.756h11.657v9.98H183.72Z" transform="translate(-172.048 -242.67)" fill="#bac3cc"/>
                  <path id="Path_31" data-name="Path 31" d="M170.146,340.994H145.294a5.053,5.053,0,0,1-5.059-5.047v-38.08a8.144,8.144,0,0,1,1.936-5.27l9.721-11.453h11.657l9.721,11.453a8.144,8.144,0,0,1,1.936,5.27v38.08A5.052,5.052,0,0,1,170.146,340.994Z" transform="translate(-140.219 -266.377)" fill="#f5f7fa"/>
                  <path id="Path_32" data-name="Path 32" d="M207.648,292.6l-9.721-11.453H187.2l9.721,11.453a8.144,8.144,0,0,1,1.936,5.27v38.08a5.053,5.053,0,0,1-5.059,5.046h10.722a5.053,5.053,0,0,0,5.059-5.046v-38.08A8.144,8.144,0,0,0,207.648,292.6Z" transform="translate(-174.598 -266.377)" fill="#ebedf0"/>
                  <g id="Group_5" data-name="Group 5" transform="translate(0 36.17)">
                    <path id="Path_33" data-name="Path 33" d="M140.176,383.677h34.986V360.988h-34.97Z" transform="translate(-140.176 -360.988)" fill="#a0e2f7"/>
                    <path id="Path_34" data-name="Path 34" d="M230.69,360.987h10.722v22.689H230.69Z" transform="translate(-206.427 -360.987)" fill="#85dcf7"/>
                  </g>
                  <path id="Path_35" data-name="Path 35" d="M167.652,226.053h20.271v7.384H167.652Z" transform="translate(-160.287 -226.053)" fill="#3ac0ee"/>
                </g>
              </g>
              <g id="Group_10" data-name="Group 10">
                <g id="Group_9" data-name="Group 9">
                  <path id="Path_36" data-name="Path 36" d="M53.206,248.756H64.863v9.98H53.206Z" transform="translate(-41.549 -242.67)" fill="#bac3cc"/>
                  <path id="Path_37" data-name="Path 37" d="M39.632,340.994H14.78a5.053,5.053,0,0,1-5.059-5.047v-38.08a8.144,8.144,0,0,1,1.936-5.27l9.721-11.453H33.034L42.755,292.6a8.144,8.144,0,0,1,1.936,5.27v38.08a5.053,5.053,0,0,1-5.059,5.047Z" transform="translate(-9.721 -266.377)" fill="#f5f7fa"/>
                  <path id="Path_38" data-name="Path 38" d="M77.134,292.6l-9.721-11.453H56.691L66.412,292.6a8.144,8.144,0,0,1,1.936,5.27v38.08a5.053,5.053,0,0,1-5.059,5.046H74.011a5.053,5.053,0,0,0,5.059-5.046v-38.08A8.144,8.144,0,0,0,77.134,292.6Z" transform="translate(-44.1 -266.377)" fill="#ebedf0"/>
                  <g id="Group_8" data-name="Group 8" transform="translate(0 36.17)">
                    <path id="Path_39" data-name="Path 39" d="M9.72,360.988H44.69v22.689H9.72Z" transform="translate(-9.72 -360.988)" fill="#fde86f"/>
                    <path id="Path_40" data-name="Path 40" d="M100.176,360.987H110.9v22.689H100.176Z" transform="translate(-75.928 -360.987)" fill="#fddf33"/>
                  </g>
                  <path id="Path_41" data-name="Path 41" d="M37.137,226.053H57.408v7.384H37.137Z" transform="translate(-29.788 -226.053)" fill="#f7c000"/>
                </g>
              </g>
            </g>
          </g>
        </g>
        <g id="Group_14" data-name="Group 14" transform="translate(2.22 0)">
          <path id="Path_42" data-name="Path 42" d="M174.341,401.538H188.2c2.516,0,2.63-4.021,0-4.021h-13.86C171.825,397.517,171.71,401.538,174.341,401.538Z" transform="translate(-126.789 -290.959)"/>
          <path id="Path_43" data-name="Path 43" d="M57.686,401.538c2.516,0,2.63-4.021,0-4.021H43.826c-2.516,0-2.63,4.021,0,4.021Z" transform="translate(-31.26 -290.959)"/>
          <path id="Path_44" data-name="Path 44" d="M136.751,113.083a6.3,6.3,0,0,0-8.781-.593l-6.353,5.57L105.153,99.112l3.823-3.352c1.892-1.659-.672-4.757-2.651-3.023l-21.447,18.8c-2.1,1.845-4.985-1.494-2.879-3.341l32.237-28.263c2.1-1.844,4.985,1.495,2.879,3.341L113.893,86.1c-1.892,1.658.672,4.757,2.651,3.023l3.223-2.825c5.961-5.227-2.066-14.747-8.181-9.388L108.03,80.03,99.27,69.948l-2.74-3.154h0L60.619,25.468a6.169,6.169,0,0,0-8.6-.581l-1.449,1.27L45.861,20.74a6.169,6.169,0,0,0-8.6-.581l-.4.354L19.612.668c-1.651-1.9-4.76.652-3.035,2.637L33.832,23.163l-.417.365a6.132,6.132,0,0,0-.588,8.615l4.718,5.43-1.462,1.282a6.132,6.132,0,0,0-.588,8.615l9.952,11.454a2.008,2.008,0,0,0-.893,1.671V67.98a2.01,2.01,0,0,0,2.01,2.01h2.3v4.636l-9.243,10.89q-.411,1.044-.822,0l-9.243-10.89V69.99h2.3a2.01,2.01,0,0,0,2.01-2.01V60.6a2.01,2.01,0,0,0-2.01-2.01H11.58a2.01,2.01,0,0,0-2.01,2.01V67.98a2.01,2.01,0,0,0,2.01,2.01h2.3v4.636L4.634,85.515A10.165,10.165,0,0,0,2.22,92.086v11.2c0,2.516,4.021,2.63,4.021,0V98.777H37.19v18.668H6.241v-3.416c0-2.516-4.021-2.63-4.021,0v16.137a7.071,7.071,0,0,0,7.069,7.057H34.142a7.052,7.052,0,0,0,5.066-2.143,7.053,7.053,0,0,0,5.066,2.143H69.127a7.071,7.071,0,0,0,7.069-7.057V94.312l6.721,7.735-3.568,3.129c-6.029,5.287,2.139,14.685,8.181,9.388l14.6-12.8,16.464,18.948-6.366,5.581c-6.03,5.286,2.139,14.685,8.181,9.388l15.743-13.8a6.259,6.259,0,0,0,.6-8.794ZM96.986,89.713l-5.491-6.32,8.021-7.032,5.491,6.32ZM75.754,87.672,94.82,70.957l2.059,2.369L77.813,90.041ZM35.862,29.506a2.1,2.1,0,0,1,.2-2.954l3.844-3.37a2.059,2.059,0,0,1,2.916.2l4.719,5.43-6.976,6.116Zm2.872,12.373L54.668,27.91a2.058,2.058,0,0,1,2.916.2l3.78,4.35-2.514,2.2c-1.912,1.677.742,4.7,2.651,3.023L64,35.49,68.79,41l-5.86,5.137c-1.912,1.677.743,4.7,2.651,3.023l5.847-5.126,4.789,5.511-2.514,2.2c-1.912,1.677.742,4.7,2.651,3.023l2.5-2.192,4.789,5.511-5.86,5.138c-1.912,1.677.743,4.7,2.651,3.023l5.847-5.126,5.9,6.792L73.116,84.637,64.54,74.625V69.99h2.3a2.01,2.01,0,0,0,2.01-2.01V60.6a2.01,2.01,0,0,0-2.01-2.01H50.479L38.53,44.834a2.1,2.1,0,0,1,.2-2.954Zm9.842,20.727h16.25v3.363H48.576ZM60.519,69.99v3.363H52.883V69.99Zm11.657,47.455H41.227V98.776H72.176ZM13.59,62.606h16.25v3.363H13.59ZM25.533,69.99v3.363H17.9V69.99ZM6.241,94.756c-.116-2.293-.112-4.789,1.458-6.639l9.119-10.743h9.8l9.119,10.743c1.57,1.85,1.575,4.345,1.458,6.639Zm27.9,38.446H9.289a3.046,3.046,0,0,1-3.048-3.036v-8.7H37.19v8.7A3.046,3.046,0,0,1,34.142,133.2Zm34.986,0H44.275a3.045,3.045,0,0,1-3.048-3.036v-8.7H72.176v8.7A3.046,3.046,0,0,1,69.128,133.2Zm1.59-45.085c1.57,1.85,1.575,4.345,1.458,6.639H41.227c-.116-2.293-.112-4.789,1.458-6.639L51.8,77.374h9.675Zm9.732,4.959,8.021-7.032,5.491,6.32L85.941,99.4ZM133.5,118.854l-15.743,13.8c-2.1,1.845-4.985-1.495-2.879-3.341l15.743-13.8c2.115-1.854,5.013,1.47,2.879,3.341Z" transform="translate(-2.22 0)"/>
        </g>
      </g>
    </g>
  </g>
</svg>
