<svg xmlns="http://www.w3.org/2000/svg" xmlns:xlink="http://www.w3.org/1999/xlink" width="500" height="376" viewBox="0 0 500 376">
  <defs>
    <clipPath id="clip-path">
      <rect id="Rectangle_27" data-name="Rectangle 27" width="38.773" height="17.242" transform="translate(0 0)" fill="none"/>
    </clipPath>
    <clipPath id="clip-path-2">
      <rect id="Rectangle_28" data-name="Rectangle 28" width="58.146" height="122.741" transform="translate(0 0)" fill="none"/>
    </clipPath>
    <clipPath id="clip-path-3">
      <rect id="Rectangle_21" data-name="Rectangle 21" width="32.297" height="20.459" fill="none"/>
    </clipPath>
    <clipPath id="clip-path-4">
      <rect id="Rectangle_22" data-name="Rectangle 22" width="6.462" height="6.462" transform="translate(0 0)" fill="none"/>
    </clipPath>
    <clipPath id="clip-path-6">
      <rect id="Rectangle_24" data-name="Rectangle 24" width="53.439" height="122.741" transform="translate(0 0)" fill="none"/>
    </clipPath>
    <clipPath id="clip-path-7">
      <rect id="Rectangle_36" data-name="Rectangle 36" width="38.746" height="17.952" fill="none"/>
    </clipPath>
    <clipPath id="clip-Custom_Size_1">
      <rect width="500" height="376"/>
    </clipPath>
  </defs>
  <g id="Custom_Size_1" data-name="Custom Size – 1" clip-path="url(#clip-Custom_Size_1)">
    <g id="Group_35" data-name="Group 35" transform="translate(0.219 -36.685)">
      <path id="Path_89" data-name="Path 89" d="M569.045,116.247l-4.429-2.785V94.27h-38.76v19.192L521.4,116.08v54.442h4.457v8.356h38.76v-8.356h4.429Z" transform="translate(-285.652 133.698)" fill="#f2ae75"/>
      <g id="Group_25" data-name="Group 25" transform="translate(240.19 229.918)" clip-path="url(#clip-path)">
        <path id="Path_90" data-name="Path 90" d="M563.349,95.67l.014,17.242-38.773-9.693V95.67Z" transform="translate(-524.59 -95.67)" fill="#f6ccb8"/>
      </g>
      <path id="Path_93" data-name="Path 93" d="M504.8,200.424s0,.989-.111,2.785H630.466c-.07-1.783-.1-2.785-.1-2.785s24.526,2.256,37.046-17.4c-2.785-15.891-10.083-33.746-15.487-45.472-7.381-16.044-32.966-21.6-63.7-30.236L567.584,146.8l-20.64-39.484c-30.751,8.635-56.336,14.192-63.717,30.236-5.39,11.727-12.716,29.581-15.487,45.472,12.534,19.651,36.921,17.548,37.06,17.4" transform="translate(-308.007 139.436)" fill="#65c6bb"/>
      <path id="Path_94" data-name="Path 94" d="M595.39,70.76,596.7,53.7c0-22.284-21.323-40.389-43.606-40.389S509.487,31.415,509.487,53.7L510.8,70.732a8.05,8.05,0,0,0-6.156,7.841v8.356a8.064,8.064,0,0,0,8.022,8.12c0,21.058,25.306,41.03,40.389,41.03s40.389-19.958,40.389-41.03a8.064,8.064,0,0,0,8.022-8.064V78.629a8.05,8.05,0,0,0-6.142-7.813" transform="translate(-293.516 102.516)" fill="#f2ae75"/>
      <g id="Group_26" data-name="Group 26" transform="translate(249.884 115.84)" clip-path="url(#clip-path-2)">
        <path id="Path_95" data-name="Path 95" d="M584.457,70.76,585.766,53.7c0-22.284-21.323-40.389-43.606-40.389V70.648c-5.891,12.535-9.679,30.64-9.679,30.64h9.679v34.721c15.139,0,40.389-19.972,40.389-41.03a8.064,8.064,0,0,0,8.022-8.064V78.559a8.05,8.05,0,0,0-6.142-7.813" transform="translate(-532.466 -13.324)" fill="#f6ccb8"/>
      </g>
      <path id="Path_96" data-name="Path 96" d="M594.82,28.232s-8.259-26.03-42.185-26h0c-33.927,0-42.186,26-42.186,26-5.571,13.161-5.919,30.64-2.159,47.673l5.571-.752a28.659,28.659,0,0,1,.752-6.114c6.852-9.108,10.1-25.069,10.1-25.069a136.613,136.613,0,0,0,27.91,3.9h0a169.651,169.651,0,0,0,29.568-3.788s1.63,15.891,8.468,25.069a27.57,27.57,0,0,1,.752,6.114l5.571.752c3.76-17.061,3.454-34.512-2.131-47.673" transform="translate(-293.058 98.165)" fill="#231f20"/>
      <path id="Path_97" data-name="Path 97" d="M590.5,79.038a66.218,66.218,0,0,1-2.563,12.785A60.443,60.443,0,0,1,580.294,75.5l10.181-20.515a.808.808,0,0,0-1.393-.808l-10.1,20.362H523.039L512.956,54.178a.808.808,0,0,0-1.393.808L521.744,75.5A59.886,59.886,0,0,1,514.1,91.823a67.356,67.356,0,0,1-2.563-12.785c-.293,0-.571.1-.877.1a6.655,6.655,0,0,1-.738-.084c1.226,10.808,3.44,15.459,3.538,15.654h0c5.933,14.93,22.172,25.487,37.506,25.487s31.559-10.557,37.492-25.487h0c.1-.195,2.326-4.847,3.537-15.654a6.051,6.051,0,0,1-.724.084,2.742,2.742,0,0,1-.891-.1" transform="translate(-291.442 118.43)" fill="#ebebeb"/>
      <path id="Path_98" data-name="Path 98" d="M598.792,64.282c-3.161-1.393-4.471-3.4-9.944-5.264a120.151,120.151,0,0,0-36.211-6.351,103.98,103.98,0,0,0-36.656,7.562c-5.279,2.145-6.379,4.345-9.29,5.947a89.96,89.96,0,0,1-.627-18.746,67.8,67.8,0,0,1,1.253-9.289,54.965,54.965,0,0,1,3.106-9.958s8.259-26.044,42.2-26,42.186,26,42.186,26a52.525,52.525,0,0,1,3.05,9.749,63.749,63.749,0,0,1,1.393,9.248,87.109,87.109,0,0,1-.4,17.075" transform="translate(-293.046 98.145)" fill="#65c6bb"/>
      <path id="Path_99" data-name="Path 99" d="M599.147,39.5a116.627,116.627,0,0,0-93.187.223,67.821,67.821,0,0,1,1.309-9.289,124.523,124.523,0,0,1,90.527-.223,63.732,63.732,0,0,1,1.393,9.248" transform="translate(-292.998 105.852)" fill="#d6d6d6"/>
      <path id="Path_100" data-name="Path 100" d="M560.111,29.712A16.156,16.156,0,1,1,543.956,13.57a16.156,16.156,0,0,1,16.156,16.142" transform="translate(-284.42 102.618)" fill="#d6d6d6"/>
      <path id="Path_101" data-name="Path 101" d="M544.911,14.481a16.156,16.156,0,1,1-16.155,16.142,16.156,16.156,0,0,1,16.155-16.142m0-3.231a19.387,19.387,0,1,0,19.373,19.377A19.387,19.387,0,0,0,544.911,11.25" transform="translate(-285.32 101.707)" fill="#a7a9ac"/>
      <path id="Path_102" data-name="Path 102" d="M548.327,27.124a6.964,6.964,0,1,1-6.964-6.964,6.964,6.964,0,0,1,6.964,6.964" transform="translate(-281.828 105.206)" fill="#f1f2f2"/>
      <path id="Path_72" data-name="Path 72" d="M661.759,113.78l-32.033,10.654a22.047,22.047,0,0,0-14.61,16.49L603,200.435h65.263l-6.532-86.627" transform="translate(-254.888 141.973)" fill="#ebebeb"/>
      <path id="Path_91" data-name="Path 91" d="M614.694,184.4l-.362-27.646-30.682,8.078,2.159,19.568Z" transform="translate(-261.205 158.236)" fill="#f2ae75"/>
      <path id="Path_63" data-name="Path 63" d="M726.339,159.758a4.9,4.9,0,0,1-.223,1.017c-.808,3.454-1.713,6.671-2.7,9.6a45.327,45.327,0,0,1-5.794,12.367,16.874,16.874,0,0,1-3.579,3.719,15.459,15.459,0,0,1-9.624,2.925H645.3a15.32,15.32,0,0,1-9.958-3.189,17.189,17.189,0,0,1-3.259-3.454,46.167,46.167,0,0,1-5.794-12.367c-.975-2.925-1.88-6.142-2.688-9.6-.084-.334-.167-.655-.223-.989-9.275-40.779-6.518-113.075,14.5-134.857,8.607-8.941,19.275-16.8,36.977-16.8a45.96,45.96,0,0,1,31.322,11.462,71,71,0,0,1,5.668,5.334,29.708,29.708,0,0,1,2.131,2.354c19.052,24.261,21.309,93.062,12.367,132.476" transform="translate(-248.87 100.479)" fill="#231f20"/>
      <path id="Path_64" data-name="Path 64" d="M646.241,111.24h41.1l3.231,18.551H643.01Z" transform="translate(-237.893 140.363)" fill="#e6e7e8"/>
      <path id="Path_65" data-name="Path 65" d="M683.065,118.838V98.24h-32.3v20.6l-8.078.627,8.078,52.074h32.3l8.078-52.074Z" transform="translate(-238.019 135.257)" fill="#f6ccb8"/>
      <g id="Group_19" data-name="Group 19" transform="translate(412.749 233.637)" clip-path="url(#clip-path-3)">
        <path id="Path_66" data-name="Path 66" d="M648.49,98.34v10.418l32.3,10.042V98.34Z" transform="translate(-648.49 -98.34)" fill="#f6ccb8"/>
      </g>
      <path id="Path_67" data-name="Path 67" d="M716.429,200.243c.849-23.272.5-77.867-21.044-85.973l-1.254,4.721c-2.173,6.225-7.744,6.727-20.974,6.727-14.944,0-20.64-3.273-22.4-8.9l-.682-2.549c-21.545,8.106-21.03,62.673-19.8,85.973Z" transform="translate(-244.365 142.166)" fill="#f5b3d0"/>
      <g id="Group_20" data-name="Group 20" transform="translate(425.659 287.967)" clip-path="url(#clip-path-4)">
        <path id="Path_68" data-name="Path 68" d="M665.142,140.141a3.231,3.231,0,1,1-3.231-3.231,3.231,3.231,0,0,1,3.231,3.231" transform="translate(-658.68 -136.91)" fill="#f5b3d0"/>
      </g>
      <g id="Group_21" data-name="Group 21" transform="translate(425.659 319.93)" clip-path="url(#clip-path-4)">
        <path id="Path_69" data-name="Path 69" d="M665.142,163.091a3.231,3.231,0,1,1-3.231-3.231,3.231,3.231,0,0,1,3.231,3.231" transform="translate(-658.68 -159.86)" fill="#f5b3d0"/>
      </g>
      <path id="Path_70" data-name="Path 70" d="M668.945,127.465l-10.39,10.947L640.77,117.2l11.142-5.571,4.178,3.872Z" transform="translate(-240.055 141.129)" fill="#ef80b0"/>
      <path id="Path_71" data-name="Path 71" d="M677.169,112.09,660.08,127.87l10.4,10.947,17.771-21.211Z" transform="translate(-231.19 140.697)" fill="#ef80b0"/>
      <path id="Path_73" data-name="Path 73" d="M678.662,113.78l31.963,10.654a22.047,22.047,0,0,1,14.624,16.49l12.158,59.511H672.13l6.532-86.627" transform="translate(-227.739 141.973)" fill="#ebebeb"/>
      <path id="Path_74" data-name="Path 74" d="M643.739,141.2l-6.239,8.537,15.306,52.283h1.114l-4.6-90.778-14.164,7.284.557,16.072Z" transform="translate(-240.976 140.363)" fill="#fff"/>
      <path id="Path_75" data-name="Path 75" d="M672.658,202.018l15.306-52.283-6.253-8.537,8.036-6.6.543-16.072-14.15-7.284-4.61,90.778Z" transform="translate(-226.693 140.363)" fill="#fff"/>
      <path id="Path_76" data-name="Path 76" d="M710.757,73.925v-16.8c0-17.841-20.654-40.389-37-40.389s-36.991,22.534-36.991,40.389v16.8A8.161,8.161,0,0,0,628.53,82v8.356a8.161,8.161,0,0,0,8.231,8.078c0,17.841,20.64,41.016,36.991,41.016s37-23.175,37-41.016a8.147,8.147,0,0,0,8.217-8.078V82a8.147,8.147,0,0,0-8.217-8.078" transform="translate(-244.861 103.863)" fill="#f6ccb8"/>
      <g id="Group_22" data-name="Group 22" transform="translate(420.673 120.617)" clip-path="url(#clip-path-6)">
        <path id="Path_77" data-name="Path 77" d="M663.317,109.621v29.874c16.351,0,37-23.175,37-41.016a8.147,8.147,0,0,0,8.217-8.078V82.045a8.147,8.147,0,0,0-8.217-8.078V57.129c0-17.841-20.654-40.389-37-40.389V82.2a109.317,109.317,0,0,0-8.217,25.835Z" transform="translate(-655.1 -16.754)" fill="#f6ccb8"/>
      </g>
      <path id="Path_78" data-name="Path 78" d="M715.393,55.78H709.71c-3.245-2.2-9.178-2.2-14.554-2.2-9.039,0-15.1,1.783-18.022,5.264a12.117,12.117,0,0,0-8.356,0c-2.925-3.482-8.969-5.264-18.022-5.264-5.376,0-11.309,0-14.554,2.2H630.52v6.128l2.451,1.393c0,9.582,4.735,20.682,17.785,20.682,10.738,0,17.381-5.836,19.763-17.312a10.5,10.5,0,0,0,.237-2.423,2.131,2.131,0,0,1,2.187-1.267,2.159,2.159,0,0,1,2.2,1.267,11.3,11.3,0,0,0,.223,2.423c2.382,11.476,9.025,17.312,19.763,17.312,13.05,0,17.729-11.142,17.785-20.682l2.451-1.393ZM667.706,66.045c-2.089,10.1-7.618,15-16.922,15-14.164,0-14.874-14.93-14.874-17.924,0-4.6,10.237-5.014,14.874-5.014,10.237,0,17.883,3.649,16.922,7.939m27.451,15c-9.289,0-14.819-4.9-16.908-15-.961-4.29,6.685-7.939,16.908-7.939,4.638,0,14.888.418,14.888,5.014,0,2.994-.724,17.924-14.888,17.924" transform="translate(-244.08 118.331)" fill="#fff"/>
      <path id="Path_79" data-name="Path 79" d="M637.749,138.63C626.148,99.689,617.931,75.5,624.3,49.245,636.677-1.8,699-4.835,705.324,27.2c1.393,6.824,15.069,13.551,7.966,47.13-.543-.195-16.532-19.136-20.71-28.927-54.831-.167-36.475,81.126-54.831,93.229" transform="translate(-247.395 99.784)" fill="#231f20"/>
      <path id="Path_80" data-name="Path 80" d="M689.494,147.572c0-1.393-1.546-31.712-16.894-39.442v3.524c12.535,8.147,13.83,35.751,13.844,36.058l.07,1.518,3.05-.125Z" transform="translate(-227.554 139.754)" fill="#a7a9ac"/>
      <path id="Path_81" data-name="Path 81" d="M654.132,111.664V108.14c-25.069,12.716-14.568,78.327-14.094,81.21l.251,1.5,3.008-.5-.251-1.5c-.1-.669-10.236-63.592,11.142-77.185" transform="translate(-241.356 139.758)" fill="#a7a9ac"/>
      <path id="Path_82" data-name="Path 82" d="M698.221,182.533a20.11,20.11,0,0,1-7.855-2.577c8.287-6.964,13.036-18.983,12.465-29.623S696.494,133.3,687.747,133.3s-14.6,6.546-15.1,17.033,4.178,22.687,12.535,29.623a20.056,20.056,0,0,1-7.841,2.576,1.52,1.52,0,0,0,.153,3.036h.167a23.134,23.134,0,0,0,10.153-3.677,23.077,23.077,0,0,0,10.139,3.677h.167a1.52,1.52,0,0,0,.167-3.036M675.77,150.5c.223-4.262,1.852-14.15,12.047-14.15s11.81,9.888,12.047,14.15c.529,10.083-4.081,21.559-12.047,27.7-7.98-6.142-12.534-17.618-12.047-27.7" transform="translate(-227.549 149.639)" fill="#a7a9ac"/>
      <path id="Path_85" data-name="Path 85" d="M653.23,166.78a9.15,9.15,0,1,1-9.15-9.15,9.15,9.15,0,0,1,9.15,9.15" transform="translate(-242.348 159.194)" fill="#e6e7e8"/>
      <path id="Path_86" data-name="Path 86" d="M644.94,158.49a9.15,9.15,0,1,1-9.15,9.15,9.15,9.15,0,0,1,9.15-9.15m0-3.05a12.2,12.2,0,1,0,12.2,12.2,12.2,12.2,0,0,0-12.2-12.2" transform="translate(-243.208 158.334)" fill="#a7a9ac"/>
      <path id="Path_87" data-name="Path 87" d="M649.874,166.042a6.532,6.532,0,1,1-6.532-6.532,6.532,6.532,0,0,1,6.532,6.532" transform="translate(-241.61 159.932)" fill="#a7a9ac"/>
      <path id="Path_84" data-name="Path 84" d="M693.876,172.793a23.377,23.377,0,0,1-2.618-.139,2.284,2.284,0,0,1,.487-4.54,21.724,21.724,0,0,0,4.359,0,2.289,2.289,0,1,1,.473,4.554,25.053,25.053,0,0,1-2.7.139" transform="translate(-221.003 163.306)" fill="#42404d"/>
      <path id="Path_83" data-name="Path 83" d="M675.709,172.8a24.836,24.836,0,0,1-2.688-.139,2.284,2.284,0,0,1-2.047-2.507,2.312,2.312,0,0,1,2.521-2.047,21.585,21.585,0,0,0,4.345,0,2.284,2.284,0,1,1,.488,4.54,23.38,23.38,0,0,1-2.618.139" transform="translate(-228.197 163.3)" fill="#42404d"/>
      <path id="Path_92" data-name="Path 92" d="M499.955,184.4l2.173-19.568-30.7-8.078L471.07,184.4Z" transform="translate(-305.418 158.236)" fill="#f2ae75"/>
      <rect id="Rectangle_35" data-name="Rectangle 35" width="46.865" height="20.083" transform="translate(67.186 241.645)" fill="#e6e7e8"/>
      <path id="Path_121" data-name="Path 121" d="M449.8,114.621l-6.044-2.785V92.63H405v19.206l-6.058,2.618,1.6,54.442H405v8.342h38.759V168.9h4.429Z" transform="translate(-333.745 133.054)" fill="#f6ccb8"/>
      <g id="Group_33" data-name="Group 33" transform="translate(71.253 225.684)" clip-path="url(#clip-path-7)">
        <path id="Path_122" data-name="Path 122" d="M403.29,92.63v9.54l38.746,8.412V92.63Z" transform="translate(-403.29 -92.63)" fill="#f6ccb8"/>
      </g>
      <path id="Path_123" data-name="Path 123" d="M482.208,202.162c.738-28.607-.85-85.3-24.247-94.092l-1.393,5.4c-2.493,7.145-8.886,18.816-24.052,18.816-17.117,0-23.676-14.86-25.668-21.309l-.78-2.911c-23.412,8.788-24.108,65.458-22.91,94.092Z" transform="translate(-341.36 139.731)" fill="#a3ddd6"/>
      <path id="Path_124" data-name="Path 124" d="M429.149,126.128l-3.719,7.131H414.107l-3.607-7.131,9.317-7.618Z" transform="translate(-329.206 143.218)" fill="#42404d"/>
      <path id="Path_125" data-name="Path 125" d="M427.231,123.179,415.31,135.714,394.92,111.4l12.73-6.337,4.777,4.429Z" transform="translate(-336.606 138.549)" fill="#65c6bb"/>
      <path id="Path_126" data-name="Path 126" d="M436.782,105.52,417.2,123.611l11.922,12.562L449.5,111.843Z" transform="translate(-326.574 138.116)" fill="#65c6bb"/>
      <path id="Path_127" data-name="Path 127" d="M426.967,194.037l-1.992-63.717H413.652l-1.922,63.717Z" transform="translate(-328.723 147.856)" fill="#42404d"/>
      <path id="Path_128" data-name="Path 128" d="M355.316,141.466l-8.886,61.085h97.811l-24.6-95.471-42.1,10.055a29.359,29.359,0,0,0-22.284,24.331" transform="translate(-355.649 139.342)" fill="#ebebeb"/>
      <path id="Path_129" data-name="Path 129" d="M486.088,117.08l-41.252-10-24.6,95.471h96.878L508.232,141.4a29.373,29.373,0,0,0-22.144-24.317" transform="translate(-326.662 139.342)" fill="#ebebeb"/>
      <path id="Path_130" data-name="Path 130" d="M398.368,138.6l-7.2,9.833,31.6,55.9h3.4L404.789,104.09l-16.309,8.384L389.121,131Z" transform="translate(-337.853 137.555)" fill="#fff"/>
      <path id="Path_131" data-name="Path 131" d="M422.248,204.338l31.6-55.9-7.2-9.833L455.9,131l.641-18.523-16.309-8.384L418.85,204.338Z" transform="translate(-325.926 137.555)" fill="#fff"/>
      <path id="Path_132" data-name="Path 132" d="M474.49,69.492l1.309-17.1C475.8,30.105,454.477,12,432.193,12s-43.606,18.105-43.606,40.389L389.9,69.436a7.744,7.744,0,0,0-3.3,1.671,8.036,8.036,0,0,0-2.855,6.156v8.356a8.064,8.064,0,0,0,8.036,8.064c0,21.072,25.306,41.03,40.389,41.03s40.389-19.958,40.389-41.016a8.092,8.092,0,0,0,8.022-8.078V77.263a8.064,8.064,0,0,0-6.156-7.813" transform="translate(-340.996 102.002)" fill="#f6ccb8"/>
      <g id="Group_34" data-name="Group 34" transform="translate(81.503 114.057)" clip-path="url(#clip-path-2)">
        <path id="Path_133" data-name="Path 133" d="M463.576,69.492l1.309-17.1C464.885,30.105,443.563,12,421.279,12h0V69.394c-5.891,12.535-9.749,30.64-9.749,30.64h9.749v34.721h0c15.111,0,40.389-19.958,40.389-41.016a8.092,8.092,0,0,0,8.022-8.078V77.3a8.064,8.064,0,0,0-6.156-7.813" transform="translate(-411.586 -12.056)" fill="#f6ccb8"/>
      </g>
      <path id="Path_134" data-name="Path 134" d="M477.79,74.18a49.347,49.347,0,0,1-3.872,10.25.724.724,0,0,1-1.393-.292c0-4.61-.1-12.089-.1-12.089l-9.053-27.423a207.144,207.144,0,0,1-31.2,3.8A207.433,207.433,0,0,1,401,44.626L391.8,72.049V84a.738.738,0,0,1-1.393.279,92.723,92.723,0,0,1-3.8-10.1,99.258,99.258,0,0,1-2.785-27.673,71.891,71.891,0,0,1,1.086-9.178,56.771,56.771,0,0,1,3.454-11.741s9.888-26.03,43.815-26h2.075a46.266,46.266,0,0,1,21.81,4.763s10.209,4.93,18.565.891a.39.39,0,0,1,.557.39,11.768,11.768,0,0,1-2.27,5.571,28.635,28.635,0,0,0,7.493-.682h.1v.111a25.569,25.569,0,0,1-4.485,14.958,57.814,57.814,0,0,1,3.426,11.518,69.6,69.6,0,0,1,1.1,9.15,98.428,98.428,0,0,1-2.785,27.854" transform="translate(-340.995 97.119)" fill="#231f20"/>
      <path id="Path_135" data-name="Path 135" d="M476.674,49.175h-8.732a25.863,25.863,0,0,0-12.047-2.368c-9,0-15.111,1.727-18.245,5.1a13.008,13.008,0,0,0-6.2-1.741,13.148,13.148,0,0,0-6.156,1.713c-3.175-3.4-9.234-5.07-18.217-5.07a25.863,25.863,0,0,0-12.047,2.368h-8.8v6.267l2.9,1.017A14.778,14.778,0,0,0,388.709,60c0,7.827,1.908,18.217,18.37,18.217,14.707,0,18.565-9.039,20.4-17.9a10.754,10.754,0,0,0,.111-3.816,7.1,7.1,0,0,1,3.858-.863,6.964,6.964,0,0,1,3.914.905,10.862,10.862,0,0,0,.125,3.774c1.838,8.858,5.7,17.9,20.4,17.9,16.462,0,18.37-10.39,18.37-18.217a14.8,14.8,0,0,0-.418-3.551l2.785-1ZM424.307,59.69c-1.894,9.206-5.571,15.32-17.228,15.32-13.3,0-15.139-7.214-15.139-15,0-2.479,0-9.986,15.139-9.986,10.445,0,14.568,2.368,16.169,4.345a6.058,6.058,0,0,1,1.058,5.306M455.894,75c-11.671,0-15.32-6.128-17.242-15.32a6.1,6.1,0,0,1,1.058-5.306c1.616-1.978,5.738-4.345,16.183-4.345,15.139,0,15.139,7.507,15.139,9.986,0,7.785-1.838,15-15.139,15" transform="translate(-340.018 115.661)" fill="#fff"/>
      <path id="Path_136" data-name="Path 136" d="M449.913,142.462c0-1.49-1.63-33.579-17.883-41.782v3.733c13.217,8.621,14.651,37.84,14.665,38.161l.07,1.616,3.217-.139Z" transform="translate(-322.032 136.828)" fill="#a7a9ac"/>
      <path id="Path_137" data-name="Path 137" d="M409.182,104.156V100.41c-26.587,13.482-15.417,82.951-14.916,85.987l.265,1.6,3.189-.529-.265-1.6c-.125-.71-10.849-67.324,11.727-81.711" transform="translate(-337.943 136.722)" fill="#a7a9ac"/>
      <path id="Path_138" data-name="Path 138" d="M459.34,181.735a21.615,21.615,0,0,1-8.356-2.785c8.774-7.34,13.8-20.1,13.2-31.364s-6.713-18.105-15.975-18.105-15.39,6.964-15.988,18.105,4.429,24.025,13.2,31.364a21.629,21.629,0,0,1-8.356,2.785,1.616,1.616,0,0,0,.167,3.217h.265a24.414,24.414,0,0,0,10.752-3.886,24.359,24.359,0,0,0,10.738,3.886h.167a1.616,1.616,0,0,0,.181-3.217M435.5,147.808c.237-4.5,1.964-14.972,12.757-14.972S460.788,143.31,461,147.808c.571,10.682-4.3,22.841-12.743,29.345-8.454-6.5-13.328-18.662-12.757-29.345" transform="translate(-321.974 148.139)" fill="#a7a9ac"/>
      <path id="Path_139" data-name="Path 139" d="M435.45,171.4a27.692,27.692,0,0,1-2.785-.139,2.423,2.423,0,0,1,.5-4.819,23.029,23.029,0,0,0,4.6,0,2.423,2.423,0,1,1,.515,4.819,26.009,26.009,0,0,1-2.785.139" transform="translate(-322.61 162.65)" fill="#42404d"/>
      <path id="Path_140" data-name="Path 140" d="M454.756,171.4a25.985,25.985,0,0,1-2.785-.139,2.423,2.423,0,1,1,.515-4.819,23.035,23.035,0,0,0,4.6,0,2.423,2.423,0,0,1,.5,4.819,27.7,27.7,0,0,1-2.785.139" transform="translate(-315.051 162.65)" fill="#42404d"/>
      <path id="Path_142" data-name="Path 142" d="M398.275,156.241a9.749,9.749,0,1,1-9.679,9.679,9.749,9.749,0,0,1,9.679-9.679m0-3.231A12.924,12.924,0,1,0,411.2,165.921a12.924,12.924,0,0,0-12.925-12.911" transform="translate(-340.364 157.38)" fill="#a7a9ac"/>
      <path id="Path_141" data-name="Path 141" d="M407.088,165.009a9.749,9.749,0,1,1-9.749-9.679,9.749,9.749,0,0,1,9.749,9.679" transform="translate(-339.484 158.291)" fill="#e6e7e8"/>
      <path id="Path_143" data-name="Path 143" d="M403.527,164.244a6.964,6.964,0,1,1-6.964-6.964,6.964,6.964,0,0,1,6.964,6.964" transform="translate(-338.695 159.057)" fill="#a7a9ac"/>
    </g>
  </g>
</svg>
